<svg xmlns="http://www.w3.org/2000/svg" xmlns:xlink="http://www.w3.org/1999/xlink" width="223.208" height="248.307" viewBox="0 0 223.208 248.307">
  <defs>
    <clipPath id="clip-path">
      <rect id="Rectangle_411475" data-name="Rectangle 411475" width="223.208" height="248.307" fill="none"/>
    </clipPath>
  </defs>
  <g id="Group_1207930" data-name="Group 1207930" transform="translate(-1166.214 -7001.662)">
    <g id="Group_1207929" data-name="Group 1207929">
      <g id="Group_1207928" data-name="Group 1207928">
        <g id="Group_1207927" data-name="Group 1207927">
          <g id="Group_1207926" data-name="Group 1207926">
            <g id="Group_1207869" data-name="Group 1207869" transform="translate(1166.214 7001.662)">
              <g id="Group_1207868" data-name="Group 1207868" clip-path="url(#clip-path)">
                <path id="Path_1277788" data-name="Path 1277788" d="M199.934,256.92l-61.975-61.975-27.546-6.89-13.78-13.77L58.756,212.158l13.775,13.773,6.885,20.656,58.542,58.533a9.74,9.74,0,0,0,13.771,0l34.429-34.429a9.739,9.739,0,0,0,13.775-13.771" transform="translate(-22.91 -67.955)" fill="#fdc9a6"/>
                <path id="Path_1277806" data-name="Path 1277806" d="M0,0H68.169V29.215H0Z" transform="matrix(0.707, -0.707, 0.707, 0.707, 4.867, 133.87)" fill="#589f8f"/>
                <path id="Path_1277807" data-name="Path 1277807" d="M0,0H29.215V68.168H0Z" transform="translate(149.481 106.328) rotate(-45)" fill="#f3bfcc"/>
                <path id="Path_1277789" data-name="Path 1277789" d="M236.5,339.479,222.724,325.71a4.868,4.868,0,1,0-6.883,6.883l13.768,13.771Z" transform="translate(-83.579 -126.418)" fill="#f0bf9e"/>
                <path id="Path_1277790" data-name="Path 1277790" d="M214,362.132l-13.768-13.775a4.869,4.869,0,0,0-6.885,6.885l13.771,13.776Z" transform="translate(-74.855 -135.295)" fill="#f0bf9e"/>
                <path id="Path_1277791" data-name="Path 1277791" d="M138.06,337.936a9.741,9.741,0,0,0-13.775,0,9.739,9.739,0,0,0-13.771-13.775,9.737,9.737,0,0,0-13.773-13.768,9.739,9.739,0,0,0-13.77-13.776l-3.443,3.443A9.739,9.739,0,0,0,93.3,313.836,9.738,9.738,0,0,0,107.074,327.6a9.738,9.738,0,0,0,13.768,13.776,9.739,9.739,0,1,0,13.77,13.771l3.448-3.443a9.74,9.74,0,0,0,0-13.771" transform="translate(-29.896 -114.543)" fill="#f6bb92"/>
                <path id="Path_1277792" data-name="Path 1277792" d="M270.06,212.157l-37.874-37.874L218.41,188.054l14.517,17.7-20.808,3.571,37.28,37.282a19.383,19.383,0,0,0,4.976-18.747Z" transform="translate(-82.708 -67.955)" fill="#f6bb92"/>
                <path id="Path_1277793" data-name="Path 1277793" d="M194.6,81.971a34.084,34.084,0,1,1-34.084-34.084A34.083,34.083,0,0,1,194.6,81.971" transform="translate(-49.295 -18.672)" fill="#f8da30"/>
                <path id="Path_1277794" data-name="Path 1277794" d="M173,117.559a18.569,18.569,0,0,1-13.181-5.454,4.869,4.869,0,0,1,6.885-6.885,8.913,8.913,0,0,0,12.591,0,4.869,4.869,0,0,1,6.885,6.885A18.569,18.569,0,0,1,173,117.559" transform="translate(-61.782 -40.494)" fill="#ea9d2d"/>
                <path id="Path_1277795" data-name="Path 1277795" d="M163.221,86.438a4.869,4.869,0,0,1-4.869-4.869V76.7a4.869,4.869,0,0,1,9.738,0v4.869a4.869,4.869,0,0,1-4.869,4.869" transform="translate(-61.743 -28.008)" fill="#ea9d2d"/>
                <path id="Path_1277796" data-name="Path 1277796" d="M195.146,86.438a4.869,4.869,0,0,1-4.869-4.869V76.7a4.869,4.869,0,0,1,9.738,0v4.869a4.869,4.869,0,0,1-4.869,4.869" transform="translate(-74.191 -28.008)" fill="#ea9d2d"/>
                <rect id="Rectangle_411467" data-name="Rectangle 411467" width="9.738" height="9.738" transform="translate(155.039)" fill="#b8eaee"/>
                <rect id="Rectangle_411468" data-name="Rectangle 411468" width="9.738" height="9.738" transform="translate(140.431 14.608)" fill="#b8eaee"/>
                <rect id="Rectangle_411469" data-name="Rectangle 411469" width="9.738" height="9.738" transform="translate(169.647 14.608)" fill="#b8eaee"/>
                <rect id="Rectangle_411470" data-name="Rectangle 411470" width="9.738" height="9.738" transform="translate(155.039 29.215)" fill="#b8eaee"/>
                <path id="Path_1277797" data-name="Path 1277797" d="M238.448,310.972l13.775,13.768,3.443-3.44-17.218-17.218a4.874,4.874,0,0,0,0,6.89" transform="translate(-92.418 -118.565)" fill="#f0bf9e"/>
                <path id="Path_1277798" data-name="Path 1277798" d="M267.582,332.3l.01-.012Z" transform="translate(-104.333 -129.562)" fill="#f0bf9e"/>
                <path id="Path_1277799" data-name="Path 1277799" d="M243.192,227.3l-19.253-22.135-.673.841,9.662,11.769-20.808,3.569,17.686,17.691Z" transform="translate(-82.708 -79.996)" fill="#eeb58e"/>
                <path id="Path_1277800" data-name="Path 1277800" d="M191.721,216.081,177.95,229.854a9.74,9.74,0,1,1-13.775-13.773l19.613-19.615a11.2,11.2,0,0,1,15.865,0l19.612,19.615-1.227,1.227a17.742,17.742,0,0,1-25.09,0Z" transform="translate(-62.901 -75.32)" fill="#f6bb92"/>
                <path id="Path_1277801" data-name="Path 1277801" d="M187.352,202.723l6.89,6.885a4.865,4.865,0,0,0,6.883,0l20.656-20.659a4.866,4.866,0,0,0,0-6.885l-48.2-48.2a4.868,4.868,0,0,0-6.885,0L146.05,154.5,134.656,165.79a16.133,16.133,0,0,0-17.206,3.545l-3.9,3.9L90,167.345l-12.82-12.822L56.516,133.864a4.866,4.866,0,0,0-6.885,0l-48.2,48.2a4.868,4.868,0,0,0,0,6.885l20.684,20.654a4.868,4.868,0,0,0,6.885,0l6.883-6.885,9.52,9.52,5.635,16.9a13.619,13.619,0,0,0-1.379,1.129l-3.443,3.438a14.545,14.545,0,0,0,9.574,24.834,14.391,14.391,0,0,0,13.768,13.78,14.384,14.384,0,0,0,13.766,13.764,14.569,14.569,0,0,0,24.862,9.579l3.448-3.443a14.611,14.611,0,0,0,20.656,0l31.581-31.578a14.608,14.608,0,0,0,16.6-23.493l-7.237-7.238a24.309,24.309,0,0,0,3.7-16.807c.028,0,.064-.035.093-.059ZM170.134,144.19l41.315,41.321L197.678,199.28l-41.324-41.315ZM32.408,192.4l-6.89,6.883L11.745,185.511,53.064,144.19,66.84,157.965ZM63.4,244.045l-3.443,3.442a4.988,4.988,0,0,1-6.89,0,4.87,4.87,0,0,1,0-6.881l3.443-3.442a4.87,4.87,0,0,1,6.89,6.885ZM77.17,257.812l-3.44,3.443a4.97,4.97,0,0,1-6.885,0,4.865,4.865,0,0,1,0-6.883l3.443-3.443a4.87,4.87,0,0,1,6.89,6.883Zm13.771,13.776L87.5,275.026a4.869,4.869,0,1,1-6.885-6.885l3.443-3.443a4.87,4.87,0,0,1,6.885,6.89m13.78,13.77-3.452,3.448a4.983,4.983,0,0,1-6.881,0,4.873,4.873,0,0,1,0-6.885l3.443-3.443a4.869,4.869,0,0,1,6.89,6.881m68.861-41.314a4.869,4.869,0,0,1-6.885,6.885l-13.78-13.775a4.869,4.869,0,0,0-6.885,6.885l10.332,10.326-6.885,6.89-10.333-10.33a4.868,4.868,0,1,0-6.883,6.882l10.331,10.333-6.89,6.885-10.326-10.333a4.869,4.869,0,0,0-6.885,6.885l10.328,10.333-3.443,3.447a4.974,4.974,0,0,1-6.885,0l-2.689-2.686a14.406,14.406,0,0,0-13.768-15.285,14.381,14.381,0,0,0-13.775-13.771A14.121,14.121,0,0,0,74.5,239.983,14.458,14.458,0,0,0,60.23,226.027l-5.984-17.958a4.876,4.876,0,0,0-1.172-1.9L42.746,195.84l30.977-30.989,10.328,10.333a4.888,4.888,0,0,0,2.266,1.281l19.2,4.8-7.693,7.694a14.607,14.607,0,0,0,20.661,20.654l10.328-10.328,34.429,34.432Zm-.352-40.975a24.413,24.413,0,0,0-3.091-3.795,4.869,4.869,0,1,0-6.885,6.885,14.61,14.61,0,0,1,2.806,16.586l-19.477-19.477a22.409,22.409,0,0,0,12.011-6.179l1.232-1.227a4.884,4.884,0,0,0-6.9-6.914l-1.236,1.232a12.89,12.89,0,0,1-18.2,0l-1.227-1.227a4.868,4.868,0,0,0-6.885,0l-13.77,13.768a4.87,4.87,0,1,1-6.89-6.883l19.613-19.614a6.383,6.383,0,0,1,8.278-.59,305.056,305.056,0,0,0,1.426.687,4.793,4.793,0,0,0,.935.185,4.742,4.742,0,0,0,.882.048,5.241,5.241,0,0,0,.975-.178,4.937,4.937,0,0,0,.832-.288,5.036,5.036,0,0,0,.818-.534,4.823,4.823,0,0,0,.521-.347l10.468-10.371,31.008,31Z" transform="translate(0 -51.637)"/>
                <path id="Path_1277802" data-name="Path 1277802" d="M157.4,39.906A38.954,38.954,0,1,0,196.354,78.86,38.953,38.953,0,0,0,157.4,39.906m0,68.169A29.215,29.215,0,1,1,186.616,78.86,29.217,29.217,0,0,1,157.4,108.075" transform="translate(-46.184 -15.56)"/>
                <path id="Path_1277803" data-name="Path 1277803" d="M179.294,105.22a8.914,8.914,0,0,1-12.592,0,4.869,4.869,0,0,0-6.885,6.885,18.654,18.654,0,0,0,26.363,0,4.869,4.869,0,0,0-6.885-6.885" transform="translate(-61.782 -40.493)"/>
                <path id="Path_1277804" data-name="Path 1277804" d="M163.221,86.438a4.869,4.869,0,0,0,4.869-4.869V76.7a4.869,4.869,0,0,0-9.738,0v4.869a4.869,4.869,0,0,0,4.869,4.869" transform="translate(-61.743 -28.008)"/>
                <path id="Path_1277805" data-name="Path 1277805" d="M195.146,71.831a4.869,4.869,0,0,0-4.869,4.869v4.869a4.869,4.869,0,1,0,9.738,0V76.7a4.869,4.869,0,0,0-4.869-4.869" transform="translate(-74.191 -28.008)"/>
                <rect id="Rectangle_411471" data-name="Rectangle 411471" width="9.738" height="9.738" transform="translate(155.039)"/>
                <rect id="Rectangle_411472" data-name="Rectangle 411472" width="9.738" height="9.738" transform="translate(140.431 14.608)"/>
                <rect id="Rectangle_411473" data-name="Rectangle 411473" width="9.738" height="9.738" transform="translate(169.647 14.608)"/>
                <rect id="Rectangle_411474" data-name="Rectangle 411474" width="9.738" height="9.738" transform="translate(155.039 29.215)"/>
              </g>
            </g>
          </g>
        </g>
      </g>
    </g>
  </g>
</svg>
