<svg xmlns="http://www.w3.org/2000/svg" xmlns:xlink="http://www.w3.org/1999/xlink" width="104" height="104" viewBox="0 0 104 104">
  <defs>
    <clipPath id="clip-path">
      <rect id="Rectangle_411389" data-name="Rectangle 411389" width="102.059" height="95.332" fill="none"/>
    </clipPath>
  </defs>
  <g id="Group_1207783" data-name="Group 1207783" transform="translate(6512 -4411)">
    <rect id="Rectangle_411381" data-name="Rectangle 411381" width="104" height="104" transform="translate(-6512 4411)" fill="none"/>
    <g id="Group_1207776" data-name="Group 1207776" transform="translate(-6510.059 4417.088)">
      <g id="Group_1207775" data-name="Group 1207775" clip-path="url(#clip-path)">
        <path id="Path_1277482" data-name="Path 1277482" d="M101.208,113.98a27.585,27.585,0,0,1,27.683,27.489c0,18.167-13.94,19.362-13.94,29.655v7.948A3.846,3.846,0,0,1,111.1,182.9H91.321a3.846,3.846,0,0,1-3.854-3.826v-6.339H83.746a5.632,5.632,0,0,1-5.642-5.6v-9.693H69.168a1.605,1.605,0,0,1-1.608-1.6c0-3.33.18-4.642,3.466-6.153a4.735,4.735,0,0,0,2.763-5.013c-2.3-16.479,10.56-30.7,27.419-30.7" transform="translate(-52.7 -89.092)" fill="#ffd3b6" fill-rule="evenodd"/>
        <path id="Path_1277483" data-name="Path 1277483" d="M368.974,265.94a10.8,10.8,0,1,1-10.874,10.8,10.836,10.836,0,0,1,10.874-10.8" transform="translate(-279.336 -207.871)" fill="#ffe177" fill-rule="evenodd"/>
        <path id="Path_1277484" data-name="Path 1277484" d="M17.874,50A10.8,10.8,0,1,1,7,60.8,10.837,10.837,0,0,1,17.874,50" transform="translate(-5.46 -39.082)" fill="#71bf44" fill-rule="evenodd"/>
        <path id="Path_1277485" data-name="Path 1277485" d="M200.826,113.98a27.585,27.585,0,0,1,27.683,27.489c0,18.167-13.94,19.362-13.94,29.655v7.948a3.847,3.847,0,0,1-3.86,3.826H200.547a3.846,3.846,0,0,0,3.854-3.826v-7.948c0-10.293,13.94-11.488,13.94-29.655a27.541,27.541,0,0,0-22.65-27.03A29.075,29.075,0,0,1,200.826,113.98Z" transform="translate(-152.648 -89.092)" fill="#ffd3b6" fill-rule="evenodd"/>
        <path id="Path_1277486" data-name="Path 1277486" d="M252.734,7h3.99a1.551,1.551,0,0,1,1.553,1.542v1.852a15.649,15.649,0,0,1,4.845,1.994l1.322-1.306a1.563,1.563,0,0,1,2.2,0l2.818,2.8a1.535,1.535,0,0,1,0,2.179l-1.315,1.312a15.573,15.573,0,0,1,2.008,4.81h1.865a1.551,1.551,0,0,1,1.553,1.542v3.961a1.551,1.551,0,0,1-1.553,1.542h-1.865a15.479,15.479,0,0,1-2.008,4.815l1.315,1.306a1.535,1.535,0,0,1,0,2.179l-2.818,2.8a1.563,1.563,0,0,1-2.2,0l-1.322-1.312a15.853,15.853,0,0,1-4.845,2v1.845a1.551,1.551,0,0,1-1.553,1.542h-3.99a1.551,1.551,0,0,1-1.553-1.542V41.015a15.706,15.706,0,0,1-4.846-2l-1.322,1.312a1.563,1.563,0,0,1-2.2,0L240,37.524a1.535,1.535,0,0,1,0-2.179l1.315-1.306a15.554,15.554,0,0,1-2.008-4.815h-1.865a1.551,1.551,0,0,1-1.553-1.542V23.722a1.551,1.551,0,0,1,1.553-1.542h1.865a15.521,15.521,0,0,1,2.008-4.81L240,16.057a1.535,1.535,0,0,1,0-2.179l2.818-2.8a1.563,1.563,0,0,1,2.2,0l1.322,1.306a15.68,15.68,0,0,1,4.846-1.994V8.542A1.551,1.551,0,0,1,252.734,7Z" transform="translate(-184.006 -5.472)" fill="#75c5b4" fill-rule="evenodd"/>
        <path id="Path_1277487" data-name="Path 1277487" d="M281.7,7h3.99a1.551,1.551,0,0,1,1.553,1.542v1.852a15.649,15.649,0,0,1,4.846,1.994l1.322-1.306a1.563,1.563,0,0,1,2.2,0l2.818,2.8a1.535,1.535,0,0,1,0,2.179L297.1,17.37a15.572,15.572,0,0,1,2.008,4.81h1.865a1.551,1.551,0,0,1,1.553,1.542v3.961a1.551,1.551,0,0,1-1.553,1.542h-1.865a15.477,15.477,0,0,1-2.008,4.815l.972.965h-.33A24.64,24.64,0,0,1,273.02,10.636a1.537,1.537,0,0,1,.961.445l1.322,1.306a15.68,15.68,0,0,1,4.846-1.994V8.542A1.545,1.545,0,0,1,281.7,7Z" transform="translate(-212.969 -5.472)" fill="#75c5b4" fill-rule="evenodd"/>
        <path id="Path_1277488" data-name="Path 1277488" d="M167.908,209.675l2.015-2.4a7.086,7.086,0,0,1,9.907-.911c6.372,5.26-2.2,15.331-8.037,21.218a5.9,5.9,0,0,1-7.762,0c-5.848-5.887-14.409-15.957-8.037-21.218a7.086,7.086,0,0,1,9.907.911Z" transform="translate(-119.924 -160.048)" fill="#fd8087" fill-rule="evenodd"/>
        <path id="Path_1277489" data-name="Path 1277489" d="M183.378,209.675l2.015-2.4a7.086,7.086,0,0,1,9.907-.911c5.461,4.511-.057,12.553-5.424,18.471a31.676,31.676,0,0,1-16.3-19.665,7.093,7.093,0,0,1,7.8,2.1Z" transform="translate(-135.393 -160.048)" fill="#fd8087" fill-rule="evenodd"/>
        <path id="Path_1277490" data-name="Path 1277490" d="M47.991,47.246l.829-1A8.632,8.632,0,0,1,61,45.241l.013.007c3.772,3.219,3.2,7.669.816,12.156a52.31,52.31,0,0,1-8.873,11.21l.007.007a7.444,7.444,0,0,1-9.9.044h-.007c-2.961-2.946-6.807-7.291-8.91-11.258-2.382-4.487-2.961-8.944.829-12.162a1.707,1.707,0,0,1,.231-.192,8.644,8.644,0,0,1,11.945,1.2Zm3.185.952L48.97,50.8a1.547,1.547,0,0,1-2.164-.2L44.8,48.2a5.556,5.556,0,0,0-7.749-.712c-5.692,4.7,4.782,15.628,8.187,19.014a4.387,4.387,0,0,0,5.549-.044c2.844-2.865,6.341-6.734,8.323-10.479,1.727-3.249,2.27-6.376-.088-8.411a1.066,1.066,0,0,1-.187-.155,5.562,5.562,0,0,0-7.656.786M70.723,9.7A10.529,10.529,0,1,1,60.117,20.228,10.572,10.572,0,0,1,70.723,9.7m5.325,5.243a7.578,7.578,0,0,0-10.65,0,7.446,7.446,0,0,0,0,10.573,7.578,7.578,0,0,0,10.65,0A7.44,7.44,0,0,0,76.048,14.942ZM68.734,0h3.983A3.088,3.088,0,0,1,75.81,3.07v.681a16.977,16.977,0,0,1,3.055,1.256,3.434,3.434,0,0,1,2.668-1.38,3.093,3.093,0,0,1,2.188.9l2.818,2.8a3.055,3.055,0,0,1,0,4.345l-.486.483a16.49,16.49,0,0,1,1.271,3.026,3.427,3.427,0,0,1,2.862.9h.007a3.046,3.046,0,0,1,.9,2.166v3.961A3.084,3.084,0,0,1,88,25.277h-.68a16.744,16.744,0,0,1-1.271,3.033,3.376,3.376,0,0,1,1.39,2.649,3.048,3.048,0,0,1-.9,2.173l-2.818,2.8a3.109,3.109,0,0,1-4.377,0l-.479-.483A16.977,16.977,0,0,1,75.81,36.7a3.38,3.38,0,0,1-1.023,2.965A28.849,28.849,0,0,1,77.73,52.375c0,18.693-13.94,20.381-13.94,29.655v7.948A5.38,5.38,0,0,1,58.4,95.332H38.621a5.38,5.38,0,0,1-5.393-5.354v-4.81H31.046a7.168,7.168,0,0,1-7.184-7.131V69.872H16.474a3.144,3.144,0,0,1-3.154-3.125c0-3.856.436-5.738,4.364-7.54a3.207,3.207,0,0,0,1.883-3.424C17.13,38.3,30.833,23.355,48.508,23.355c.7,0,1.4.031,2.1.081a3.018,3.018,0,0,1-.262-1.232V18.244a3.088,3.088,0,0,1,3.092-3.07h.686a16.935,16.935,0,0,1,1.265-3.026A3.407,3.407,0,0,1,54,9.492a3.048,3.048,0,0,1,.9-2.173l2.818-2.8a3.121,3.121,0,0,1,4.377,0L62.585,5a16.72,16.72,0,0,1,3.049-1.256A3.392,3.392,0,0,1,66.544.9,3.136,3.136,0,0,1,68.734,0Zm3.011,40.455H68.734a3.086,3.086,0,0,1-3.1-3.07V36.71a17.221,17.221,0,0,1-3.049-1.262,3.447,3.447,0,0,1-2.675,1.38,3.093,3.093,0,0,1-2.189-.9l-2.818-2.8a3.067,3.067,0,0,1,0-4.345l.486-.476c-.2-.371-.381-.749-.554-1.133a26.69,26.69,0,0,0-26.11,7.935,25,25,0,0,0-6.117,20.259,6.267,6.267,0,0,1-3.64,6.61C16.4,63.159,16.4,63.827,16.4,66.749l.075.068H25.4a1.539,1.539,0,0,1,1.54,1.528v9.693a4.1,4.1,0,0,0,4.1,4.072h3.722a1.539,1.539,0,0,1,1.54,1.528v6.339a2.313,2.313,0,0,0,2.314,2.3H58.4a2.313,2.313,0,0,0,2.314-2.3V82.03c0-11.265,13.94-12.071,13.94-29.655A25.572,25.572,0,0,0,71.746,40.455Zm.972-37.4-4,.013V4.922a1.532,1.532,0,0,1-1.2,1.485,14.584,14.584,0,0,0-4.278,1.74,1.554,1.554,0,0,1-2-.148L59.9,6.686,57.081,9.509,58.4,10.815l-.007.007a1.514,1.514,0,0,1,.218,1.889,14.182,14.182,0,0,0-1.79,4.247A1.539,1.539,0,0,1,55.3,18.239l-1.876.013v3.961l1.876.013v.007a1.526,1.526,0,0,1,1.5,1.181,14.218,14.218,0,0,0,1.753,4.247,1.526,1.526,0,0,1-.15,1.987l-1.322,1.33,2.844,2.8,1.315-1.306h.007a1.532,1.532,0,0,1,1.9-.21,14.515,14.515,0,0,0,4.278,1.777,1.535,1.535,0,0,1,1.291,1.511l.018,1.863,4-.017V35.548h.007a1.533,1.533,0,0,1,1.19-1.491,14.266,14.266,0,0,0,4.278-1.74,1.547,1.547,0,0,1,2,.155l1.339,1.306,2.818-2.817-1.315-1.312a1.511,1.511,0,0,1-.211-1.893,14.224,14.224,0,0,0,1.79-4.247,1.539,1.539,0,0,1,1.522-1.282l1.876-.013-.007-3.968-1.87-.007a1.546,1.546,0,0,1-1.5-1.188A14.188,14.188,0,0,0,82.895,12.8a1.519,1.519,0,0,1,.156-1.987l1.315-1.33-2.837-2.8L80.207,8V7.99A1.539,1.539,0,0,1,78.3,8.2a14.653,14.653,0,0,0-4.271-1.777,1.525,1.525,0,0,1-1.3-1.5ZM7.846,20.29A1.537,1.537,0,0,1,5.681,20.1a1.511,1.511,0,0,1,.194-2.149,3.741,3.741,0,0,1,4.7,0,1.516,1.516,0,0,1,.187,2.149A1.537,1.537,0,0,1,8.6,20.29a.666.666,0,0,0-.752,0m-.693,5.044a1.52,1.52,0,0,1,.785-2.011,1.54,1.54,0,0,1,2.026.786,2.694,2.694,0,0,0,4.9,0,1.533,1.533,0,0,1,2.811,1.225,5.777,5.777,0,0,1-8.4,2.483,5.684,5.684,0,0,1-2.125-2.483M16.23,20.29a1.542,1.542,0,0,1-2.169-.192,1.521,1.521,0,0,1,.194-2.149,3.741,3.741,0,0,1,4.7,0,1.517,1.517,0,0,1,.194,2.149,1.537,1.537,0,0,1-2.164.192.67.67,0,0,0-.754,0m-3.816-10.9A12.324,12.324,0,1,1,0,21.713,12.375,12.375,0,0,1,12.414,9.389m6.6,5.776a9.386,9.386,0,0,0-13.206,0,9.221,9.221,0,0,0,0,13.1,9.386,9.386,0,0,0,13.206,0,9.223,9.223,0,0,0,0-13.1M29.423,17.04a1.541,1.541,0,0,1-2-.843,1.517,1.517,0,0,1,.849-1.987A46.079,46.079,0,0,1,50.7,11.147a1.526,1.526,0,1,1-.343,3.033A42.825,42.825,0,0,0,29.423,17.04ZM84.5,39.118a1.534,1.534,0,0,1,2.811-1.232A44.954,44.954,0,0,1,91.167,54.1a1.535,1.535,0,0,1-3.066.142A42.094,42.094,0,0,0,84.5,39.118Zm6.981,27.847a1.517,1.517,0,0,1-.194-2.149,1.549,1.549,0,0,1,2.164-.192.67.67,0,0,0,.754,0,1.552,1.552,0,0,1,2.169.192,1.521,1.521,0,0,1-.194,2.149A3.724,3.724,0,0,1,91.484,66.965ZM87.1,75.154a1.534,1.534,0,0,1-2.1.513,1.514,1.514,0,0,1-.517-2.092c2.076-3.4,8.255-3.4,10.331,0a1.512,1.512,0,0,1-.517,2.092,1.536,1.536,0,0,1-2.1-.513c-.869-1.424-4.223-1.424-5.1,0m-4-8.188a1.523,1.523,0,0,1-.194-2.149,1.555,1.555,0,0,1,2.169-.192.67.67,0,0,0,.754,0,1.547,1.547,0,0,1,2.164.192,1.511,1.511,0,0,1-.194,2.149A3.724,3.724,0,0,1,83.1,66.965Zm6.546-10.424A12.324,12.324,0,1,1,77.225,68.865,12.371,12.371,0,0,1,89.645,56.541m6.6,5.769a9.39,9.39,0,0,0-13.2,0,9.223,9.223,0,0,0,0,13.11,9.39,9.39,0,0,0,13.2,0,9.223,9.223,0,0,0,0-13.11" transform="translate(0 0)"/>
      </g>
    </g>
  </g>
</svg>
