<svg xmlns="http://www.w3.org/2000/svg" xmlns:xlink="http://www.w3.org/1999/xlink" width="104" height="104" viewBox="0 0 104 104">
  <defs>
    <clipPath id="clip-path">
      <rect id="Rectangle_411391" data-name="Rectangle 411391" width="102.888" height="104" fill="none"/>
    </clipPath>
  </defs>
  <g id="Group_1207786" data-name="Group 1207786" transform="translate(6034 -4411)">
    <rect id="Rectangle_411383" data-name="Rectangle 411383" width="104" height="104" transform="translate(-6034 4411)" fill="none"/>
    <g id="Group_1207780" data-name="Group 1207780" transform="translate(-6032.888 4411)">
      <g id="Group_1207779" data-name="Group 1207779" clip-path="url(#clip-path)">
        <path id="Path_1277499" data-name="Path 1277499" d="M283.448,291.206a15.088,15.088,0,0,1-6.125-1.271c-4.328-1.9-7.847-5.956-10.174-11.734-1.635-4.059-2.586-11.194-2.607-11.345a9.121,9.121,0,0,1,9.936,6.138c1.331,3.99,3.376,8.227,6.154,9.437,3.194,1.392,7.548.209,12.94-3.516l4.661,6.748C292.89,289.354,287.94,291.206,283.448,291.206Z" transform="translate(-210.306 -212.073)" fill="#ffb09e"/>
        <path id="Path_1277500" data-name="Path 1277500" d="M39.762,328.254C32.3,324.213,27,320.232,23.545,316.083,20.14,311.989,18.611,307.754,19,303.5c.571-6.221,5.124-11.865,13.533-16.777,5.742-3.354,9.006,4.217,4.019,7.15-3.331,1.96-8.981,5.914-9.387,10.383-.439,4.829,5.421,10.793,16.5,16.793Z" transform="translate(-15.059 -227.267)" fill="#ffb09e"/>
        <path id="Path_1277501" data-name="Path 1277501" d="M120.978,271q-.076-.182-.157-.36a10.774,10.774,0,0,0-9.842-6.238h-22.5A25.651,25.651,0,0,0,77.3,266.965l-6.933,3.358,6.115,10.086,6.115-2.668v35.427h32.076V283.021l2.234,3.806,6.615-9.722Z" transform="translate(-55.942 -210.193)" fill="#fd8087"/>
        <path id="Path_1277502" data-name="Path 1277502" d="M130.014,321.408v35.427h4.764V319.329Z" transform="translate(-103.359 -253.86)" fill="#fd8087"/>
        <path id="Path_1277503" data-name="Path 1277503" d="M186.549,242.451a5.868,5.868,0,0,1-5.868-5.868V223.8h11.735v12.789A5.868,5.868,0,0,1,186.549,242.451Z" transform="translate(-143.638 -177.913)" fill="#ffb09e"/>
        <path id="Path_1277504" data-name="Path 1277504" d="M154.7,5H132.191a17.963,17.963,0,0,0-17.963,17.963V33.475h38.549V12.562A15.74,15.74,0,0,0,154.7,5Z" transform="translate(-90.809 -3.975)" fill="#494a47"/>
        <path id="Path_1277505" data-name="Path 1277505" d="M136.969,5H132.19a17.963,17.963,0,0,0-17.963,17.963V33.475h4.779V22.963A17.963,17.963,0,0,1,136.969,5" transform="translate(-90.808 -3.975)" fill="#333331"/>
        <path id="Path_1277506" data-name="Path 1277506" d="M287.794,132.863h-1.328V125.2h1.328a3.831,3.831,0,1,1,0,7.662" transform="translate(-227.735 -99.532)" fill="#ffb09e"/>
        <path id="Path_1277507" data-name="Path 1277507" d="M108.68,132.863h1.328V125.2H108.68a3.831,3.831,0,1,0,0,7.662" transform="translate(-83.353 -99.532)" fill="#ffb09e"/>
        <path id="Path_1277508" data-name="Path 1277508" d="M143.394,59.678c-4.379-.985-5.385.876-5.987,3.668-.762,3.533-6.736,3.224-6.813,3.236a16.044,16.044,0,0,0-.579,4.268V82.693a16.038,16.038,0,1,0,32.076,0V70.85a15.992,15.992,0,0,0-1.046-5.7c-6.521,1.747-13.271-4.488-17.65-5.473" transform="translate(-103.359 -47.231)" fill="#ffcebf"/>
        <path id="Path_1277509" data-name="Path 1277509" d="M134.794,82.693V70.85a16.043,16.043,0,0,1,.579-4.268c.078-.012,6.051.3,6.813-3.236.336-1.56.8-2.829,1.907-3.474-.239-.077-.472-.143-.7-.194-4.379-.985-5.385.876-5.987,3.668-.762,3.533-6.736,3.224-6.813,3.236a16.044,16.044,0,0,0-.579,4.268V82.693a16.044,16.044,0,0,0,18.427,15.86A16.041,16.041,0,0,1,134.794,82.693Z" transform="translate(-103.359 -47.231)" fill="#ffb09e"/>
        <path id="Path_1277510" data-name="Path 1277510" d="M423.345,258.012H414.9V248.6a4.223,4.223,0,0,1,8.447,0Z" transform="translate(-329.836 -194.278)" fill="#ffcebf"/>
        <path id="Path_1277511" data-name="Path 1277511" d="M391.994,305.348h-8.955a4.131,4.131,0,0,1-4.131-4.131V287.558a4.131,4.131,0,0,1,4.131-4.131h8.955a2.739,2.739,0,0,1,2.739,2.739v16.443a2.739,2.739,0,0,1-2.739,2.739" transform="translate(-301.223 -225.319)" fill="#ffcebf"/>
        <path id="Path_1277512" data-name="Path 1277512" d="M383.686,301.217V287.558a4.131,4.131,0,0,1,4.131-4.131h-4.779a4.131,4.131,0,0,0-4.131,4.131v13.658a4.131,4.131,0,0,0,4.131,4.131h4.779a4.131,4.131,0,0,1-4.131-4.131" transform="translate(-301.223 -225.319)" fill="#ffb09e"/>
        <path id="Path_1277513" data-name="Path 1277513" d="M123.255,440.517h-2.176a3.647,3.647,0,0,1-3.647-3.647v-8.631a3.647,3.647,0,0,1,3.647-3.647h2.176a5.165,5.165,0,0,1,5.165,5.165v5.6a5.165,5.165,0,0,1-5.165,5.165" transform="translate(-93.356 -337.542)" fill="#ffcebf"/>
        <path id="Path_1277514" data-name="Path 1277514" d="M182.72,189.121h-.466a6.409,6.409,0,0,1-6.409-6.409h13.283a6.409,6.409,0,0,1-6.409,6.409" transform="translate(-139.793 -145.252)" fill="#e15f4f"/>
        <path id="Path_1277515" data-name="Path 1277515" d="M362.034,71.56a15.4,15.4,0,1,1-15.4,15.4,15.4,15.4,0,0,1,15.4-15.4" transform="translate(-275.569 -56.889)" fill="#75c5b4"/>
        <path id="Path_1277516" data-name="Path 1277516" d="M401.5,116.572h-4.21v-4.21h-5.646v4.21h-4.21v5.646h4.21v4.21h5.646v-4.21h4.21Z" transform="translate(-308.005 -89.325)" fill="#f8d250"/>
        <path id="Path_1277517" data-name="Path 1277517" d="M273,404.931a9.962,9.962,0,1,1-9.962,9.962A9.962,9.962,0,0,1,273,404.931" transform="translate(-209.112 -321.912)" fill="#75c5b4"/>
        <path id="Path_1277518" data-name="Path 1277518" d="M298.539,434.052h-2.723v-2.724h-3.653v2.724h-2.723v3.653h2.723v2.724h3.653v-2.724h2.723Z" transform="translate(-230.098 -342.898)" fill="#f8d250"/>
        <path id="Path_1277519" data-name="Path 1277519" d="M17.051,192.188A12.051,12.051,0,1,1,5,204.239a12.051,12.051,0,0,1,12.051-12.051" transform="translate(-3.975 -152.786)" fill="#75c5b4"/>
        <path id="Path_1277520" data-name="Path 1277520" d="M47.941,227.417H44.646v-3.295H40.228v3.295H36.933v4.419h3.295v3.295h4.419v-3.295h3.295Z" transform="translate(-29.361 -178.172)" fill="#f8d250"/>
        <path id="Path_1277521" data-name="Path 1277521" d="M89.286,49.078a5.255,5.255,0,0,0-5.249,5.249v2.757H81.815a5.162,5.162,0,0,0-5.156,5.156v7a8.042,8.042,0,0,1-5.924.181,6.137,6.137,0,0,1-2.277-1.979,1.023,1.023,0,0,0,.069-.921l-2.544-6.108c-.054-.131-.111-.26-.169-.389a11.8,11.8,0,0,0-10.776-6.839H49.8V50.967a17.083,17.083,0,0,0,9.953-15.5V34.356h.3a4.854,4.854,0,0,0,2.933-8.723V8.844a16.865,16.865,0,0,0,1.923-7.818A1.025,1.025,0,0,0,63.891,0H41.382A19.01,19.01,0,0,0,22.394,18.988v6.645a4.854,4.854,0,0,0,2.933,8.723h.3v1.107a17.088,17.088,0,0,0,10.388,15.7v2.018H32.54a26.712,26.712,0,0,0-6.645.851A13.077,13.077,0,1,0,9.479,64.022c-3.958,3.719-6.158,7.771-6.556,12.112-.417,4.54,1.19,9.027,4.776,13.337,3.443,4.139,8.657,8.1,15.924,12.093a4.7,4.7,0,0,0,2.234,2.045,1.019,1.019,0,0,0,.8.39H58.731a1.023,1.023,0,0,0,1.007-.849A10.987,10.987,0,1,0,59.756,82.8V76.6l.325.553a1.025,1.025,0,0,0,1.732.058L62.5,76.2a16.566,16.566,0,0,0,4.1,2.6,16.172,16.172,0,0,0,6.536,1.357,19.577,19.577,0,0,0,4.969-.679,5.14,5.14,0,0,0,3.7,1.575h8.955a3.768,3.768,0,0,0,3.764-3.764V54.326A5.255,5.255,0,0,0,89.286,49.078Zm-3.2,5.249a3.2,3.2,0,0,1,6.4,0V57.5a3.734,3.734,0,0,0-1.714-.417H86.088V54.326ZM60.06,32.305h-.3V26.694h.3a2.806,2.806,0,1,1,0,5.612m-34.732,0a2.806,2.806,0,0,1,0-5.612h.3v5.612Zm1.994-13.979a1.283,1.283,0,0,0-.245.012,1.025,1.025,0,0,0-.83.741,17.1,17.1,0,0,0-.615,4.54v1.024h-.3a4.862,4.862,0,0,0-.883.082V18.988A16.957,16.957,0,0,1,41.382,2.05H62.83a14.82,14.82,0,0,1-6.338,11.136,1.025,1.025,0,1,0,1.168,1.685,16.808,16.808,0,0,0,3.283-2.992V24.726a4.86,4.86,0,0,0-.883-.082h-.3V23.619a16.991,16.991,0,0,0-1.113-6.064,1.025,1.025,0,0,0-1.223-.626c-3.936,1.055-8.1-1.159-11.775-3.113a24.017,24.017,0,0,0-5.385-2.37c-2.163-.487-3.785-.359-4.958.39-1.407.9-1.916,2.483-2.257,4.061C32.531,18.285,28.185,18.341,27.321,18.326Zm.36,17.136V23.619a15.04,15.04,0,0,1,.357-3.251c2.1-.076,6.284-.66,7.012-4.037.337-1.565.73-2.366,1.356-2.766.679-.434,1.824-.473,3.4-.118a22.926,22.926,0,0,1,4.873,2.18c3.558,1.892,7.929,4.216,12.332,3.485a14.952,14.952,0,0,1,.691,4.507V35.463a15.013,15.013,0,1,1-30.025,0ZM42.693,52.526a17.008,17.008,0,0,0,5.06-.766v6.912a4.843,4.843,0,1,1-9.685,0V51.883A17.01,17.01,0,0,0,42.693,52.526ZM2.05,51.454A11.026,11.026,0,1,1,13.076,62.48,11.038,11.038,0,0,1,2.05,51.454M9.274,88.161C6.049,84.284,4.6,80.3,4.964,76.322c.387-4.219,2.762-8.183,7.074-11.837.343.027.688.045,1.037.045a13.094,13.094,0,0,0,2.654-.271l2.123,3.5c-3.121,2.272-6.435,5.5-6.765,9.131-.408,4.5,3.709,9.568,11.962,14.818v7.185C16.824,95.326,12.3,91.8,9.274,88.161m16.356-1.64a4.693,4.693,0,0,0-2.39,2.86c-6.8-4.509-10.423-8.859-10.11-12.305.261-2.868,3.172-5.626,5.791-7.554l.743,1.226a1.025,1.025,0,0,0,1.287.408l4.679-2.042V86.521ZM25.1,90.7a2.625,2.625,0,0,1,2.622-2.622H29.9a4.144,4.144,0,0,1,4.14,4.14v5.6a4.144,4.144,0,0,1-4.14,4.14H27.723A2.625,2.625,0,0,1,25.1,99.328Zm47.726,2.284a8.937,8.937,0,1,1-8.937-8.937,8.947,8.947,0,0,1,8.937,8.937m-11.8-18.262L59.615,72.31a1.025,1.025,0,0,0-1.909.519V83.906a10.974,10.974,0,0,0-.15,18.044H34.5a6.165,6.165,0,0,0,1.593-4.14v-5.6a6.2,6.2,0,0,0-6.19-6.19H27.681V67.548a1.025,1.025,0,0,0-1.435-.939l-5.293,2.31-3.19-5.261a13.144,13.144,0,0,0,7.43-7.3,24.742,24.742,0,0,1,7.347-1.127h3.478v3.439a6.893,6.893,0,1,0,13.786,0V55.232h5.234a9.749,9.749,0,0,1,8.909,5.635q.074.165.144.332l2.331,5.6Zm12.113,3.389a14.136,14.136,0,0,1-5.713-1.185A14.619,14.619,0,0,1,63.661,74.5l3.594-5.282A7.587,7.587,0,0,0,69.916,71.3a9.616,9.616,0,0,0,6.742.081V75.9a5.134,5.134,0,0,0,.308,1.756A17.179,17.179,0,0,1,73.142,78.108Zm19.342-.818A1.716,1.716,0,0,1,90.77,79H81.815A3.11,3.11,0,0,1,78.709,75.9V62.24a3.11,3.11,0,0,1,3.106-3.106H90.77a1.716,1.716,0,0,1,1.714,1.714Z"/>
        <path id="Path_1277522" data-name="Path 1277522" d="M186.179,178.738a1.025,1.025,0,0,0-1.025-1.025H171.87a1.025,1.025,0,0,0-1.025,1.025,7.442,7.442,0,0,0,7.434,7.434h.466a7.442,7.442,0,0,0,7.434-7.434m-13.186,1.025H184.03a5.393,5.393,0,0,1-5.286,4.359h-.466a5.393,5.393,0,0,1-5.286-4.359" transform="translate(-135.818 -141.278)"/>
        <path id="Path_1277523" data-name="Path 1277523" d="M160.943,128.628a1.059,1.059,0,1,1-1.059,1.059,1.059,1.059,0,0,1,1.059-1.059" transform="translate(-127.105 -102.257)"/>
        <path id="Path_1277524" data-name="Path 1277524" d="M247.328,128.628a1.059,1.059,0,1,0,1.059,1.059,1.059,1.059,0,0,0-1.059-1.059" transform="translate(-195.779 -102.257)"/>
        <path id="Path_1277525" data-name="Path 1277525" d="M150.529,105.375a1.025,1.025,0,1,0,1.312-1.575,5.956,5.956,0,0,0-8.259.272,1.025,1.025,0,0,0,1.461,1.439,3.948,3.948,0,0,1,5.486-.136" transform="translate(-113.911 -81.29)"/>
        <path id="Path_1277526" data-name="Path 1277526" d="M230.7,105.812a1.026,1.026,0,0,0,.725-.3,3.93,3.93,0,0,1,5.49-.14,1.025,1.025,0,1,0,1.312-1.575,5.955,5.955,0,0,0-8.259.272,1.024,1.024,0,0,0,.731,1.742Z" transform="translate(-182.588 -81.289)"/>
        <path id="Path_1277527" data-name="Path 1277527" d="M358.058,66.56a16.423,16.423,0,1,0,16.423,16.423A16.442,16.442,0,0,0,358.058,66.56m0,30.8a14.373,14.373,0,1,1,14.373-14.373,14.389,14.389,0,0,1-14.373,14.373" transform="translate(-271.593 -52.914)"/>
        <path id="Path_1277528" data-name="Path 1277528" d="M397.528,111.572h-3.185v-3.185a1.025,1.025,0,0,0-1.025-1.025h-5.646a1.025,1.025,0,0,0-1.025,1.025v3.185h-3.185a1.025,1.025,0,0,0-1.025,1.025v5.646a1.025,1.025,0,0,0,1.025,1.025h3.185v3.185a1.025,1.025,0,0,0,1.025,1.025h5.646a1.025,1.025,0,0,0,1.025-1.025v-3.185h3.185a1.025,1.025,0,0,0,1.025-1.025V112.6a1.025,1.025,0,0,0-1.025-1.025m-1.025,5.646h-3.185a1.025,1.025,0,0,0-1.025,1.025v3.185h-3.6v-3.185a1.025,1.025,0,0,0-1.025-1.025h-3.185v-3.6h3.185A1.025,1.025,0,0,0,388.7,112.6v-3.185h3.6V112.6a1.025,1.025,0,0,0,1.025,1.025H396.5Z" transform="translate(-304.031 -85.351)"/>
        <path id="Path_1277529" data-name="Path 1277529" d="M285.464,434.756h1.7v1.7a1.025,1.025,0,0,0,1.025,1.025h3.653a1.025,1.025,0,0,0,1.025-1.025v-1.7h1.7a1.025,1.025,0,0,0,1.025-1.025v-3.652a1.025,1.025,0,0,0-1.025-1.025h-1.7v-1.7a1.025,1.025,0,0,0-1.025-1.025h-3.653a1.025,1.025,0,0,0-1.025,1.025v1.7h-1.7a1.025,1.025,0,0,0-1.025,1.025v3.652a1.025,1.025,0,0,0,1.025,1.025m1.025-3.653h1.7a1.025,1.025,0,0,0,1.025-1.025v-1.7h1.6v1.7a1.025,1.025,0,0,0,1.025,1.025h1.7v1.6h-1.7a1.025,1.025,0,0,0-1.025,1.025v1.7h-1.6v-1.7a1.025,1.025,0,0,0-1.025-1.025h-1.7Z" transform="translate(-226.123 -338.924)"/>
        <path id="Path_1277530" data-name="Path 1277530" d="M41.7,231.155v-2.27h2.27a1.025,1.025,0,0,0,1.025-1.025v-4.419a1.025,1.025,0,0,0-1.025-1.025H41.7v-2.27a1.025,1.025,0,0,0-1.025-1.025H36.254a1.025,1.025,0,0,0-1.025,1.025v2.27h-2.27a1.025,1.025,0,0,0-1.025,1.025v4.419a1.025,1.025,0,0,0,1.025,1.025h2.27v2.27a1.025,1.025,0,0,0,1.025,1.025h4.419a1.025,1.025,0,0,0,1.025-1.025m-2.05-3.295v2.27H37.279v-2.27a1.025,1.025,0,0,0-1.025-1.025h-2.27v-2.368h2.27a1.025,1.025,0,0,0,1.025-1.025v-2.27h2.368v2.27a1.025,1.025,0,0,0,1.025,1.025h2.27v2.368h-2.27a1.025,1.025,0,0,0-1.025,1.025" transform="translate(-25.387 -174.198)"/>
      </g>
    </g>
  </g>
</svg>
