<svg xmlns="http://www.w3.org/2000/svg" xmlns:xlink="http://www.w3.org/1999/xlink" width="104" height="104" viewBox="0 0 104 104">
  <defs>
    <clipPath id="clip-path">
      <rect id="Rectangle_411388" data-name="Rectangle 411388" width="90.428" height="97.249" fill="none"/>
    </clipPath>
  </defs>
  <g id="Group_1207784" data-name="Group 1207784" transform="translate(6344 -4411)">
    <rect id="Rectangle_411382" data-name="Rectangle 411382" width="104" height="104" transform="translate(-6344 4411)" fill="none"/>
    <g id="Group_1207774" data-name="Group 1207774" transform="translate(-6336.013 4413.084)">
      <g id="Group_1207773" data-name="Group 1207773" clip-path="url(#clip-path)">
        <path id="Path_1277472" data-name="Path 1277472" d="M40.352,90.172,9,97.215a1.381,1.381,0,0,1-1.618-1.747L13.123,77.08A43.08,43.08,0,0,1,3.151,62.185,45.793,45.793,0,0,1,14.58,11.964,45.213,45.213,0,1,1,42.947,90.373a23.466,23.466,0,0,1-2.6-.2Z" transform="translate(0 0)"/>
        <path id="Path_1277473" data-name="Path 1277473" d="M25.486,86.659a1.377,1.377,0,0,1,.408,1.445L20.609,105.03,49.84,98.462a15.687,15.687,0,0,1,3.1.184A42.47,42.47,0,1,0,12.678,54.5a42.751,42.751,0,0,0,2.913,17.7,40.392,40.392,0,0,0,9.895,14.465ZM55.041,33.413c7.925-6.7,15.888-7.83,22.049-5.681A16.881,16.881,0,0,1,87.716,38.771c1.764,5.821.491,12.88-5.385,19.147a5.38,5.38,0,0,1,.82,5.006,5.647,5.647,0,0,1-3.1,3.387,5.366,5.366,0,0,1-2.578.413,5.816,5.816,0,0,1-.179,2.511,5.4,5.4,0,0,1-3.1,3.494,5.134,5.134,0,0,1-2.35.363,5.462,5.462,0,0,1-3.3,5.793,5.6,5.6,0,0,1-4.4-.056,6,6,0,0,1-1.183,1.925l-2.757,3.064a5.261,5.261,0,0,1-5.943,1.557,6.159,6.159,0,0,1-3.349-3.014,5.405,5.405,0,0,1-.575-2.327,5.274,5.274,0,0,1-2.355-.312A6.165,6.165,0,0,1,44.662,76.7a5.584,5.584,0,0,1-.6-2.361,5.462,5.462,0,0,1-2.45-.318A6.06,6.06,0,0,1,38.26,71a5.527,5.527,0,0,1-.575-2.355,5.368,5.368,0,0,1-2.394-.318,6.081,6.081,0,0,1-3.354-3.019,5.23,5.23,0,0,1-.352-3.862c-8.494-7.969-10.86-15.961-9.443-22.245A15.537,15.537,0,0,1,32.367,28.017c6.429-2.283,14.895-1.127,22.674,5.4Z" transform="translate(-9.89 -10.773)" fill="#75c5b4"/>
        <path id="Path_1277474" data-name="Path 1277474" d="M203.834,299.032l2.757-3.064a2.619,2.619,0,0,0,.5-3.019,3.422,3.422,0,0,0-1.825-1.646,2.618,2.618,0,0,0-2.952.815l-2.757,3.064a2.619,2.619,0,0,0-.5,3.019,3.421,3.421,0,0,0,1.825,1.646,2.618,2.618,0,0,0,2.952-.815Z" transform="translate(-155.558 -227.829)" fill="#e6b8a8"/>
        <path id="Path_1277475" data-name="Path 1277475" d="M177.654,269.838a2.6,2.6,0,0,0,.508-3.008,3.392,3.392,0,0,0-1.825-1.641,2.619,2.619,0,0,0-2.958.8l-2.757,3.064a2.632,2.632,0,0,0-.441,3.041A3.4,3.4,0,0,0,172,273.755a2.584,2.584,0,0,0,2.9-.854l2.757-3.064Z" transform="translate(-132.943 -207.39)" fill="#e6b8a8"/>
        <path id="Path_1277476" data-name="Path 1277476" d="M148.391,243.585a2.652,2.652,0,0,0,.519-3.047,3.393,3.393,0,0,0-1.819-1.635,2.651,2.651,0,0,0-2.98.837l-2.757,3.064a2.653,2.653,0,0,0-.519,3.047,3.392,3.392,0,0,0,1.819,1.635,2.651,2.651,0,0,0,2.98-.837Z" transform="translate(-109.998 -186.824)" fill="#e6b8a8"/>
        <path id="Path_1277477" data-name="Path 1277477" d="M93.974,113.629a5.055,5.055,0,0,1-2.9-.257,3.061,3.061,0,0,1-1.814-2.221c-.34-1.289.179-2.818.787-4.61.29-.843.6-1.758.82-2.662.117-.48.207-.876.3-1.261a19.8,19.8,0,0,1,1.473-4.643A33.165,33.165,0,0,1,95.922,92.8C89,87.014,81.574,85.954,75.993,87.935a12.8,12.8,0,0,0-8.46,9.2c-1.194,5.307.887,12.172,8.22,19.231l2.6-2.885a5.3,5.3,0,0,1,5.96-1.579,6.07,6.07,0,0,1,3.348,3.019,5.346,5.346,0,0,1,.575,2.35,5.472,5.472,0,0,1,2.4.318A6.091,6.091,0,0,1,93.98,120.6a5.441,5.441,0,0,1,.575,2.372,5.406,5.406,0,0,1,2.383.335,6.128,6.128,0,0,1,3.349,3.008,5.4,5.4,0,0,1,.575,2.338,5.524,5.524,0,0,1,2.394.329A6.159,6.159,0,0,1,106.6,132a6.036,6.036,0,0,1,.4,1.072,3.216,3.216,0,0,0,3.2.591,2.7,2.7,0,0,0,1.535-1.7,3.412,3.412,0,0,0-1.311-3.51L93.974,113.629Z" transform="translate(-52.601 -68.097)" fill="#ffdaaa"/>
        <path id="Path_1277478" data-name="Path 1277478" d="M205.1,179.519l-2.076,4.074a4.137,4.137,0,0,1-.8,1.06l15.7,14.136c1.39,1.256,2.673,1.479,3.605,1.1a2.645,2.645,0,0,0,1.5-1.719,3.54,3.54,0,0,0-1.25-3.65l-16.675-15Z" transform="translate(-158.251 -140.483)" fill="#ffdaaa"/>
        <path id="Path_1277479" data-name="Path 1277479" d="M225.938,149.056l-3.951,4.2,17.094,15.38c1.4,1.261,2.734,1.44,3.722,1.016a2.845,2.845,0,0,0,1.568-1.719c.441-1.317-.128-2.193-1-3.114l-17.434-15.76Z" transform="translate(-173.716 -116.644)" fill="#ffdaaa"/>
        <path id="Path_1277480" data-name="Path 1277480" d="M211.89,112.606c5.09-5.458,6.217-11.5,4.721-16.424a14.139,14.139,0,0,0-8.9-9.242c-5.491-1.914-12.746-.725-20.063,5.793-.179.285-.446.642-.77,1.083a29.016,29.016,0,0,0-2.963,4.654,17.71,17.71,0,0,0-1.261,4.04c-.1.452-.207.915-.307,1.317-.251,1.032-.58,1.992-.882,2.891a8.282,8.282,0,0,0-.731,3.014c.2.765,1.189.62,1.8.413a2.041,2.041,0,0,0,1.194-.9c.53-1.032,2.941-6.122,3.46-6.613l5.369-5.7a1.375,1.375,0,0,1,1.942-.056C200.154,102.187,206.125,107.388,211.89,112.606Z" transform="translate(-141.414 -67.387)" fill="#e6b8a8"/>
        <path id="Path_1277481" data-name="Path 1277481" d="M111.822,219.686a3.38,3.38,0,0,0,1.819,1.641,2.667,2.667,0,0,0,2.98-.837l2.757-3.064a2.655,2.655,0,0,0,.524-3.047,3.391,3.391,0,0,0-1.825-1.641,2.659,2.659,0,0,0-2.974.837l-2.757,3.064a2.756,2.756,0,0,0-.524,3.047Z" transform="translate(-87.308 -166.352)" fill="#e6b8a8"/>
      </g>
    </g>
  </g>
</svg>
