<svg id="Group_1207793" data-name="Group 1207793" xmlns="http://www.w3.org/2000/svg" xmlns:xlink="http://www.w3.org/1999/xlink" width="438.222" height="270.623" viewBox="0 0 438.222 270.623">
  <defs>
    <clipPath id="clip-path">
      <rect id="Rectangle_411392" data-name="Rectangle 411392" width="438.222" height="270.623" fill="none"/>
    </clipPath>
    <clipPath id="clip-path-2">
      <path id="Path_1277600" data-name="Path 1277600" d="M571.613,148.107l-.435,2.954c-.345,4.491.26,9.179-.314,13.605-.552,3.413-.166,7.489-.175,10.975-.014,5.617-.284,11.375.021,16.977a13.811,13.811,0,0,0,2.68.157c.634-1.831.132-4.882.1-6.9l-.07-16.339c.006-2.641-.3-5.725.21-8.31a6.787,6.787,0,0,1,.888-.985c.665-.341,3.284-.227,4.181-.287l-4.193-.065-.374-6.327-.232-2.31-.114-1.174-.292-2.266a7.83,7.83,0,0,1-1.878.295" transform="translate(-570.567 -147.812)" fill="#7fe5cf"/>
    </clipPath>
  </defs>
  <g id="Group_1207788" data-name="Group 1207788">
    <g id="Group_1207787" data-name="Group 1207787" clip-path="url(#clip-path)">
      <path id="Path_1277531" data-name="Path 1277531" d="M1109.786,458.242c1.007-.225,3.008-.459,3.9.056.4.233.363.384.489.825l-.822.7a2.536,2.536,0,0,1-1.71.3c-1.089-.044-1.3.089-2.037-.707Z" transform="translate(-762.36 -314.664)" fill="#b50c9f"/>
      <path id="Path_1277532" data-name="Path 1277532" d="M1256.1,689.72a3.667,3.667,0,0,1,3.034,1.4c1.238,1.392.974,3.478.839,5.227a2.463,2.463,0,0,1-1.106,1.734c-1.172.967-2.371.88-3.807.868a38.964,38.964,0,0,1,.063-9.029Z" transform="translate(-862.138 -473.876)" fill="#cbf4eb"/>
      <path id="Path_1277533" data-name="Path 1277533" d="M80.635,455.728l7.4-.031c1.881,0,2.841-.2,4.223,1.183.09,1.23-.1,1.354-.8,2.305l-9.918-.03c-.954-.023-1.205-.383-1.822-1.027a2.627,2.627,0,0,1,.918-2.4" transform="translate(-54.769 -313.082)" fill="#caa6f0"/>
      <path id="Path_1277534" data-name="Path 1277534" d="M846.4.108a5.137,5.137,0,0,1,3.635.49,4.131,4.131,0,0,1,1.687,2.518,3.869,3.869,0,0,1-.591,3.118,3.819,3.819,0,0,1-2.806,1.7,2.8,2.8,0,0,1-.792.062,3.651,3.651,0,0,1-2.519-1.21A4.512,4.512,0,0,1,843.9,3.467c.161-1.594,1.35-2.448,2.506-3.359" transform="translate(-579.794 0)" fill="#f017a9"/>
      <path id="Path_1277535" data-name="Path 1277535" d="M10.146,500.541a7.153,7.153,0,0,1,2.46.142,3.975,3.975,0,0,1,2.444,2.024A4.591,4.591,0,0,1,15.337,506c-.512,1.626-1.739,2.317-3.183,3.034a7.611,7.611,0,0,1-2.045-.257,3.716,3.716,0,0,1-2.438-1.789,4.329,4.329,0,0,1-.426-3.546,5,5,0,0,1,2.9-2.9" transform="translate(-4.838 -343.873)" fill="#f017a9"/>
      <path id="Path_1277536" data-name="Path 1277536" d="M1194.24,506.289c.509.01,1.281-.091,1.68.2.476,9.286.129,18.761-.04,28.062-.036,1.848.462,4.953-.221,6.594.3,4.957.106,10.016.092,14.983-.007,1.851.449,5.456-.429,7.055h-.74a4.332,4.332,0,0,0,.241-.832c.221-1.5.294-19.41.023-20.327a4.811,4.811,0,0,0-.657-.825l.683-.789-.059-25.2.023-5.778a11.447,11.447,0,0,0,.017-2.325,4.669,4.669,0,0,0-.614-.829" transform="translate(-820.476 -347.843)" fill="#f600ff"/>
      <path id="Path_1277537" data-name="Path 1277537" d="M1183.1,44.4a2.061,2.061,0,0,1,1.585.5,4,4,0,0,1,.439,2.524,1.951,1.951,0,0,0,.215.887c.344.322,2.529.082,3.077.382a5.044,5.044,0,0,1,.736.7,2.134,2.134,0,0,1-.443,1.931,6.463,6.463,0,0,1-3.225.547,6.707,6.707,0,0,0-.287,2.8c-.611,1-.8,1-1.869,1.346-2.324-.563-.806-2.894-1.8-4.28l-2.651-.139c-.809-.545-.8-.679-1.106-1.621,1-2.233,2.252-.975,3.991-1.76a11.366,11.366,0,0,1,.112-2.535c.182-.739.624-.893,1.222-1.279" transform="translate(-809.197 -30.503)" fill="#b50c9f"/>
      <path id="Path_1277538" data-name="Path 1277538" d="M1141.865,458.018c3.014-.652,6.983-.206,10.1-.207l21.466,0c.693.414.7.472.994,1.232l-.792.689-.35.234-23.262-.005-5.378-.037a9.231,9.231,0,0,1-1.872-.032,4.59,4.59,0,0,1-.8-.619Z" transform="translate(-784.525 -314.44)" fill="#b50c9f"/>
      <path id="Path_1277539" data-name="Path 1277539" d="M135.335,455.213l19.5-.04c1.646,0,4.537-.386,5.978.085.527.172.9.8,1.174,1.241.1,1.146-.23,1.269-.924,2.148l-25.176.055c-.889-.125-1.038-.518-1.531-1.2-.076-1.256.212-1.34.979-2.289" transform="translate(-92.302 -312.627)" fill="#caa6f0"/>
      <path id="Path_1277540" data-name="Path 1277540" d="M79.7,611.934a37.864,37.864,0,0,0,3.3,5.06l-23.542.228-2.6-3.04a54.975,54.975,0,0,1,7.932-1.857c4.907-.647,9.976-.432,14.913-.39" transform="translate(-39.063 -420.386)" fill="#caa6f0"/>
      <path id="Path_1277541" data-name="Path 1277541" d="M525.814,4.461l2.479-.176a4,4,0,0,0,.43.826c.5.64.879.606,1.624.674.449-.493.777-.969,1.467-1.081l1.261.913c1.164,1.188-.137,1.085-.049,2.221.141,1.828,1.453,1.128,2.431,1.967a5.026,5.026,0,0,1-.415,2.459,3.875,3.875,0,0,0-1.366,0c-.461.152-.741.932-.969,1.351l.756,1.467a4.4,4.4,0,0,1-1.94,1.55l-.387-.342-.971-.682a4.574,4.574,0,0,0-1.078.251c-.684.277-.653.447-.938,1.109l-.71.049a2.868,2.868,0,0,1-2.066-.761l.381-1.32c-1.181-1.605-1.538-.34-2.933-.83a5.524,5.524,0,0,1-.951-2.251l.394-.313c.782-.671.784-.891.846-1.887l-1.014-.968.5-1.379c.606-1.052,1.361-.274,2.474-.545.873-.822.692-1.14.747-2.305" transform="translate(-358.552 -2.944)" fill="#caa6f0"/>
      <path id="Path_1277542" data-name="Path 1277542" d="M535,13.858l1.023-.016a2.923,2.923,0,0,1,2.317,1.062c.91,1.052.78,2.093.653,3.374a6.573,6.573,0,0,1-2.262,2.382,4.709,4.709,0,0,1-3.26-1.12c-.954-.969-.839-1.921-.824-3.17A6.244,6.244,0,0,1,535,13.858" transform="translate(-365.948 -9.51)" fill="#fff"/>
      <path id="Path_1277543" data-name="Path 1277543" d="M1085.48,595.186l.753.065.2.243c2.7,3.2,18.732,15.487,19.155,17.564-2.295.926-5.6,1.262-8.075,1.665-1.674.271-2.922.327-4.308-.763a3.691,3.691,0,0,1-1.265-2.306c-.218-1.748,1.007-3.587,2.034-4.865-2.367-1.823-8.1-3.418-8.947-6.328-.446-1.537.274-3.039.948-4.388Z" transform="translate(-745.38 -408.926)" fill="#b50c9f"/>
      <path id="Path_1277544" data-name="Path 1277544" d="M1262.679,597.067a4.136,4.136,0,0,1,2.377,2.094,3.468,3.468,0,0,1,.066,2.739c-1.02,2.331-6.847,4.734-9.036,5.9a7.29,7.29,0,0,1,1.707,3.5,4.032,4.032,0,0,1-.782,3.4,4.249,4.249,0,0,1-1.446,1.105c-3.787.361-7.815-1.829-11.654-2.06Z" transform="translate(-854.636 -410.218)" fill="#b50c9f"/>
      <path id="Path_1277545" data-name="Path 1277545" d="M836.622,197.4a4.064,4.064,0,0,1,2.146,2.489,6.582,6.582,0,0,1,.218,2.588c.591,1.585.363,3.655.366,5.346l-.007,9.847c0,1.973.277,4.582-.125,6.492.059,4.822-1.1,8.756-4.53,12.311-3.78,3.91-8.944,5.212-14.209,5.245l-2.876-.03a19.228,19.228,0,0,1,.086-2.72,25.337,25.337,0,0,0,6.1-.139,15.7,15.7,0,0,0,10.389-5.819c.845-1.112,1.743-2.7,1.555-4.086a4.476,4.476,0,0,0,.479-.769c.485-1.513.106-4.636.112-6.294.036-8.026-.469-16.481.294-24.461" transform="translate(-561.725 -135.624)" fill="#7fe5cf"/>
      <path id="Path_1277546" data-name="Path 1277546" d="M1308.09,471.79a4.635,4.635,0,0,1,1.406-.01c2.922.555,1.479,1.887,2.638,3.623l3.031.13a21.2,21.2,0,0,1,1.248,3.543l-2.958,2.24,1.581,2.905a29.73,29.73,0,0,1-4.487,2.991,10.8,10.8,0,0,0-2.476-1.927l-1.515.879a3.842,3.842,0,0,1-.736.881,2.7,2.7,0,0,1-2.38-.747,14.211,14.211,0,0,1-1.463-1.131c-.155-.656.8-1.956.614-2.832-.069-.327-2-.855-2.476-1.158-.558-1.035-.3-1.779-.192-2.934.7-.828,1.7-.977,2.661-1.467a14.878,14.878,0,0,0-.872-2.347c.347-.807,1.132-1.152,1.845-1.649l2.635,1.55a6.451,6.451,0,0,0,1.839-2.417Z" transform="translate(-893.015 -324.105)" fill="#caa6f0"/>
      <path id="Path_1277547" data-name="Path 1277547" d="M1316.584,483.173l.869.147a4.912,4.912,0,0,0,.366,1.027c.525,1.015,2.13,1.286,3.15,1.585l-1.928,2.708.132,2.6-.38.293a3.906,3.906,0,0,0-3.609-.636c-.743.412-.944.625-1.812.49a5.487,5.487,0,0,0,0-2.2c-.439-.775-1.4-1.118-1.776-2.054.33-.295,1.2-1.01,1.327-1.4.158-.459-.192-.634.149-1.251l2.053.036a3.045,3.045,0,0,0,1.374-1.194Z" transform="translate(-901.139 -331.967)" fill="#fff"/>
      <path id="Path_1277548" data-name="Path 1277548" d="M885.977,213.391c2.318-.038,5.668-.573,7.435,1.188a4.85,4.85,0,0,1,1.251,2.18,22.69,22.69,0,0,1,.129,4.45l-.036,9.682a4.566,4.566,0,0,1-1.453,3.025c-1.812,1.705-4.8,1.2-7.091,1.16.4-1.911.122-4.52.125-6.492l.007-9.847c0-1.69.225-3.76-.366-5.345" transform="translate(-608.716 -146.539)" fill="#152353"/>
      <path id="Path_1277549" data-name="Path 1277549" d="M502.057,229.88a6.115,6.115,0,0,1-.125-1.114l-.011-8.5a20.347,20.347,0,0,1,.156-4.439,3.914,3.914,0,0,1,1.068-1.8c1.323-1.293,3.382-1.11,5.091-1.122l2.508.178a10.534,10.534,0,0,1,.188,3.2l-.04,5.824.024,11.69-3.635.1a5.167,5.167,0,0,1-3.766-1.026,3.969,3.969,0,0,1-1.459-3" transform="translate(-344.819 -146.276)" fill="#152353"/>
      <path id="Path_1277550" data-name="Path 1277550" d="M502.449,250.091a36.664,36.664,0,0,0,.143-5.731,10.456,10.456,0,0,0,2.678.821c2.279.218,4.353-1.548,6.015-2.861l.024,11.69-3.635.1a5.167,5.167,0,0,1-3.766-1.026,3.969,3.969,0,0,1-1.459-3" transform="translate(-345.211 -166.487)" fill="#0f1a4f"/>
      <path id="Path_1277551" data-name="Path 1277551" d="M1199.146,506.963a4.7,4.7,0,0,1,3.334,1.937c1.159,1.789-.258,6.6-.624,8.732,1.713-.324,3.889-.872,5.45.187a3.59,3.59,0,0,1,1.6,2.237c-.192,3.437-4.153,4.848-5.692,7.354a5.006,5.006,0,0,0-.132,2.328c1.859,1.16,5.4-1.262,6.368,2.567a2.572,2.572,0,0,1-.409,2.149c-1.383,2.095-6.959,6.572-9.4,7.042l-.753.123c.684-1.641.185-4.746.221-6.594.168-9.3.515-18.776.04-28.062" transform="translate(-823.701 -348.312)" fill="#b50c9f"/>
      <path id="Path_1277552" data-name="Path 1277552" d="M1172.527,541.224a38.858,38.858,0,0,1-6.379-4.471,11.679,11.679,0,0,1-3.456-3.506,3.513,3.513,0,0,1,.515-2.641,3.7,3.7,0,0,1,2.5-1.421,8.743,8.743,0,0,1,2.06-.034c1.205.242,3,3.075,4.057,3.948l.343-.177c-1.1-5.058-5.111-7.362-8.118-11.084a3.166,3.166,0,0,1-.8-2.342,3.593,3.593,0,0,1,1.581-2.265c1.324-.83,3.12-.292,4.543-.006.38-2.561-1.991-6.093-.555-8.568.855-1.471,2.2-1.939,3.757-2.351a4.653,4.653,0,0,1,.614.828,11.4,11.4,0,0,1-.016,2.324l-.023,5.778.06,25.2Z" transform="translate(-798.812 -347.861)" fill="#b50c9f"/>
      <path id="Path_1277553" data-name="Path 1277553" d="M1207.261,617.391l.291-.25c2.011-1.819,3.77-4.564,5.51-6.671,1.258-1.523,3.43-3.517,4.318-5.218.135-.262-.056-.714-.145-.964-.759-2.151-2.608-5.909-2.387-8.109a3.362,3.362,0,0,1,1.258-2.381c1.314-.994,3.087-.593,4.6-.391.178-1.876.38-4.967,1.152-6.638a3.808,3.808,0,0,1,2.357-1.8c2.011-.574,4.54,1.709,6.183,2.659a15.126,15.126,0,0,1,3.727-2.518,3.3,3.3,0,0,1,2.766.084c.5.219.443.283.634.782.7.889.746.853.621,1.965l-.647.729-18.768,16.683-.5-.243c-1.908,2.724-4.186,5.21-6.279,7.794-1.178,1.452-2.35,3.36-3.79,4.508Z" transform="translate(-829.456 -401.823)" fill="#b50c9f"/>
      <path id="Path_1277554" data-name="Path 1277554" d="M1261.6,588.457c.7.889.746.853.62,1.965l-.647.729-18.769,16.683-.5-.243.36-.391a1.845,1.845,0,0,1-.274-.935,138.155,138.155,0,0,1,11.188-11.04,77.481,77.481,0,0,1,8.023-6.768" transform="translate(-853.534 -404.303)" fill="#f379e9"/>
      <path id="Path_1277555" data-name="Path 1277555" d="M1086.812,582.636a5.032,5.032,0,0,1,4.011-1.373c1.8.352,3.552,2.585,4.988,3.677,1.8-1.225,3.675-2.784,6.005-2.266a3.148,3.148,0,0,1,2.034,1.452c1.185,2,.446,5.7.231,7.962,1.832-.881,3.717-2.027,5.8-1.217a3.618,3.618,0,0,1,1.842,1.751c.994,2.1-1.813,7.075-2.74,9.168l-.859,1.661,6.266,8.023c.68.88,2.1,2.255,2.024,3.359h-.729c-.112-1.51-7.181-9.79-8.544-11.332l-.426-.056c-.422-2.077-16.458-14.364-19.155-17.564l-.2-.243-.753-.065a6.274,6.274,0,0,1,.2-2.939" transform="translate(-746.507 -399.315)" fill="#b50c9f"/>
      <path id="Path_1277556" data-name="Path 1277556" d="M1086.607,588.733a6.287,6.287,0,0,1,.2-2.939,4.139,4.139,0,0,1,1.529.533,22.674,22.674,0,0,1,2.856,2.457l5.953,5.553,10.753,10.392a3.323,3.323,0,0,1-.759,1.932l-.426-.056c-.422-2.077-16.458-14.364-19.155-17.564l-.2-.243Z" transform="translate(-746.507 -402.473)" fill="#f379e9"/>
      <path id="Path_1277557" data-name="Path 1277557" d="M403.35,51.337c2.357-.024,5.828-.561,7.646,1.158l.4.425.117.128a2.256,2.256,0,0,1,.565,1.193,30.293,30.293,0,0,1,.046,4.192l.013,8.035c.011,6.143.464,12.662-.005,18.768a3.638,3.638,0,0,1-1.363,2.4c-1.456,1.211-3.258,1.052-5.045,1.105l2.241,10.116-14.006-9.945c1.691-1.129,5.925.063,8.125-.7a6.317,6.317,0,0,0,3.533-3.024,7.132,7.132,0,0,0,.548-2.525l.038-22.292c0-1.15.35-4.67-.037-5.607-.525-1.272-2.412-2.136-2.754-3.2Z" transform="translate(-270.674 -35.204)" fill="#f8da30"/>
      <path id="Path_1277558" data-name="Path 1277558" d="M111.229,368.773l-48.242-.067c1.627-4.941,3.172-10.594,7.384-14.006,3.945-3.2,9.021-2.433,12.539.992,1.431,1.393,3.086,4.265,5.124,4.456,1.49-.609,3.313-4.227,4.488-5.549a30.26,30.26,0,0,0,3.108,4.222c4.247,4.965,9.566,7.738,15.6,9.953" transform="translate(-43.276 -242.304)" fill="#cbf4eb"/>
      <path id="Path_1277559" data-name="Path 1277559" d="M1141.755,688.126a3.51,3.51,0,0,0,2.648.328l.31-.1.9.022c3.78.572,8.065.159,11.9.134.779-.005,2.753-.231,3.358.12l-.977.2a38.931,38.931,0,0,0-.063,9.029l-.221.512a3.107,3.107,0,0,1-.327,2.619l-25.461.361c-4.516-.066-9.851.662-14.272-.046a4.162,4.162,0,0,0-.07-3.21c-.211-.187-.092-.111-.39-.237l-.466-.2a3.808,3.808,0,0,1-2.159-2.016c-.327-1.068-.39-4.379.224-5.367a4.567,4.567,0,0,1,2.126-1.691,14.057,14.057,0,0,1,3.856-.137l8.4.059a23.059,23.059,0,0,0,4.807-.151l.208-.048h.729c1.172.218,3.17.4,4.2-.173Z" transform="translate(-766.907 -472.781)" fill="#cbf4eb"/>
      <path id="Path_1277560" data-name="Path 1277560" d="M1126.632,719.01c3.863-.825,9.042-.23,13.044-.222l26.659.021.426.477a3.107,3.107,0,0,1-.327,2.619l-25.46.361c-4.516-.066-9.852.662-14.272-.046a4.163,4.163,0,0,0-.07-3.21" transform="translate(-774.059 -493.7)" fill="#0a7245"/>
      <path id="Path_1277561" data-name="Path 1277561" d="M88.719,628.252a29.921,29.921,0,0,0,4.151,3.386c3.587,1.643,7.125,2.395,10.951.927l2.736-1.326,2.571,6.253a63.914,63.914,0,0,0-2.557,9.548l-.142-.01c-2.308.6-5.489.191-7.888.173l-16.221-.04-.083-.264-3.847-3.948-9.581-10.584-3.632-3.889Z" transform="translate(-44.78 -431.644)" fill="#caa6f0"/>
      <path id="Path_1277562" data-name="Path 1277562" d="M88.72,628.252a29.922,29.922,0,0,0,4.151,3.386c-1.706,1-4.657.633-6.613.634l-11.606-.01a35.524,35.524,0,0,0-5.842.106l-3.632-3.889Z" transform="translate(-44.781 -431.644)" fill="#d7b6f1"/>
      <path id="Path_1277563" data-name="Path 1277563" d="M107.4,674.514a35.815,35.815,0,0,1,6.928-.291l10.995.082c1.458.012,4.638-.42,5.736.316a29.364,29.364,0,0,1,4.38,3.972c-2.308.6-5.489.191-7.888.173l-16.221-.04-.083-.264Z" transform="translate(-73.79 -463.206)" fill="#d7b6f1"/>
      <path id="Path_1277564" data-name="Path 1277564" d="M131.39,535.484c7.772,1.645,17.765,6.681,22.156,13.555a17.616,17.616,0,0,1,2.636,8.133A22.063,22.063,0,0,1,155.2,563a18,18,0,0,1-2.878,4.306l-.326-.063a172.949,172.949,0,0,0-11.135-19.029c-3.04-4.319-6.583-8.317-9.469-12.727" transform="translate(-90.272 -367.907)" fill="#20a94f"/>
      <path id="Path_1277565" data-name="Path 1277565" d="M340.922,464.532c.668-1.174.66-4.093,1-5.572.77-3.372,2.259-7,5.272-8.963,1.006-.655,2.174-.99,3.185-1.624l-1.356-2.98a15.389,15.389,0,0,1-.117-11.014,11.386,11.386,0,0,1,5.732-5.548,9.864,9.864,0,0,1,8.074.272,10.3,10.3,0,0,1,5.351,6.352c.217.924.155,1.838.461,2.753l.053.151c-12.612,8.457-20.072,19.705-26.914,32.973l-8.228,19.377c-1.629-.97-3.106-3.08-4.39-4.5l-6.974-7.237c5.677-6.319,7.5-13.572,8.81-21.7,3.933,1.166,7.213,4.391,10.044,7.258" transform="translate(-221.279 -294.13)" fill="#caa6f0"/>
      <path id="Path_1277566" data-name="Path 1277566" d="M225.253,611.388l2.83-4.947a33,33,0,0,0,7.5,2.528c-.424,1.02-.694,2-1.755,2.5-1.443.236-7.2.861-8.335.1Z" transform="translate(-154.761 -416.659)" fill="#d7b6f1"/>
      <path id="Path_1277567" data-name="Path 1277567" d="M202.131,604.789l.1.321a7.246,7.246,0,0,1,.136,1.873,26.965,26.965,0,0,0,4.97.091l-2.2,3.835-4.212,9.336c-1.05-1.617-1.7-3.617-2.647-5.327a17.988,17.988,0,0,0,2.878-4.306,22.054,22.054,0,0,0,.984-5.824" transform="translate(-136.223 -415.524)" fill="#d7b6f1"/>
      <path id="Path_1277568" data-name="Path 1277568" d="M237.924,590.673l6.974,7.237c1.283,1.416,2.761,3.526,4.39,4.5l-1.139,2.921-4.8,13.725-1.517,4.245-.892,2.782-1.317,4.479-3.747.059-.734.828c-3.4-2.5-7.166-4.875-9.845-8.229a4.438,4.438,0,0,0-1.158-1.866c-8.022.927-16.528-.709-24.543.385.933-1.575,1.225-4.344,1.75-6.166a67.938,67.938,0,0,1,3.028-8.55l1.741-3.752,1.509-2.713.241.179c1.135.765,6.891.14,8.335-.1,1.061-.5,1.331-1.481,1.755-2.5,6.621.936,12.2-1.185,17.423-5.076Z" transform="translate(-137.134 -405.825)" fill="#caa6f0"/>
      <path id="Path_1277569" data-name="Path 1277569" d="M316.483,590.673l6.974,7.237c1.283,1.416,2.761,3.526,4.39,4.5l-1.139,2.921c-2.429-1.381-4.448-3.855-6.412-5.812a90.347,90.347,0,0,1-6.357-6.454Z" transform="translate(-215.692 -405.825)" fill="#d7b6f1"/>
      <path id="Path_1277570" data-name="Path 1277570" d="M216.608,629.188c4.023-.4,8-.364,12.031-.52,1.814-.07,4.821-.529,6.476-.06a7.331,7.331,0,0,1,1.3.838,46.686,46.686,0,0,1,4.375,3.227l.563.5-17.976.078c-2.561-.008-6.059.383-8.514-.311Z" transform="translate(-147.626 -431.746)" fill="#d7b6f1"/>
      <path id="Path_1277571" data-name="Path 1277571" d="M235.329,649.466c2.136-.043,4.987-.477,7.044-.142a6.221,6.221,0,0,1,1.688,1.008l4.913,3.689-23.394-.053-4.051-.042-5.4-.309a8.53,8.53,0,0,1-1.816-.106,13.184,13.184,0,0,1-1.769-1.846,2.179,2.179,0,0,1,.186-1.561Z" transform="translate(-145.981 -446.035)" fill="#d7b6f1"/>
      <path id="Path_1277572" data-name="Path 1277572" d="M278.022,683.653a2.385,2.385,0,0,1,.5-1.4c1.16-1.142,4.22-.865,5.769-.883l12.941-.017-1.517,4.245-.892,2.782-1.317,4.479-3.747.058-.734.828c-3.4-2.5-7.166-4.875-9.845-8.229a4.439,4.439,0,0,0-1.158-1.866" transform="translate(-191.017 -468.128)" fill="#d7b6f1"/>
      <path id="Path_1277573" data-name="Path 1277573" d="M305,697.7l-1.369.01-6.247-.015a4.725,4.725,0,0,1-1.915-.165,16.756,16.756,0,0,1-2.635-2.492l13.057-.12Z" transform="translate(-201.191 -477.45)" fill="#caa6f0"/>
      <path id="Path_1277574" data-name="Path 1277574" d="M1141.125,729.58l25.461-.361a2.662,2.662,0,0,1,.571,1.189c.548,4.144.066,8.968.073,13.179.007,2.84.413,6.076.036,8.87a5.927,5.927,0,0,1-.406,1.422l-.079.2a8.592,8.592,0,0,1-4.738,4.764l-.736.295-19.436-.02-8.356,0c-1.681-1.079-3.354-1.721-4.629-3.359-2.265-2.921-1.687-7.381-1.694-10.833l-.007-9.991c0-1.712.247-3.77-.333-5.4,4.421.708,9.756-.021,14.272.046" transform="translate(-774.211 -501.014)" fill="#7fe5cf"/>
      <path id="Path_1277575" data-name="Path 1277575" d="M1271.465,250.059c-2.856-5.645-8.693-10.27-15.068-11.112-1.945-.257-4.11.185-5.966-.461l-.2-.075a4.444,4.444,0,0,1-1.863.326,4.444,4.444,0,0,0,1.863-.326l.086-.789a29.283,29.283,0,0,0-10.106-12.578c-7.3-5.069-15.748-5.98-24.3-4.411,8.042,1.337,14.559,3.556,19.476,10.489a32.75,32.75,0,0,1,3.974,7.94l5.735-.042a3.822,3.822,0,0,1,.953-.248,3.822,3.822,0,0,0-.953.248c1.472-.008,4.117-.331,5.438.165,5.543,5.6,9.2,10.93,9.165,19.089a23.488,23.488,0,0,1-7.108,16.493,18.692,18.692,0,0,1-5.282,3.772,17.3,17.3,0,0,0-2.961,1.326c6.124.365,12.654.448,18.24-2.359a21.474,21.474,0,0,0,10.01-11.877,20.545,20.545,0,0,0-1.133-15.569" transform="translate(-835.399 -151.107)" fill="#3f7266"/>
      <path id="Path_1277576" data-name="Path 1277576" d="M220.572,499.685a180.642,180.642,0,0,0-12.519,16.409l-1.283,2.019a26.96,26.96,0,0,1-4.97-.091,7.247,7.247,0,0,0-.136-1.873l-.1-.321a22.063,22.063,0,0,1-.984,5.824,17.991,17.991,0,0,1-2.878,4.306c.948,1.71,1.6,3.709,2.647,5.327a4.279,4.279,0,0,0-.346,1.127,63.911,63.911,0,0,0-2.557,9.548l.672.513c.933-1.575,1.225-4.344,1.75-6.166a67.931,67.931,0,0,1,3.028-8.55L204.641,524l1.509-2.713.241.179c1.135.765,6.891.14,8.335-.1,1.061-.5,1.331-1.482,1.755-2.5,6.621.936,12.2-1.185,17.423-5.076l2.546-2.387c5.677-6.319,7.5-13.572,8.81-21.7l.764-10.585-.169-3.814c-8.851,7.814-17.471,15.485-25.282,24.378" transform="translate(-135.659 -326.562)" fill="#3f7266"/>
      <path id="Path_1277577" data-name="Path 1277577" d="M1198.491,730.408a2.659,2.659,0,0,0-.571-1.189l-25.461.361,9.594.925c1.782.241,3.651.3,5.018,1.516a14.149,14.149,0,0,1,.353,3.9c.089,4.163-.234,9.385-2.189,13.133a18.4,18.4,0,0,1-7.61,7.587c-1.433.834-3.08,1.531-4.421,2.478l19.435.02.736-.295a8.592,8.592,0,0,0,4.738-4.764l.079-.2a5.921,5.921,0,0,0,.406-1.422c.376-2.795-.03-6.03-.036-8.87-.007-4.211.475-9.035-.073-13.179" transform="translate(-805.545 -501.014)" fill="#7fe5cf"/>
      <path id="Path_1277578" data-name="Path 1277578" d="M950.559,238.486a20.24,20.24,0,0,1,18.329,10.445,20.474,20.474,0,0,1,2.152,15.685,19.618,19.618,0,0,1-9.528,12.18c-5.533,3.183-11.582,2.749-17.491,1.114a15.919,15.919,0,0,1-3.869,1.561l-8.439,3.2,3.807-9.1c.01-.03.162-.42.162-.42a16.343,16.343,0,0,0-1.608-1.8,19.532,19.532,0,0,1-3.78-10.624,21.026,21.026,0,0,1,4.9-15.164c4.15-4.688,9.247-6.731,15.368-7.076" transform="translate(-639.132 -163.853)" fill="#c6b7e2"/>
      <path id="Path_1277579" data-name="Path 1277579" d="M978.662,273.1l1.152-.029,4.988,5.3c-.607,1.435-3,3.268-4.146,4.4l-10.888,10.987a27.473,27.473,0,0,0-4.523-4.218l-.178-.1c-.152-.657-.9-1.25-1.364-1.734l-4.186-4.373c.215-.626.994-1.195,1.476-1.66l4.014-3.87,4.632,4.482,5.781-5.685a21.146,21.146,0,0,0,3.242-3.506" transform="translate(-659.242 -187.618)" fill="#fff"/>
      <path id="Path_1277580" data-name="Path 1277580" d="M967.263,383.017,976.1,377.3a85.088,85.088,0,0,1,5.219,15.767c.165.715.079,1.429.238,2.13a129.463,129.463,0,0,1,2.783,33.088,133.853,133.853,0,0,1-3.027,25.989c-.743,3.26-1.307,7.165-2.681,10.214a3.267,3.267,0,0,1-.895,1.013l.026-.178c.1-1.469-1.189-4.058-1.71-5.546l-6.322-16.341c-.839-1.938-1.581-4.321-2.965-5.9a2.667,2.667,0,0,0-.673-1.6l-.006-.212c-.063-.947-1.113-2.545-1.575-3.421-1.747-3.308-4.031-8.468-6.85-10.907l-.026-.173a10.693,10.693,0,0,0-2.011-2.988,51.371,51.371,0,0,0-15.305-13.2c1.687-.71,3.628-3.317,5-4.632l6.279-5.529c5.041-4.186,10.674-7.665,15.665-11.852" transform="translate(-646.05 -259.228)" fill="#caa6f0"/>
      <path id="Path_1277581" data-name="Path 1277581" d="M1022.677,530.624l.195-.09a11.624,11.624,0,0,0,3.173-3.1l5.89-7.316c1.3-1.662,2.671-3.886,4.49-4.993a34.33,34.33,0,0,1-4.982,7.992l-7.092,8.951-1,.16a2.666,2.666,0,0,0-.673-1.6" transform="translate(-702.636 -353.917)" fill="#d7b6f1"/>
      <path id="Path_1277582" data-name="Path 1277582" d="M1011.564,392.5c.439-.321.97-.85,1.506-.894.135.574-.066.723-.343,1.238-3.295,6.184-6.454,12.07-8.557,18.809l-1.9,7.164a22.951,22.951,0,0,1-1.327,4.827c-.575-4.464,4.209-19.818,6.3-24.078a35.092,35.092,0,0,1,2.433-4.208c.627-.924,1.75-1.741,1.895-2.858" transform="translate(-687.667 -269.056)" fill="#d7b6f1"/>
      <path id="Path_1277583" data-name="Path 1277583" d="M158.515,257.731l.863.325c8.26-4.052,17.649-5.376,26.514-2.325,5.407,1.861,10.662,5.8,13.187,11.022a19.32,19.32,0,0,1,.788,15.4c-1.968,5.515-6.476,9.537-11.681,11.95-8.538,3.957-17.426,3.837-26.16.548a32.613,32.613,0,0,1-4.992-2.416,11.838,11.838,0,0,0-2.392-1.36c-.156-.017-.286.128-.429.192a30.211,30.211,0,0,1-3.108-4.222c-2.413-4.789-3.523-9.573-2.43-14.882a23.372,23.372,0,0,1,9.841-14.234" transform="translate(-101.857 -174.552)" fill="#c6b7e2"/>
      <path id="Path_1277584" data-name="Path 1277584" d="M277.25,311.13l1.264.224a3.435,3.435,0,0,1,2.2,1.792,4.116,4.116,0,0,1,.225,2.792c-.461,1.33-1.693,1.891-2.859,2.472a7.313,7.313,0,0,1-1.656-.3,3.218,3.218,0,0,1-2.044-1.891,3.147,3.147,0,0,1,.027-2.866c.582-1.3,1.6-1.718,2.84-2.22" transform="translate(-188.289 -213.764)" fill="#fff"/>
      <path id="Path_1277585" data-name="Path 1277585" d="M192.255,311.817a9.954,9.954,0,0,1,2.051-.064,3.457,3.457,0,0,1,2.26,1.237,3.633,3.633,0,0,1,.739,2.759,4.3,4.3,0,0,1-2.235,2.812,7.865,7.865,0,0,1-1.7.234,3.281,3.281,0,0,1-2.194-1.128,3.568,3.568,0,0,1-.906-2.8c.113-1.443.935-2.153,1.984-3.052" transform="translate(-130.717 -214.169)" fill="#fff"/>
      <path id="Path_1277586" data-name="Path 1277586" d="M235.083,311.055l1.058.05a3.665,3.665,0,0,1,2.653,1.436,3.394,3.394,0,0,1,.629,2.732c-.266,1.539-1.256,2.185-2.477,2.964a8.634,8.634,0,0,1-1.708-.069,3.2,3.2,0,0,1-2.111-1.365,3.736,3.736,0,0,1-.6-2.945c.343-1.437,1.386-2.072,2.555-2.8" transform="translate(-159.697 -213.712)" fill="#fff"/>
      <path id="Path_1277587" data-name="Path 1277587" d="M305.314,88.875c-1.752-.54-4.624-.173-6.487-.179L282.2,88.7l-8.061.049a13.1,13.1,0,0,1-5.255-.56,5.914,5.914,0,0,1-3.286-3.444c-.821-2.2-.937-27.532-.021-29.494a7.02,7.02,0,0,1,1.455-2.241,6.425,6.425,0,0,1,3.186-1.684,32.641,32.641,0,0,1,4.414-.108l8.776-.035L314.7,51.3l.065.232c.343,1.06,2.229,1.924,2.754,3.2.387.937.034,4.457.037,5.607l-.038,22.292a7.133,7.133,0,0,1-.548,2.525,6.317,6.317,0,0,1-3.533,3.024c-2.2.762-6.434-.43-8.125.7" transform="translate(-182.026 -35.167)" fill="#fdf0ac"/>
      <path id="Path_1277588" data-name="Path 1277588" d="M297.681,125.183l18.561.029c1.845,0,5.708-.451,7.206.378.413.829.215,1.095-.014,1.957l-19.323.01c-1.442,0-4.4.381-5.678,0a4.133,4.133,0,0,1-.709-.429,2.248,2.248,0,0,1-.042-1.948" transform="translate(-204.385 -85.944)" fill="#36ce6d"/>
      <path id="Path_1277589" data-name="Path 1277589" d="M297.678,86.14l28.347.019,5.633-.006a10.044,10.044,0,0,1,2.029,0,4.214,4.214,0,0,1,.733.556,3.007,3.007,0,0,1-.187,1.987l-28.439-.018L300,88.708a7.791,7.791,0,0,1-1.813.012,4.367,4.367,0,0,1-.733-.569,2.516,2.516,0,0,1,.224-2.01" transform="translate(-204.286 -59.148)" fill="#36ce6d"/>
      <path id="Path_1277590" data-name="Path 1277590" d="M297.993,105.246l27.719.109,6.039.03a8.26,8.26,0,0,1,1.965.054,3.953,3.953,0,0,1,.656.538c.219.96-.031,1.111-.524,1.916l-24.794-.029-7.8.036a13.6,13.6,0,0,1-3.186-.064,3.723,3.723,0,0,1-.652-.5,2.327,2.327,0,0,1,.576-2.089" transform="translate(-204.315 -72.31)" fill="#36ce6d"/>
      <path id="Path_1277591" data-name="Path 1277591" d="M936.37,59.537c-5.533-3.385-10.043-7.794-12.159-14.077a21.745,21.745,0,0,1,1.271-16.8c3.972-7.875,11.037-11.921,19.108-14.587l.129.1c1.334.928,4.728.473,6.418.653a36.155,36.155,0,0,1,9.653,2.122,24.43,24.43,0,0,1,14.8,16.92c1.281,5.824-.069,11.255-3.295,16.208-3.3,5.071-9.9,9.259-15.764,10.52a35.836,35.836,0,0,1-10.574.593,31.87,31.87,0,0,1-5.1-.9c-1.449-.378-3.017-1.2-4.49-.75" transform="translate(-634.213 -9.669)" fill="#c6b7e2"/>
      <path id="Path_1277592" data-name="Path 1277592" d="M1006.466,80.434a5.108,5.108,0,0,1,3.338.067,3.6,3.6,0,0,1,1.931,2.186,3.865,3.865,0,0,1-.284,2.819,3.1,3.1,0,0,1-2.2,1.589l-.3.192a3.827,3.827,0,0,1-2.958-.814,3.516,3.516,0,0,1-1.317-2.591c-.063-1.563.808-2.375,1.792-3.448" transform="translate(-690.265 -55.091)" fill="#fff"/>
      <path id="Path_1277593" data-name="Path 1277593" d="M965.136,80.521a6.409,6.409,0,0,1,3.034-.038,3.544,3.544,0,0,1,2.057,1.957,3.793,3.793,0,0,1,.013,2.853c-.541,1.227-1.4,1.529-2.555,1.979l-.317.112a3.453,3.453,0,0,1-2.816-.783,3.609,3.609,0,0,1-1.294-2.534c-.049-1.67.769-2.463,1.879-3.545" transform="translate(-661.81 -55.178)" fill="#fff"/>
      <path id="Path_1277594" data-name="Path 1277594" d="M1048.743,80.545a6.935,6.935,0,0,1,3.067-.04,3.511,3.511,0,0,1,2.113,1.89,4.177,4.177,0,0,1-.04,3.006,3.305,3.305,0,0,1-2.357,1.778,2.387,2.387,0,0,1-1.374.263,3.207,3.207,0,0,1-2.133-.988,3.437,3.437,0,0,1-1.027-2.629c.016-1.617.653-2.2,1.75-3.28" transform="translate(-719.343 -55.202)" fill="#fff"/>
      <path id="Path_1277595" data-name="Path 1277595" d="M316.7,270.889c3.218-.882,5.693-.876,8.639.792a28.869,28.869,0,0,1,5.824,4.91c1.368-6.555,4.417-13.023,10.184-16.805a11.73,11.73,0,0,1,8.187-1.828l.3.056a9.225,9.225,0,0,1,5.977,4.091,10.888,10.888,0,0,1,1.455,7.474c-.905,4.864-7.378,8.836-10.524,12.382a34.658,34.658,0,0,0-5.186,7.847c4.392-.138,7.705-.159,11.9,1.454.034-5.22.864-9.765,4.723-13.607a11.184,11.184,0,0,1,8.345-3.522,8.145,8.145,0,0,1,6.358,2.768,8.975,8.975,0,0,1,2.384,6.9c-.118,4.534-3.078,9.605-5.06,13.617a49.343,49.343,0,0,1,10.164,6.171l-76.091-.035-1.6-2.379a26.645,26.645,0,0,0,13.463-12.715c2.9-5.818,2.568-11.6.557-17.572" transform="translate(-207.961 -177.122)" fill="#cbf4eb"/>
      <path id="Path_1277596" data-name="Path 1277596" d="M520.1,92.653l2.548-.185c.337-1.54,1.431-2.69,1.756-4.112.357-1.564.247-3.355.446-4.96a50.842,50.842,0,0,1,2.568-10.586c4.582-12.945,14.9-23.665,27.21-29.488a56.427,56.427,0,0,1,42.718-2.3c15.809,5.695,28.609,18.694,32.432,35.292a37.345,37.345,0,0,1,.862,4.975c.122,1.3-.086,4.624.456,5.615l.334.609.152.282c-.763,7.98-.258,16.435-.294,24.461-.007,1.658.373,4.781-.112,6.294a4.466,4.466,0,0,1-.479.769l-.294-.155c-3.047.831-7.131.249-10.3.133a4.447,4.447,0,0,1-2.456-1.73,4.477,4.477,0,0,0,.31-.668,12.4,12.4,0,0,0,.126-3.454l-.158-10.892c-.026-4.189.353-8.6-.023-12.755a4.324,4.324,0,0,0-.4-1.351c1.423-.371,1.928-1.22,2.829-2.335,1.017-4.148,1.594-11.606-.2-15.564a5.008,5.008,0,0,0-.221-1.207c-2.351-7.593-10.862-14.568-17.62-18.127-12.5-6.584-26.857-7.319-40.238-3.1C551.921,51.3,542.49,58.6,537.538,68.066a29.355,29.355,0,0,0-1.256,4.509,7.814,7.814,0,0,0,1.877-.294l.292,2.266.114,1.174.232,2.31.374,6.327,4.194.065c-.9.06-3.515-.054-4.181.287a6.781,6.781,0,0,0-.888.984c-.505,2.585-.2,5.669-.21,8.31l.07,16.338c.036,2.019.538,5.07-.1,6.9l-.006.212-3.125.074a8.224,8.224,0,0,1-3.311,2.461,6.575,6.575,0,0,1-4.914-.358c-2.58-1.268-3.243-3.3-4.1-5.841l-3.464-.141,3.635-.1-.024-11.69.04-5.825a10.534,10.534,0,0,0-.188-3.2Z" transform="translate(-356.68 -26.023)" fill="#3f7266"/>
      <path id="Path_1277597" data-name="Path 1277597" d="M841.837,142.286l.773.18a44.311,44.311,0,0,1,3.747,15.687l-4.166-.023-.152-.28c1.016-4.148,1.594-11.606-.2-15.564" transform="translate(-578.389 -97.758)" fill="#fff"/>
      <path id="Path_1277598" data-name="Path 1277598" d="M562.442,155.412a6.641,6.641,0,0,0-4.135-2.951c.355-4.382,3.111-14.937,6.14-18.117a29.363,29.363,0,0,0-1.257,4.509l-.435,2.954c-.345,4.492.26,9.18-.314,13.606" transform="translate(-383.588 -92.302)" fill="#fff"/>
      <path id="Path_1277599" data-name="Path 1277599" d="M833.44,194.355c1.423-.371,1.928-1.22,2.829-2.335l.152.28a8.886,8.886,0,0,1,.307,3.485l-.013,6.175-.056,22.5-.617.747a4.447,4.447,0,0,1-2.456-1.73,4.482,4.482,0,0,0,.31-.668,12.4,12.4,0,0,0,.125-3.454l-.158-10.892c-.026-4.189.353-8.6-.023-12.755a4.327,4.327,0,0,0-.4-1.351" transform="translate(-572.62 -131.928)" fill="#7fe5cf"/>
    </g>
  </g>
  <g id="Group_1207790" data-name="Group 1207790" transform="translate(178.555 46.257)">
    <g id="Group_1207789" data-name="Group 1207789" clip-path="url(#clip-path-2)">
      <rect id="Rectangle_411393" data-name="Rectangle 411393" width="22.394" height="45.283" transform="translate(-13.942 4.645) rotate(-18.744)" fill="#7fe5cf"/>
    </g>
  </g>
  <g id="Group_1207792" data-name="Group 1207792">
    <g id="Group_1207791" data-name="Group 1207791" clip-path="url(#clip-path)">
      <path id="Path_1277601" data-name="Path 1277601" d="M575.17,84.773c4.952-9.47,14.383-16.764,24.51-19.953,13.381-4.214,27.735-3.48,40.238,3.1,6.758,3.559,15.269,10.533,17.62,18.127a5.02,5.02,0,0,1,.221,1.207c1.8,3.957,1.218,11.416.2,15.564-.9,1.115-1.406,1.964-2.829,2.335.208-1.381-2.5-3.569-3.453-4.624A114.264,114.264,0,0,1,637.828,81.7c-12.911,12.276-29.752,17.133-47.155,18.723-3.035.277-6.285.75-9.32.728l-.359-.018-4.194-.065-.374-6.327-.232-2.31-.113-1.174-.292-2.266a7.814,7.814,0,0,1-1.877.294,29.318,29.318,0,0,1,1.256-4.509" transform="translate(-394.31 -42.731)" fill="#1d3760"/>
      <path id="Path_1277602" data-name="Path 1277602" d="M579.912,134.554a31.866,31.866,0,0,1,5.534-.573l9.455-1.164,12.379-2.335c3.127-.689,6.249-1.556,9.423-1.967-8.5,3.651-17.987,5.753-27.122,7.094-3.087.453-6.265,1.044-9.377,1.211Z" transform="translate(-398.432 -88.297)" fill="#0f1a4f"/>
      <path id="Path_1277603" data-name="Path 1277603" d="M581.946,116.8c19.8-.577,41.615-4.932,58.23-16.26,2.759-1.882,4.882-4.17,7.455-6.236a21.244,21.244,0,0,1-4.284,9.455c-12.911,12.276-29.752,17.133-47.155,18.723-3.035.277-6.284.75-9.32.728l-.359-.018-4.193-.065Z" transform="translate(-399.829 -64.791)" fill="#152353"/>
      <path id="Path_1277604" data-name="Path 1277604" d="M142.08,688.258l.142.01.672.513c8.015-1.094,16.522.542,24.543-.385a4.442,4.442,0,0,1,1.158,1.866c2.679,3.353,6.442,5.726,9.845,8.229l.734-.828,3.747-.059-1.031,3.742-.966,3.942-.534,2.473a17.912,17.912,0,0,0,.286,8.9,20.9,20.9,0,0,0,2.6,4.647,15.292,15.292,0,0,0,9.365,6.923l3.092.454a35.437,35.437,0,0,1,6.206,2.557l-41.48-.2-35.672.021c-.968.414-2.92.09-4,.051l4.135-.044c-1.309-1.191-2.615-2.361-3.105-4.117l-.058-.228c-.547-2.833-.179-6.362-.182-9.281V697.671l-2.991-.114c-.829-.134-.983-.515-1.417-1.16-.029-2.535-.5-5.758.8-8.007l16.221.04c2.4.019,5.58.429,7.888-.173" transform="translate(-80.431 -472.872)" fill="#7fe5cf"/>
      <path id="Path_1277605" data-name="Path 1277605" d="M142.08,688.258l.142.01.672.513c8.015-1.094,16.522.542,24.543-.385a4.442,4.442,0,0,1,1.158,1.866c-.017,1.609.448,5.818-.345,7.09-1.278.709-3.311.482-4.79.355l-41.641-.126.011,4.485-.067,24.65c-.547-2.833-.179-6.362-.182-9.281V697.671l-2.991-.114c-.829-.134-.983-.515-1.417-1.16-.029-2.535-.5-5.758.8-8.007l16.221.04c2.4.018,5.58.429,7.888-.173" transform="translate(-80.431 -472.872)" fill="#e5f9f5"/>
      <path id="Path_1277606" data-name="Path 1277606" d="M263.871,694.663c2.679,3.354,6.442,5.726,9.845,8.229l.734-.828L278.2,702l-1.031,3.742-.966,3.942-.534,2.473a17.912,17.912,0,0,0,.286,8.9,20.9,20.9,0,0,0,2.6,4.648,15.292,15.292,0,0,0,9.365,6.923l3.092.454a35.43,35.43,0,0,1,6.206,2.557l-41.48-.2,1.888-1.63a3.99,3.99,0,0,0,1.046-2.205,65.013,65.013,0,0,0,.064-7.4l.006-16-.017-2.86.007-3.23c1.48.127,3.512.354,4.79-.355.794-1.271.329-5.482.345-7.09" transform="translate(-175.708 -477.272)" fill="#caa6f0"/>
      <path id="Path_1277607" data-name="Path 1277607" d="M297.366,759.32c-1.593-.517-3.317-2.532-4.584-3.645-1.969-1.729-4.012-3.16-5.875-5.041a73.743,73.743,0,0,1,10.173-.21,17.911,17.911,0,0,0,.286,8.9" transform="translate(-197.122 -515.535)" fill="#d7b6f1"/>
      <path id="Path_1277608" data-name="Path 1277608" d="M270.43,694.663c2.679,3.354,6.442,5.726,9.845,8.229l.734-.828,3.747-.059-1.031,3.742-.966,3.942-11.6-.069c-1.137-.01-3.225.234-4.261-.161A5.631,5.631,0,0,1,265.3,708.2l-.017-2.86.007-3.23c1.48.127,3.512.354,4.79-.355.794-1.271.329-5.482.346-7.09" transform="translate(-182.267 -477.272)" fill="#caa6f0"/>
      <path id="Path_1277609" data-name="Path 1277609" d="M265.287,728.776l15.511.134c1.12.009,1.733.453,2.927.275l-.966,3.943-11.6-.069c-1.137-.01-3.225.234-4.261-.161a5.632,5.632,0,0,1-1.594-1.261Z" transform="translate(-182.267 -500.71)" fill="#d7b6f1"/>
      <path id="Path_1277610" data-name="Path 1277610" d="M217.593,501.017a23.356,23.356,0,0,0,4.3,12.991A180.652,180.652,0,0,1,234.41,497.6c7.811-8.892,16.431-16.564,25.282-24.378l.169,3.814.243-4.764c-12.419.193-26.79,3.185-35.785,12.433a23.371,23.371,0,0,0-6.726,16.313" transform="translate(-149.497 -324.477)" fill="#589f8f"/>
      <path id="Path_1277611" data-name="Path 1277611" d="M125.218,535.483l-.6.059a16.924,16.924,0,0,0-1.283,4.146,33.116,33.116,0,0,0,.245,16.534l1.16,3.232a37.868,37.868,0,0,0,3.3,5.06,29.92,29.92,0,0,0,4.151,3.386c3.587,1.643,7.125,2.395,10.951.927l2.736-1.326,2.571,6.253a4.288,4.288,0,0,1,.346-1.127c-1.05-1.617-1.7-3.617-2.647-5.327A18,18,0,0,0,149.025,563a22.063,22.063,0,0,0,.984-5.824,17.616,17.616,0,0,0-2.636-8.133c-4.39-6.874-14.383-11.91-22.156-13.555" transform="translate(-84.1 -367.907)" fill="#589f8f"/>
      <path id="Path_1277612" data-name="Path 1277612" d="M1150.985,240.718c-1.321-.5-3.965-.173-5.437-.165l-5.734.042a32.755,32.755,0,0,0-3.975-7.94c-4.916-6.933-11.433-9.151-19.475-10.489a28.252,28.252,0,0,0-17.8,12.193,25.97,25.97,0,0,0-2.057,3.9c-.383.937-.562,2.391-1.169,3.147-7.012.057-13.249-.013-18.544,5.411a20.262,20.262,0,0,0-5.768,14.344,20.723,20.723,0,0,0,6.682,14.911,19.608,19.608,0,0,0,10.086,5.025,41.431,41.431,0,0,0,7.781.368l12.189.04,35.7-.025,1.334-.08a17.319,17.319,0,0,1,2.961-1.326,18.694,18.694,0,0,0,5.282-3.772,23.489,23.489,0,0,0,7.108-16.493c.036-8.159-3.622-13.493-9.165-19.089" transform="translate(-735.85 -152.64)" fill="#7fe5cf"/>
      <path id="Path_1277613" data-name="Path 1277613" d="M1214.851,321.333a2.838,2.838,0,0,1,1.446,2.385,15.991,15.991,0,0,1-13.377,18.548,14.99,14.99,0,0,1-11.39-2.857,16.08,16.08,0,0,1-5.81-8.9,16.085,16.085,0,0,1,2.4,2.871,14.841,14.841,0,0,0,4.929,3.811,15.6,15.6,0,0,0,12.288.508,15.082,15.082,0,0,0,8.633-8.159c.941-2.2,1.8-5.862.881-8.206" transform="translate(-814.656 -220.774)" fill="#7fe5cf"/>
      <path id="Path_1277614" data-name="Path 1277614" d="M1182.5,301.371c.248-1.127-.882-3.1-1.146-4.285a14.529,14.529,0,0,1-.1-5.575,15.289,15.289,0,0,1,6.626-9.785,15.893,15.893,0,0,1,11.786-2.54,15.488,15.488,0,0,1,9.805,6.677c1.06,1.642,2.6,4.316,2.159,6.333.921,2.345.06,6.007-.882,8.206a15.081,15.081,0,0,1-8.633,8.159,15.6,15.6,0,0,1-12.288-.508,14.833,14.833,0,0,1-4.929-3.811,16.1,16.1,0,0,0-2.4-2.871" transform="translate(-811.435 -191.637)" fill="#fff"/>
      <path id="Path_1277615" data-name="Path 1277615" d="M1217.908,305.025c1.667-.124,3.13,1.071,4.546,1.842l6.421,3.359a2.048,2.048,0,0,1,1.208,1.4c-.8,1.224-3.186,2.151-4.53,2.648a8.014,8.014,0,0,1-1.984,1.383l-5.7,3.219Z" transform="translate(-836.748 -209.563)" fill="#7fe5cf"/>
      <path id="Path_1277616" data-name="Path 1277616" d="M367.66,824.708l19.435.02c3,.691,6.738.291,9.818.294l25.378-.009c3.358,0,7.487-.447,10.749.05a5.965,5.965,0,0,1,5.058,5.484,5.972,5.972,0,0,1-1.479,4.444,6.1,6.1,0,0,1-4.312,2.051c-7.075.392-14.371.038-21.462.037l-42.809-.01-131.778-.022L81.19,837.034l-49.813-.012L6.275,837a6.33,6.33,0,0,1-4.439-1.835,5.778,5.778,0,0,1-.072-8.383A5.812,5.812,0,0,1,4.639,825.1c3.5-.744,7.988-.264,11.6-.267l24.118.005c1.082.038,3.034.362,4-.051l35.672-.021,41.479.2L152.4,825l31.195.083,56.283.088,33.347-.04c4.853-.02,10.267.433,15.064-.176l34.169.013,24.424-.029c3.886,0,8.63.5,12.417-.234Z" transform="translate(0 -566.603)" fill="#7fe5cf"/>
      <path id="Path_1277617" data-name="Path 1277617" d="M365.807,439.387c9.215-5.149,18.984-7.788,29.281-9.79,2.919,9.978,13.776,26.585,22.895,31.612a9.371,9.371,0,0,0,6.8,1.062c3.37-1.041,6.63-5.969,8.581-8.843l.235,17.112H392.89c-6.558,0-13.367-.406-19.893.034a5.411,5.411,0,0,0-1.722.493c-1.669,1.261-2.819,2.1-3.114,4.248l-.3,7.411.035,19.226c-.006,2.472.435,6.132-.193,8.445l-6.414,16.7,6.6,2.5c.024,3.587-.367,7.8.157,11.309l.074,4.665c-.035,2.19-.353,4.6.824,6.545l1.975,1.441-30.894-.029a35.47,35.47,0,0,0-6.206-2.557l-3.092-.454a15.294,15.294,0,0,1-9.365-6.923,20.9,20.9,0,0,1-2.6-4.648,17.911,17.911,0,0,1-.286-8.9l.534-2.473.966-3.943L321,519.89l1.317-4.479.892-2.782,1.517-4.246,4.8-13.725,1.139-2.921,8.228-19.377c6.843-13.268,14.3-24.516,26.915-32.973" transform="translate(-218.512 -295.156)" fill="#7fe5cf"/>
      <path id="Path_1277618" data-name="Path 1277618" d="M340.837,731.414a18.28,18.28,0,0,1,4.9-4.172c5.969-3.4,12.209-2.579,18.549-.8l1.672.586c2.888.912,6.313,1.625,9,2.956l6.6,2.5c.024,3.587-.367,7.8.157,11.309l.074,4.665c-.035,2.19-.353,4.6.824,6.545l1.975,1.441-30.893-.029a35.478,35.478,0,0,0-6.206-2.557c-4.036-2.621-7.992-5.522-9.169-10.529-1.05-4.465.158-8.12,2.521-11.914" transform="translate(-232.18 -498.047)" fill="#fbc0a2"/>
      <path id="Path_1277619" data-name="Path 1277619" d="M340.837,745.716a18.182,18.182,0,0,0,1.285,3.737c1.887,3.576,5.5,5.9,8.9,7.868a107.3,107.3,0,0,0,20.886,9.02l6.81,2.025a12.774,12.774,0,0,0,3.9.938l1.975,1.441-30.893-.029a35.469,35.469,0,0,0-6.206-2.557c-4.036-2.621-7.992-5.522-9.169-10.529-1.05-4.465.158-8.121,2.521-11.914" transform="translate(-232.18 -512.349)" fill="#e79f7f"/>
      <path id="Path_1277620" data-name="Path 1277620" d="M641.6,124.515a114.264,114.264,0,0,0,13.849,18.836c.954,1.055,3.661,3.243,3.453,4.624a4.314,4.314,0,0,1,.4,1.351c.376,4.155,0,8.566.023,12.755l.158,10.892a12.4,12.4,0,0,1-.125,3.454,4.446,4.446,0,0,1-.31.668,4.449,4.449,0,0,0,2.456,1.73c3.166.116,7.25.7,10.3-.133l.294.155c.188,1.383-.71,2.975-1.555,4.086a15.7,15.7,0,0,1-10.389,5.82,25.336,25.336,0,0,1-6.1.139,19.236,19.236,0,0,0-.086,2.72c-.079,1.162.02,2.287-1,3.09-1.39,1.1-7.022.567-8.942.569-2,.317-3.24,2.983-5.07,3.974-.031,2.349-.7,11.224.31,12.867.032,3.325-3.529,6.649-5.584,9.015-3.989,4.159-9.462,9.641-15.313,11.028l-.529-.128-2.333-1.153c-5.378-3.1-9.961-8.013-13.658-12.928a17.275,17.275,0,0,1-3.262-5.575l.254-.136c.262-2.913-.022-6.1-.023-9.04a13.194,13.194,0,0,0,0-2.66c-.266-.535-2.7-1.928-3.271-2.368A43.157,43.157,0,0,1,590.5,193.5c-4.706-5.1-7.654-10.567-11.039-16.521l.006-.212c.634-1.831.132-4.882.1-6.9l-.07-16.339c.006-2.64-.3-5.725.21-8.31a6.782,6.782,0,0,1,.888-.984c.665-.34,3.284-.227,4.181-.287l.359.018c3.036.023,6.286-.451,9.32-.728,17.4-1.589,34.244-6.446,47.154-18.722" transform="translate(-398.085 -85.549)" fill="#fbc0a2"/>
      <path id="Path_1277621" data-name="Path 1277621" d="M705.03,244.84l1.464.276.432.669c.013,3.072.462,6.876-.248,9.844l-1.406-.113c-.606-.995-.407-2.19-.419-3.345a47.527,47.527,0,0,1,.177-7.331" transform="translate(-484.237 -168.219)" fill="#d0827d"/>
      <path id="Path_1277623" data-name="Path 1277623" d="M618.349,195.077l2.2-.054c1.606.04,4.714.3,5.868,1.535.146.946.146.913-.42,1.687-1.394.48-2.918-.276-4.367-.47a36.1,36.1,0,0,0-4.071-.163,12.33,12.33,0,0,0-3.757.969c-.837.42-1.471,1.068-2.347,1.44l-.575-.785L611,198.5a12.875,12.875,0,0,1,7.346-3.426" transform="translate(-419.706 -133.992)" fill="#0f1a4f"/>
      <path id="Path_1277624" data-name="Path 1277624" d="M755.957,194.918a12.392,12.392,0,0,1,7.483,1.239c.966.518,2.536,1.549,2.873,2.639l-1.046.962-2.618-1.55a12.849,12.849,0,0,0-6.166-.5c-1.735.28-2.884,1.274-4.576.5a1.926,1.926,0,0,1-.388-1.683,3.145,3.145,0,0,1,1.362-.877Z" transform="translate(-516.311 -133.845)" fill="#0f1a4f"/>
      <path id="Path_1277626" data-name="Path 1277626" d="M620.425,222.61a4.716,4.716,0,0,1-.647-3.337,5.033,5.033,0,0,1,2.31-3.219,5.7,5.7,0,0,1,4.485-.651,5.932,5.932,0,0,1,3.837,2.752,4.764,4.764,0,0,1,.4,3.9,5.857,5.857,0,0,1-2.589,3.749,5.147,5.147,0,0,1-4.213.635,4.323,4.323,0,0,1-2.741-2.067Z" transform="translate(-425.778 -147.868)" fill="#fff"/>
      <path id="Path_1277654" data-name="Path 1277654" d="M620.425,222.61a4.716,4.716,0,0,1-.647-3.337,5.033,5.033,0,0,1,2.31-3.219,5.7,5.7,0,0,1,4.485-.651,5.932,5.932,0,0,1,3.837,2.752,4.764,4.764,0,0,1,.4,3.9,5.857,5.857,0,0,1-2.589,3.749,5.147,5.147,0,0,1-4.213.635,4.323,4.323,0,0,1-2.741-2.067Z" transform="translate(-383.445 -147.868)" fill="#fff"/>
      <path id="Path_1277627" data-name="Path 1277627" d="M621.985,229.482l.488-1.594a4.749,4.749,0,0,1,2.537-2.461,3.218,3.218,0,0,1,2.578.132,4.53,4.53,0,0,0,0,2.6,3.253,3.253,0,0,0,1.76,1.613,4.61,4.61,0,0,0,3.014-.845,5.857,5.857,0,0,1-2.589,3.749,5.147,5.147,0,0,1-4.213.635,4.323,4.323,0,0,1-2.741-2.067Z" transform="translate(-427.338 -154.74)" fill="#0f1a4f"/>
      <path id="Path_1277628" data-name="Path 1277628" d="M775.659,323.054c1.216.022,5.157-.261,5.97.591a3.772,3.772,0,0,1,.987,1.553,19.245,19.245,0,0,0-.086,2.72c-.079,1.162.02,2.287-1,3.09-1.39,1.1-7.022.567-8.942.569-1.416.038-3.67.349-4.854-.5a2.309,2.309,0,0,1-1.037-1.438c-.262-1.864-.364-4.582.767-6.093,1.69-1.042,6.123-.5,8.192-.493" transform="translate(-526.649 -221.855)" fill="#152353"/>
      <path id="Path_1277629" data-name="Path 1277629" d="M672.519,302.395l21.843-.01c-.678,2.537-1.265,4.266-3.137,6.193a10.983,10.983,0,0,1-5.036,2.623,12.127,12.127,0,0,1-9.135-1.434c-2.808-1.873-3.9-4.177-4.535-7.373" transform="translate(-462.058 -207.755)" fill="#f017a9"/>
      <path id="Path_1277630" data-name="Path 1277630" d="M795.7,272.75c1.242-2.06,3.223-3.858,4.639-5.855,3.833-5.4,5.474-10.95,7.346-17.206a48.647,48.647,0,0,1,.168,7.145,35.322,35.322,0,0,1-.2,6.262,4.449,4.449,0,0,0,2.456,1.73c3.166.116,7.25.7,10.3-.133l.294.155c.188,1.383-.71,2.975-1.555,4.086a15.7,15.7,0,0,1-10.39,5.82,25.341,25.341,0,0,1-6.1.139,3.769,3.769,0,0,0-.987-1.553c-.812-.852-4.754-.569-5.97-.591" transform="translate(-546.692 -171.551)" fill="#fff"/>
      <path id="Path_1277631" data-name="Path 1277631" d="M642.375,371.091l-.025-6.5c4.627,2.6,9.533,4.878,14.834,5.642,9.362,1.351,17.543-1.4,25.019-6.925-.031,2.349-.7,11.224.31,12.867.032,3.325-3.529,6.649-5.584,9.015a51.935,51.935,0,0,0-6.887-.067,31.33,31.33,0,0,1-5.825-.764c-8.551-1.809-16.939-5.726-21.842-13.271" transform="translate(-441.33 -249.615)" fill="#e79f7f"/>
      <path id="Path_1277632" data-name="Path 1277632" d="M567.925,410.7c4.912-1.077,9.9-3.736,14.582-5.681a32.459,32.459,0,0,1,5.117-1.942l.546.68a17.276,17.276,0,0,0,3.262,5.575c3.7,4.915,8.28,9.831,13.658,12.928l2.333,1.153.529.128c5.851-1.387,11.324-6.869,15.313-11.028,2.055-2.366,5.616-5.689,5.584-9.015l12.338,4.132,5.741,1.832a7.861,7.861,0,0,1,2.681,1.155,5.8,5.8,0,0,1,2.885,1.017,112.419,112.419,0,0,1,23.572,7.972,30.717,30.717,0,0,1,5.866,3.13,51.362,51.362,0,0,1,15.305,13.2,10.7,10.7,0,0,1,2.011,2.988l.026.173c2.819,2.439,5.1,7.6,6.85,10.907.462.876,1.512,2.474,1.575,3.421l.007.213a2.666,2.666,0,0,1,.674,1.6c1.383,1.585,2.126,3.967,2.965,5.9l6.322,16.341c.522,1.488,1.813,4.077,1.71,5.546l-.026.178c1.66,2.693,2.407,6.563,3.308,9.621,1.727,5.882,3.909,12.132,4.688,18.214a25.156,25.156,0,0,1-.238,9.055c-1.169,5.078-3.829,9.547-8.339,12.294a8.727,8.727,0,0,1-3.519,1.562,1.764,1.764,0,0,1-.03-1.2,19.208,19.208,0,0,0-5.091,2.542l-34.169-.013a9.447,9.447,0,0,0,1.6-1.318,2.286,2.286,0,0,0,.766-2.148l.126-.263a4.348,4.348,0,0,0-.145-3.244c.812-1.266.452-4,.452-5.5l-.112-14.085a17.506,17.506,0,0,0,6.424-1.446c-.934-2.471-4.992-17.111-6.537-17.95.746-2.188.261-6.1.264-8.48l-.013-13.81c-.01-2.059.33-4.894-.367-6.8a4.6,4.6,0,0,0,.29-1.443,3.7,3.7,0,0,0-1.165-2.9,1.518,1.518,0,0,0-.076-.438c-.254-.792-.786-.968-1.449-1.352l-.089-.54-1.36-.689a2.96,2.96,0,0,0-1.39-.507c-2.238-.226-4.625-.07-6.88-.073l-12.562,0-40.827.025-6.63-.052-.467.117-3.066-.072-.235-17.112c-1.951,2.875-5.211,7.8-8.581,8.844a9.372,9.372,0,0,1-6.8-1.062c-9.119-5.027-19.976-21.634-22.895-31.612Z" transform="translate(-387.664 -276.94)" fill="#7fe5cf"/>
      <path id="Path_1277633" data-name="Path 1277633" d="M698.588,552.2c.269-1.036.464-2.563,1.438-3.148a3.151,3.151,0,0,1,4.526,1.12,8.211,8.211,0,0,1,.667,2.08Z" transform="translate(-479.969 -376.865)" fill="#fff"/>
      <path id="Path_1277634" data-name="Path 1277634" d="M701.534,513.52l.761,0a3.368,3.368,0,0,1,2.759,1.1c.792.885.68,1.8.6,2.9a5.385,5.385,0,0,1-2.04,2.139l-.7.007a3.369,3.369,0,0,1-2.564-1.066,3.586,3.586,0,0,1-.765-2.841,4.453,4.453,0,0,1,1.949-2.235" transform="translate(-480.645 -352.813)" fill="#fff"/>
      <path id="Path_1277635" data-name="Path 1277635" d="M916.8,531.866l.158-.163a11.775,11.775,0,0,0,1.816-3.688l2.951-7.181a10.16,10.16,0,0,1,1.294-2.8,86.652,86.652,0,0,1-1.935,12.09c-.281,1.466-.311,3.637-1.311,4.759a1.516,1.516,0,0,0-.076-.438c-.254-.792-.786-.968-1.449-1.352l-.089-.54Z" transform="translate(-629.894 -355.92)" fill="#589f8f"/>
      <path id="Path_1277636" data-name="Path 1277636" d="M115.656,160.8c-.383-1.329-.116-2.244-1.057-3.415a3.476,3.476,0,0,0-2.184-.34,10.872,10.872,0,0,0-1.055,4.343c-1.471.169-3.284.1-4.292,1.311-.218.263-.1,1.1-.091,1.474a5.28,5.28,0,0,0,.691.8c.667.456,3.408.458,3.636.731a7.317,7.317,0,0,1,.165.995c.287,1.689.26,2.327,1.773,3.3l1.413-.085a13.791,13.791,0,0,0,1.147-4.35c1.71-.228,3.369-.133,4.529-1.534a2.539,2.539,0,0,0-.633-1.773c-1.055-.713-3.731-.378-4.041-1.454" transform="translate(-73.473 -107.875)" fill="#7b267d"/>
      <path id="Path_1277637" data-name="Path 1277637" d="M1010.473,31.521a25.737,25.737,0,0,0-11.74-16.263c-8.412-5.189-18.062-5.994-27.57-3.758l.129.1c1.334.928,4.728.473,6.418.653a36.164,36.164,0,0,1,9.653,2.122,24.43,24.43,0,0,1,14.8,16.92c1.281,5.824-.069,11.255-3.295,16.208-3.3,5.071-9.9,9.259-15.764,10.52a35.846,35.846,0,0,1-10.574.593,31.92,31.92,0,0,1-5.1-.9c-1.449-.378-3.017-1.2-4.49-.75l2.311,1.263-3.49,8.281,8.188-4.043a15.531,15.531,0,0,1,2.819-1.4c.934-.18,3.064.472,4.114.579a32.094,32.094,0,0,0,10.281-.422c7.784-1.73,15.447-5.866,19.769-12.8,3.077-4.937,4.912-11.087,3.539-16.894" transform="translate(-660.786 -7.095)" fill="#897f9d"/>
      <path id="Path_1277638" data-name="Path 1277638" d="M211.261,294.075l-1.6-2.379a26.646,26.646,0,0,0,13.463-12.715c2.905-5.819,2.568-11.6.557-17.572a32.15,32.15,0,0,0-3.573-6.056c-5.148-6.566-13.447-10.154-21.575-11.091-8.884-1.024-19.742.919-26.938,6.559l.863.325c8.26-4.052,17.649-5.376,26.514-2.325,5.407,1.861,10.662,5.8,13.187,11.023a19.32,19.32,0,0,1,.788,15.4c-1.968,5.515-6.476,9.537-11.681,11.95-8.538,3.958-17.426,3.837-26.16.548a32.575,32.575,0,0,1-4.992-2.416,11.867,11.867,0,0,0-2.392-1.36c-.155-.017-.286.128-.429.192,4.246,4.965,9.566,7.738,15.6,9.952a46.057,46.057,0,0,0,13.571,1.422c1.373-.062,4.032-.876,5.224-.624a17.5,17.5,0,0,1,3.1,1.548c3.757,1.877,7.753,4.375,11.655,5.874Z" transform="translate(-114.942 -167.641)" fill="#897f9d"/>
      <path id="Path_1277639" data-name="Path 1277639" d="M329.486,718.657a18.3,18.3,0,0,0-5.737,12.5c-.072,2.793.849,4.918,1.531,7.541a15.292,15.292,0,0,0,9.365,6.923l3.092.454c-4.036-2.621-7.992-5.522-9.169-10.529-1.05-4.465.158-8.12,2.521-11.914a18.29,18.29,0,0,1,4.9-4.172c5.969-3.4,12.209-2.579,18.549-.8a16.92,16.92,0,0,0-11.974-5.076,18.461,18.461,0,0,0-13.077,5.071" transform="translate(-222.431 -490.268)" fill="#589f8f"/>
      <path id="Path_1277640" data-name="Path 1277640" d="M437.686,505.319c2.034,6.817,3.967,13.223,4.526,20.358-.092,11.213-4.576,22.825-8.29,33.335-2.035,5.757-4,11.55-6.439,17.152,2.888.912,6.313,1.625,9,2.956l6.414-16.7c.629-2.313.187-5.973.193-8.445l-.035-19.226.3-7.411c.3-2.151,1.445-2.987,3.114-4.248a105.3,105.3,0,0,0-5.319-12.448c-1.018-1.855-2.3-3.556-3.462-5.323" transform="translate(-293.704 -347.182)" fill="#589f8f"/>
      <path id="Path_1277641" data-name="Path 1277641" d="M990.688,709.634a18.863,18.863,0,0,0-14.411-.386c-1.822.626-3.529,1.552-5.338,2.225-1.063,1.223-4.031,2.479-4.311,4.045,8.1-1.133,16.534-5.11,23.935.613a4.839,4.839,0,0,1,2.139,2.615c1.188.4,1.825,1.741,2.364,2.81a16.426,16.426,0,0,1,1.033,12.023,23.554,23.554,0,0,1-4.681,8.215l.327.176a15.961,15.961,0,0,0,7.408-7.5,18.664,18.664,0,0,0,.7-14.806,16.965,16.965,0,0,0-9.161-10.034" transform="translate(-664.127 -486.441)" fill="#589f8f"/>
      <path id="Path_1277642" data-name="Path 1277642" d="M945.158,627.476l-10.5-27.811c-1.505-4.2-2.747-8.743-4.589-12.794a2.972,2.972,0,0,0-.967-1.118c.7,1.906.356,4.742.366,6.8l.013,13.81c0,2.384.482,6.292-.264,8.48,1.545.839,5.6,15.48,6.537,17.951a17.522,17.522,0,0,0,5.091-1.273c.281-1.567,3.249-2.823,4.312-4.045" transform="translate(-638.346 -402.445)" fill="#589f8f"/>
      <path id="Path_1277643" data-name="Path 1277643" d="M649.607,427.179a16.847,16.847,0,0,1-2.05,4.565c-3.952,7.549-9.122,15.181-16.107,20.227-2.447,1.768-5.764,3.844-8.913,3.37-4.056-.611-7.459-5.645-9.767-8.7l-4.618-6.252-.2-.291-.529-.128L598.91,450.69c-1.323,1.559-3.023,3.715-4.964,4.474a6.39,6.39,0,0,1-4.742-.43c-2.758-1.249-5.345-3.779-7.408-5.951a65.391,65.391,0,0,1-13.87-21.523l-3.686.675c2.919,9.978,13.776,26.585,22.895,31.612a9.372,9.372,0,0,0,6.8,1.062c3.37-1.041,6.63-5.969,8.581-8.844l.235,17.112,3.067.072a144.179,144.179,0,0,1,.973-23.85l6.373,7.874c1.8,2.228,3.748,4.782,6.133,6.414a8.019,8.019,0,0,0,6.2,1.232,18,18,0,0,0,6.685-3.359,54.27,54.27,0,0,0,13.3-14.627,101.583,101.583,0,0,0,6-10.912,11.848,11.848,0,0,0,1.192-2.69,4.127,4.127,0,0,0-.182-.835,5.8,5.8,0,0,0-2.885-1.017" transform="translate(-387.664 -293.496)" fill="#589f8f"/>
      <path id="Path_1277644" data-name="Path 1277644" d="M576.018,410.7c4.912-1.077,9.9-3.736,14.582-5.681a32.458,32.458,0,0,1,5.117-1.942l.546.68a17.275,17.275,0,0,0,3.262,5.575c3.7,4.915,8.28,9.831,13.657,12.928l2.333,1.153L607,434.135c-1.323,1.559-3.023,3.715-4.964,4.474a6.39,6.39,0,0,1-4.742-.43c-2.758-1.249-5.345-3.779-7.408-5.951a65.4,65.4,0,0,1-13.87-21.523" transform="translate(-395.757 -276.94)" fill="#3f7266"/>
      <path id="Path_1277645" data-name="Path 1277645" d="M724.812,404.428l12.338,4.132,5.741,1.832a7.863,7.863,0,0,1,2.681,1.155,16.858,16.858,0,0,1-2.05,4.565c-3.952,7.549-9.122,15.181-16.107,20.227-2.447,1.768-5.764,3.844-8.913,3.37-4.056-.611-7.459-5.645-9.767-8.7l-4.618-6.252-.2-.291c5.851-1.387,11.324-6.869,15.313-11.028,2.055-2.366,5.616-5.689,5.584-9.015" transform="translate(-483.629 -277.865)" fill="#3f7266"/>
      <path id="Path_1277646" data-name="Path 1277646" d="M935.439,726.733c8.1-1.133,16.533-5.11,23.935.613a4.839,4.839,0,0,1,2.139,2.615c1.189.4,1.826,1.74,2.364,2.81a16.426,16.426,0,0,1,1.033,12.023,23.556,23.556,0,0,1-4.681,8.215l.327.176-.063.293a19.209,19.209,0,0,0-5.091,2.542l-34.169-.013a9.451,9.451,0,0,0,1.6-1.318,2.286,2.286,0,0,0,.766-2.148l.125-.263a4.348,4.348,0,0,0-.145-3.244c.812-1.266.452-4,.452-5.5l-.112-14.085a251.026,251.026,0,0,0,11.515-2.718" transform="translate(-632.939 -497.656)" fill="#fbc0a2"/>
      <path id="Path_1277647" data-name="Path 1277647" d="M961.513,742.322c1.189.4,1.826,1.74,2.364,2.81a16.426,16.426,0,0,1,1.033,12.023,23.556,23.556,0,0,1-4.681,8.215l.327.176-.063.293a19.207,19.207,0,0,0-5.091,2.542l-34.169-.013a9.45,9.45,0,0,0,1.6-1.318,2.286,2.286,0,0,0,.766-2.148c10.277.2,23.985-2.777,31.71-10.044,3.545-3.335,6.045-7.545,6.2-12.535" transform="translate(-632.939 -510.017)" fill="#e79f7f"/>
      <path id="Path_1277648" data-name="Path 1277648" d="M532.083,560l6.63.052,40.827-.025,12.562,0c2.255,0,4.642-.153,6.88.073a2.959,2.959,0,0,1,1.39.507l1.36.689.089.54c.663.383,1.2.559,1.449,1.352a1.529,1.529,0,0,1,.076.439,3.7,3.7,0,0,1,1.165,2.9,4.612,4.612,0,0,1-.29,1.443c.7,1.906.356,4.742.367,6.8l.013,13.81c0,2.384.482,6.292-.264,8.48,1.545.839,5.6,15.479,6.537,17.951a17.513,17.513,0,0,1-6.424,1.446l.112,14.085c0,1.5.36,4.231-.452,5.5a4.347,4.347,0,0,1,.145,3.244l-.125.263a2.285,2.285,0,0,1-.766,2.148,9.434,9.434,0,0,1-1.6,1.318c-4.8.609-10.211.156-15.064.176l-33.347.04-56.283-.088-31.195-.083-1.975-1.441c-1.177-1.941-.859-4.355-.824-6.545L463,630.412c-.524-3.511-.133-7.722-.157-11.309l-6.6-2.5,6.414-16.7c.629-2.313.187-5.973.193-8.445l-.035-19.226.3-7.41c.3-2.152,1.446-2.987,3.114-4.248a5.412,5.412,0,0,1,1.722-.493c6.525-.44,13.335-.033,19.893-.034h40.708l3.066.072Z" transform="translate(-313.464 -384.667)" fill="#c3bfc2"/>
      <path id="Path_1277649" data-name="Path 1277649" d="M462.654,687.78c.564,2.073.277,4.638.26,6.788l-.076,12.411-6.6-2.5Z" transform="translate(-313.462 -472.543)" fill="#fff"/>
      <path id="Path_1277650" data-name="Path 1277650" d="M685.167,668.258a10.388,10.388,0,0,1,3.617.13l1.023.37a7.393,7.393,0,0,1,3.657,10.212c-1.135,2.346-3.214,3.345-5.547,4.176a9.725,9.725,0,0,1-3.87-.337,7.98,7.98,0,0,1-4.389-4.25,7.136,7.136,0,0,1-.1-5.623c1.1-2.541,3.148-3.68,5.6-4.677" transform="translate(-466.532 -459.067)" fill="#fff"/>
      <path id="Path_1277651" data-name="Path 1277651" d="M616.651,566.156c.663.383,1.2.559,1.449,1.352a1.526,1.526,0,0,1,.076.438,3.7,3.7,0,0,1,1.165,2.9,4.608,4.608,0,0,1-.29,1.443c.7,1.906.356,4.742.366,6.8l.013,13.81c0,2.384.482,6.292-.264,8.48,1.545.839,5.6,15.479,6.537,17.95a17.514,17.514,0,0,1-6.424,1.446l.112,14.085c0,1.5.36,4.231-.452,5.5a4.346,4.346,0,0,1,.145,3.244l-.125.264a2.285,2.285,0,0,1-.766,2.148,9.435,9.435,0,0,1-1.6,1.318c-4.8.609-10.211.156-15.064.176l-33.347.04-56.283-.088-31.195-.083-1.975-1.441c-1.177-1.941-.859-4.355-.824-6.545l-.074-4.665.222-.7c3.3-.778,6.774-.379,10.136-.452l12.926-.712c41.386-3.656,79.535-21.375,106.425-53.508,1.733-2.07,9.3-11.057,9.115-13.2" transform="translate(-328.294 -388.981)" fill="#9c9c9b"/>
      <path id="Path_1277652" data-name="Path 1277652" d="M929.472,678.712c1.545.839,5.6,15.479,6.537,17.951a17.514,17.514,0,0,1-6.424,1.446c.466-2.579.125-5.762.129-8.4,0-3.391.512-7.714-.241-10.995" transform="translate(-638.599 -466.313)" fill="#b50c9f"/>
      <path id="Path_1277653" data-name="Path 1277653" d="M477.919,800.175c3.013,1.518,8.995.768,12.412.778l19.487.03c9.352.007,108.45-.382,109.14.158a4.347,4.347,0,0,1,.145,3.244l-.125.263a2.285,2.285,0,0,1-.766,2.148,9.436,9.436,0,0,1-1.6,1.318c-4.8.609-10.211.156-15.064.176l-33.347.04-56.283-.088-31.195-.083-1.975-1.441c-1.177-1.941-.859-4.355-.824-6.545" transform="translate(-328.312 -549.765)" fill="#747474"/>
      <path id="Path_1277625" data-name="Path 1277625" d="M766.963,227.894a4.259,4.259,0,0,1-.781,2.334,5.679,5.679,0,0,1-3.653,2.388,5.6,5.6,0,0,1-3.813-.935,4.943,4.943,0,0,1-1.981-3.318,3.959,3.959,0,0,1,.948-2.819c1.135-1.311,2.308-1.531,3.965-1.618-.044,1.425-.242,2.994.825,4.123.844.894,1.742.849,2.87.821Z" transform="translate(-519.908 -153.85)" fill="#0f1a4f"/>
      <path id="Path_1277622" data-name="Path 1277622" d="M772.374,220.327c.4-.373,1.073-.838,1.205-1.384a2.789,2.789,0,0,1,2.077-.108,2.731,2.731,0,0,1,1.858,1.352,5.442,5.442,0,0,1,.363,3.651l-.188.458-1.62.977c-1.128.028-2.026.073-2.87-.821-1.067-1.13-.869-2.7-.825-4.124" transform="translate(-530.635 -150.25)" fill="#fff"/>
    </g>
  </g>
</svg>
