<svg xmlns="http://www.w3.org/2000/svg" xmlns:xlink="http://www.w3.org/1999/xlink" width="104" height="104" viewBox="0 0 104 104">
  <defs>
    <clipPath id="clip-path">
      <rect id="Rectangle_411433" data-name="Rectangle 411433" width="101.688" height="101.691" transform="translate(0 0)" fill="none"/>
    </clipPath>
  </defs>
  <g id="Group_1207847" data-name="Group 1207847" transform="translate(1980 -1341)">
    <rect id="Rectangle_411439" data-name="Rectangle 411439" width="104" height="104" transform="translate(-1980 1341)" fill="none"/>
    <g id="Group_1207842" data-name="Group 1207842" transform="translate(-1980 1340.999)">
      <g id="Group_1207841" data-name="Group 1207841" transform="translate(0 0.001)" clip-path="url(#clip-path)">
        <path id="Path_1277735" data-name="Path 1277735" d="M57.255,8.017A49.255,49.255,0,1,1,8,57.272,49.255,49.255,0,0,1,57.255,8.017" transform="translate(-6.411 -6.425)" fill="#e0c3aa"/>
        <path id="Path_1277736" data-name="Path 1277736" d="M57.257,290.889a49.257,49.257,0,0,1-49.2-46.872,49.255,49.255,0,1,0,98.395,0,49.257,49.257,0,0,1-49.2,46.872" transform="translate(-6.413 -195.553)" fill="#d0a37f"/>
        <path id="Path_1277737" data-name="Path 1277737" d="M130.115,84.214A1.589,1.589,0,0,1,128.9,81.6,47.668,47.668,0,1,0,54.812,21.634a1.589,1.589,0,0,1-2.536-1.915l.027-.035a50.845,50.845,0,1,1,79.02,63.97,1.589,1.589,0,0,1-1.21.56" transform="translate(-41.637 -0.001)"/>
        <path id="Path_1277738" data-name="Path 1277738" d="M50.844,204.279a50.858,50.858,0,0,1-44.5-75.447,1.59,1.59,0,1,1,2.781,1.541A47.671,47.671,0,0,0,81.6,189.856a1.589,1.589,0,0,1,2.112,2.374l-.062.053a50.87,50.87,0,0,1-32.8,12" transform="translate(0 -102.588)"/>
        <path id="Path_1277739" data-name="Path 1277739" d="M57.255,104.017c27.2,0,49.255,13.516,49.255,30.188s-22.052,30.188-49.255,30.188S8,150.878,8,134.205s22.052-30.188,49.255-30.188" transform="translate(-6.411 -83.359)" fill="#f6f6f6"/>
        <path id="Path_1277740" data-name="Path 1277740" d="M57.255,108.784c19.785,0,39.469,11.3,48.1,27.805q.614-1.174,1.154-2.383c-7.917-17.787-28.53-30.188-49.255-30.188S15.917,116.418,8,134.205q.54,1.21,1.154,2.383c8.632-16.5,28.316-27.805,48.1-27.805" transform="translate(-6.411 -83.359)" fill="#dcdcdc"/>
        <path id="Path_1277741" data-name="Path 1277741" d="M18.846,210.6A46.559,46.559,0,0,1,8,195.632a46.559,46.559,0,0,1,10.846-14.965A52.075,52.075,0,0,0,18.846,210.6Z" transform="translate(-6.411 -144.785)" fill="#e38499"/>
        <path id="Path_1277742" data-name="Path 1277742" d="M17.575,185.875a52.208,52.208,0,0,1,1.271-5.208A46.559,46.559,0,0,0,8,195.632q.447,1,.949,1.986a46.714,46.714,0,0,1,8.626-11.744" transform="translate(-6.411 -144.785)" fill="#db4e6c"/>
        <path id="Path_1277743" data-name="Path 1277743" d="M460.236,195.632A46.56,46.56,0,0,1,449.39,210.6a52.065,52.065,0,0,0,0-29.93,46.559,46.559,0,0,1,10.846,14.965" transform="translate(-360.137 -144.785)" fill="#e38499"/>
        <path id="Path_1277744" data-name="Path 1277744" d="M459.287,197.618q.5-.981.949-1.986a46.559,46.559,0,0,0-10.846-14.965,51.812,51.812,0,0,1,1.273,5.208A46.793,46.793,0,0,1,459.287,197.618Z" transform="translate(-360.137 -144.785)" fill="#db4e6c"/>
        <path id="Path_1277745" data-name="Path 1277745" d="M50.844,159.572c-21.313,0-42.53-12.761-50.707-31.132a1.589,1.589,0,0,1,0-1.291c8.181-18.379,29.4-31.132,50.707-31.132s42.53,12.761,50.707,31.132a1.589,1.589,0,0,1,0,1.291c-8.181,18.379-29.4,31.132-50.707,31.132M3.335,127.794c7.881,16.868,27.686,28.6,47.509,28.6,19.692,0,39.575-11.615,47.509-28.6-7.881-16.868-27.686-28.6-47.509-28.6-19.692,0-39.575,11.615-47.509,28.6" transform="translate(0 -76.947)"/>
        <path id="Path_1277746" data-name="Path 1277746" d="M159.833,136.017A23.833,23.833,0,1,1,136,159.85a23.833,23.833,0,0,1,23.833-23.833" transform="translate(-108.989 -109.003)" fill="#a8edfd"/>
        <path id="Path_1277747" data-name="Path 1277747" d="M159.832,266.066a23.833,23.833,0,0,1-23.724-21.549,23.833,23.833,0,1,0,47.448,0,23.833,23.833,0,0,1-23.724,21.549" transform="translate(-108.989 -195.954)" fill="#8bd4de"/>
        <path id="Path_1277748" data-name="Path 1277748" d="M153.422,178.861a25.422,25.422,0,1,1,25.422-25.422,25.422,25.422,0,0,1-25.422,25.422m0-47.666a22.244,22.244,0,1,0,22.244,22.244,22.244,22.244,0,0,0-22.244-22.244" transform="translate(-102.578 -102.592)"/>
        <path id="Path_1277749" data-name="Path 1277749" d="M204.711,192.017A12.711,12.711,0,1,1,192,204.728a12.711,12.711,0,0,1,12.711-12.711" transform="translate(-153.867 -153.881)" fill="#596060"/>
        <path id="Path_1277750" data-name="Path 1277750" d="M204.7,254.345a12.711,12.711,0,0,1-12.485-10.328,12.711,12.711,0,1,0,24.969,0A12.711,12.711,0,0,1,204.7,254.345Z" transform="translate(-153.858 -195.553)" fill="#4c5657"/>
        <path id="Path_1277751" data-name="Path 1277751" d="M198.3,212.617a14.3,14.3,0,1,1,14.3-14.3,14.3,14.3,0,0,1-14.3,14.3m0-25.422a11.122,11.122,0,1,0,11.122,11.122A11.122,11.122,0,0,0,198.3,187.195" transform="translate(-147.456 -147.47)"/>
        <path id="Path_1277752" data-name="Path 1277752" d="M268.767,192.017A4.767,4.767,0,1,1,264,196.784a4.767,4.767,0,0,1,4.767-4.767" transform="translate(-211.567 -153.881)" fill="#f6f6f6"/>
        <path id="Path_1277753" data-name="Path 1277753" d="M262.355,196.728a6.355,6.355,0,1,1,6.355-6.355,6.355,6.355,0,0,1-6.355,6.355m0-9.533a3.178,3.178,0,1,0,3.178,3.178,3.178,3.178,0,0,0-3.178-3.178" transform="translate(-205.156 -147.47)"/>
        <path id="Path_1277754" data-name="Path 1277754" d="M47.305,205.859a1.589,1.589,0,0,1-1.521-1.132,53.5,53.5,0,0,1-.012-30.808,1.59,1.59,0,1,1,3.055.888,50.34,50.34,0,0,0,0,29.017,1.589,1.589,0,0,1-1.521,2.036" transform="translate(-34.871 -138.458)"/>
        <path id="Path_1277755" data-name="Path 1277755" d="M442.979,205.793a1.589,1.589,0,0,1-1.521-2.046c4.854-16.181-.068-28.482-.068-29.473a1.589,1.589,0,0,1,3.126-.4,53.513,53.513,0,0,1-.016,30.784A1.589,1.589,0,0,1,442.979,205.793Z" transform="translate(-353.726 -138.393)"/>
      </g>
    </g>
  </g>
</svg>
