<svg xmlns="http://www.w3.org/2000/svg" xmlns:xlink="http://www.w3.org/1999/xlink" width="104" height="104.176" viewBox="0 0 104 104.176">
  <defs>
    <clipPath id="clip-path">
      <rect id="Rectangle_411421" data-name="Rectangle 411421" width="95.152" height="99.984" fill="none"/>
    </clipPath>
  </defs>
  <g id="Group_1207850" data-name="Group 1207850" transform="translate(2310 -1154)">
    <rect id="Rectangle_411385" data-name="Rectangle 411385" width="104" height="104" transform="translate(-2310 1154)" fill="none"/>
    <g id="Group_1207831" data-name="Group 1207831" transform="translate(-2310 1158.191)">
      <g id="Group_1207830" data-name="Group 1207830" clip-path="url(#clip-path)">
        <path id="Path_1277673" data-name="Path 1277673" d="M89.461,41.124l-30-2.175a13.1,13.1,0,0,0-10.209,3.8L18,74A13.1,13.1,0,0,0,18,92.52L50.182,124.7a13.1,13.1,0,0,0,18.524,0L99.951,93.453a13.1,13.1,0,0,0,3.8-10.209l-2.175-30A13.1,13.1,0,0,0,89.461,41.124Z" transform="translate(-11.401 -31.315)" fill="#29ce69"/>
        <path id="Path_1277674" data-name="Path 1277674" d="M48.043,119.89a15.761,15.761,0,0,1-11.219-4.648L4.648,83.066a15.864,15.864,0,0,1,0-22.438L35.893,29.383a15.853,15.853,0,0,1,12.365-4.6l30,2.177A15.863,15.863,0,0,1,92.935,41.631l2.175,30A15.853,15.853,0,0,1,90.505,84L59.26,115.244A15.76,15.76,0,0,1,48.043,119.89Zm-.935-89.619A10.322,10.322,0,0,0,39.8,33.3L8.559,64.543a10.343,10.343,0,0,0,0,14.611l32.179,32.179a10.334,10.334,0,0,0,14.611,0L86.594,80.088a10.326,10.326,0,0,0,3-8.051L87.416,42.031a10.39,10.39,0,0,0-9.557-9.557l-30-2.175C47.606,30.281,47.356,30.271,47.108,30.271Z" transform="translate(0 -19.906)"/>
        <path id="Path_1277675" data-name="Path 1277675" d="M362.608,86.66a6.788,6.788,0,1,1-6.788,6.788,6.788,6.788,0,0,1,6.788-6.788" transform="translate(-286.335 -69.737)" fill="#ffde50"/>
        <path id="Path_1277676" data-name="Path 1277676" d="M351.221,91.6a9.554,9.554,0,1,1,6.757-2.8,9.493,9.493,0,0,1-6.757,2.8m0-13.576a4.02,4.02,0,1,0,2.843,1.178,3.994,3.994,0,0,0-2.843-1.178" transform="translate(-274.948 -58.334)"/>
        <path id="Path_1277677" data-name="Path 1277677" d="M379.177,26.478a2.766,2.766,0,0,1-2.767-2.767V2.767a2.767,2.767,0,1,1,5.534,0V23.711a2.766,2.766,0,0,1-2.767,2.767" transform="translate(-302.904 0)"/>
        <path id="Path_1277678" data-name="Path 1277678" d="M153.285,213.4a11.01,11.01,0,0,1-7.811-3.23l-5.487-5.487a11.07,11.07,0,0,1,0-15.623,2.767,2.767,0,0,1,3.913,3.913,5.517,5.517,0,0,0,0,7.8l5.487,5.487a5.512,5.512,0,0,0,7.8-7.8l-5.487-5.487a11.047,11.047,0,0,1,15.623-15.623l5.487,5.487a11.058,11.058,0,0,1,0,15.623,2.767,2.767,0,0,1-3.913-3.913,5.517,5.517,0,0,0,0-7.8l-5.487-5.487a5.512,5.512,0,0,0-7.8,7.8l5.487,5.487a11.041,11.041,0,0,1-7.811,18.853Z" transform="translate(-110.053 -140.113)"/>
        <path id="Path_1277679" data-name="Path 1277679" d="M145.809,217.249a2.767,2.767,0,0,1-1.957-4.724l31.282-31.282a2.767,2.767,0,1,1,3.913,3.913l-31.282,31.282a2.756,2.756,0,0,1-1.957.81" transform="translate(-115.109 -145.197)"/>
      </g>
    </g>
  </g>
</svg>
