<svg xmlns="http://www.w3.org/2000/svg" xmlns:xlink="http://www.w3.org/1999/xlink" width="104" height="104" viewBox="0 0 104 104">
  <defs>
    <clipPath id="clip-path">
      <rect id="Rectangle_411445" data-name="Rectangle 411445" width="103.852" height="103.852" transform="translate(0 0)" fill="none"/>
    </clipPath>
  </defs>
  <g id="Group_1207854" data-name="Group 1207854" transform="translate(2258 -1217)">
    <g id="Group_1207853" data-name="Group 1207853" transform="translate(-2257.852 1217.144)">
      <g id="Group_1207852" data-name="Group 1207852" transform="translate(0 0.004)" clip-path="url(#clip-path)">
        <path id="Path_1277772" data-name="Path 1277772" d="M61.634,35.821A25.817,25.817,0,1,0,35.817,61.638H60.4L53.69,54.45a25.741,25.741,0,0,0,7.944-18.629" transform="translate(-8.479 -8.483)" fill="#b7e546" stroke="#000" stroke-linejoin="round" stroke-width="3"/>
        <path id="Path_1277773" data-name="Path 1277773" d="M146.763,72.347a25.752,25.752,0,0,0-8.631-19.263,28.446,28.446,0,0,1-24.419,43.029,28.718,28.718,0,0,1-3.31-.193,25.727,25.727,0,0,0,10.543,2.245h24.588l-6.715-7.188a25.741,25.741,0,0,0,7.944-18.629" transform="translate(-93.608 -45.009)" fill="#abd641"/>
        <rect id="Rectangle_411441" data-name="Rectangle 411441" width="32.784" height="8.196" transform="translate(65.859 69.138)" fill="#f1f6f7" stroke="#000" stroke-linejoin="round" stroke-width="3"/>
        <rect id="Rectangle_411442" data-name="Rectangle 411442" width="4.712" height="8.196" transform="translate(93.93 69.138)" fill="#deecf1"/>
        <path id="Path_1277774" data-name="Path 1277774" d="M429.546,34.389a4.1,4.1,0,0,0-4.247,4.1v-4.2a4.162,4.162,0,0,0-3.948-4.194,4.1,4.1,0,0,0-4.247,4.1v-4a4.162,4.162,0,0,0-3.949-4.194,4.1,4.1,0,0,0-4.247,4.1V14.2a4.162,4.162,0,0,0-3.948-4.194,4.1,4.1,0,0,0-4.248,4.1V38.689a4.1,4.1,0,1,0-8.2,0v20.49a6.148,6.148,0,0,0,1.229,3.688l3.688,4.918a6.147,6.147,0,0,1,1.229,3.688V77.62h32.784V71.442a16.386,16.386,0,0,1,.49-3.976l1.07-4.281a16.4,16.4,0,0,0,.489-3.976V38.583a4.162,4.162,0,0,0-3.948-4.193" transform="translate(-332.803 -8.482)" fill="#fed2a4" stroke="#000" stroke-width="3"/>
        <path id="Path_1277775" data-name="Path 1277775" d="M620.257,170.286a4.074,4.074,0,0,0-2.517.756,4.244,4.244,0,0,1,1.753,3.437v20.628a16.393,16.393,0,0,1-.489,3.976l-1.07,4.281a16.385,16.385,0,0,0-.489,3.976v6.178h4.713v-6.178a16.388,16.388,0,0,1,.489-3.976l1.07-4.281a16.4,16.4,0,0,0,.489-3.976V174.48a4.162,4.162,0,0,0-3.948-4.193" transform="translate(-523.514 -144.38)" fill="#ffbd86"/>
        <path id="Path_1277776" data-name="Path 1277776" d="M504.364,139.048h0a4.1,4.1,0,0,1-4.1-4.1V119.176a4.1,4.1,0,0,1,8.2,0v15.775a4.1,4.1,0,0,1-4.1,4.1" transform="translate(-424.162 -97.572)" fill="#f6a96c" stroke="#000" stroke-linejoin="round" stroke-width="3"/>
        <path id="Path_1277777" data-name="Path 1277777" d="M558.238,161.888h0a4.1,4.1,0,0,1-4.1-4.1V146.113a4.1,4.1,0,1,1,8.2,0V157.79a4.1,4.1,0,0,1-4.1,4.1" transform="translate(-469.84 -120.411)" fill="#f6a96c" stroke="#000" stroke-linejoin="round" stroke-width="3"/>
        <path id="Path_1277778" data-name="Path 1277778" d="M612.115,185.87h0a4.1,4.1,0,0,1-4.1-4.1V174.4a4.1,4.1,0,0,1,8.2,0v7.374a4.1,4.1,0,0,1-4.1,4.1" transform="translate(-515.521 -144.394)" fill="#f6a96c" stroke="#000" stroke-linejoin="round" stroke-width="3"/>
        <rect id="Rectangle_411443" data-name="Rectangle 411443" width="40.16" height="24.998" transform="translate(62.171 77.333)" fill="#62a4fb" stroke="#000" stroke-linejoin="round" stroke-width="3"/>
        <rect id="Rectangle_411444" data-name="Rectangle 411444" width="5.737" height="24.998" transform="translate(96.594 77.333)" fill="#5392f9"/>
        <path id="Path_1277779" data-name="Path 1277779" d="M590.33,570.891a3.278,3.278,0,1,1-3.278-3.279,3.278,3.278,0,0,1,3.278,3.279" transform="translate(-494.965 -481.264)" fill="#ffd064"/>
        <path id="Path_1277780" data-name="Path 1277780" d="M158.157,267.5a3.278,3.278,0,1,0,3.278-3.278,3.278,3.278,0,0,0-3.278,3.278" transform="translate(-134.097 -224.029)" fill="#f1f6f7" stroke="#000" stroke-linejoin="round" stroke-width="3"/>
        <path id="Path_1277781" data-name="Path 1277781" d="M115.817,79.043a3.279,3.279,0,0,1-3.278-3.279V72.787a3.278,3.278,0,0,1,3.278-3.278,4.91,4.91,0,0,0,4.9-5.172,4.907,4.907,0,0,0-9.759-.423,5.029,5.029,0,0,0-.047.689,3.278,3.278,0,1,1-6.557,0,11.591,11.591,0,0,1,.11-1.594A11.465,11.465,0,1,1,119.1,75.582v.182a3.279,3.279,0,0,1-3.278,3.279" transform="translate(-88.479 -45.055)" fill="#f1f6f7" stroke="#000" stroke-linejoin="round" stroke-width="3"/>
      </g>
    </g>
    <rect id="Rectangle_411437" data-name="Rectangle 411437" width="104" height="104" transform="translate(-2258 1217)" fill="none"/>
  </g>
</svg>
