<svg xmlns="http://www.w3.org/2000/svg" width="58.443" height="84.266" viewBox="0 0 58.443 84.266">
  <g id="Group_1203480" data-name="Group 1203480" transform="translate(0.5 0)">
    <path id="Path_1241373" data-name="Path 1241373" d="M461.092,170.35h-35.91A7.185,7.185,0,0,0,418,177.532V220.15a7.185,7.185,0,0,0,7.182,7.182H441l15.2,17.955-2.629-17.9,7.541-.057a7.185,7.185,0,0,0,7.182-7.182V177.532a7.185,7.185,0,0,0-7.182-7.182Z" transform="translate(-410.345 -170.35)" fill="#5825b3" opacity="0.2"/>
    <g id="Group_1200394" data-name="Group 1200394" transform="translate(0 7.671)">
      <path id="Path_1241434" data-name="Path 1241434" d="M455.762,175.69h-35.91a7.185,7.185,0,0,0-7.182,7.182V225.49a7.185,7.185,0,0,0,7.182,7.182h15.815l15.2,17.955-2.629-17.9,7.541-.057a7.185,7.185,0,0,0,7.182-7.182V182.872a7.185,7.185,0,0,0-7.182-7.182Z" transform="translate(-412.67 -175.69)" fill="#fff" stroke="#20154c" stroke-miterlimit="10" stroke-width="1"/>
      <path id="Path_1278198" data-name="Path 1278198" d="M6.636.147a7.583,7.583,0,0,1-2.9-.525A4.724,4.724,0,0,1,1.691-1.932,4.246,4.246,0,0,1,.882-4.41H4.7a1.854,1.854,0,0,0,.567,1.25,1.823,1.823,0,0,0,1.26.431A1.971,1.971,0,0,0,7.791-3.1a1.229,1.229,0,0,0,.462-1.019,1.206,1.206,0,0,0-.367-.9,2.965,2.965,0,0,0-.9-.588A14.525,14.525,0,0,0,5.46-6.132a16.577,16.577,0,0,1-2.331-.882,4.307,4.307,0,0,1-1.554-1.3,3.628,3.628,0,0,1-.651-2.247,3.864,3.864,0,0,1,1.491-3.224A6.127,6.127,0,0,1,6.3-14.952a6.2,6.2,0,0,1,3.927,1.165,4.172,4.172,0,0,1,1.6,3.245H7.938a1.519,1.519,0,0,0-.525-1.123,1.849,1.849,0,0,0-1.239-.41,1.544,1.544,0,0,0-1.05.346,1.25,1.25,0,0,0-.4,1A1.236,1.236,0,0,0,5.4-9.618a11.016,11.016,0,0,0,2.1.861,19.421,19.421,0,0,1,2.321.924,4.418,4.418,0,0,1,1.543,1.281,3.429,3.429,0,0,1,.651,2.163A4.244,4.244,0,0,1,11.372-2.1,4.486,4.486,0,0,1,9.513-.462,6.362,6.362,0,0,1,6.636.147ZM18.122-12.936a2.177,2.177,0,0,1-1.544-.557,1.8,1.8,0,0,1-.6-1.375,1.827,1.827,0,0,1,.6-1.4,2.177,2.177,0,0,1,1.544-.557,2.148,2.148,0,0,1,1.522.557,1.827,1.827,0,0,1,.6,1.4,1.8,1.8,0,0,1-.6,1.375A2.148,2.148,0,0,1,18.122-12.936Zm1.785,1.218V0H16.316V-11.718Z" transform="translate(12.942 39.467)" fill="#d1026e"/>
    </g>
  </g>
</svg>
