<svg xmlns="http://www.w3.org/2000/svg" width="125.508" height="114.908" viewBox="0 0 125.508 114.908">
  <g id="Group_1203479" data-name="Group 1203479" transform="translate(0 0.5)">
    <path id="Path_1241370" data-name="Path 1241370" d="M561.527,220.39H662.549A6.608,6.608,0,0,1,669.156,227v52.83a6.608,6.608,0,0,1-6.607,6.607H618.724l17.524,38.309-32.563-38.309H561.527a6.608,6.608,0,0,1-6.607-6.607V227a6.608,6.608,0,0,1,6.607-6.607Z" transform="translate(-554.92 -210.335)" fill="#d1026e" opacity="0.2"/>
    <g id="Group_1200393" data-name="Group 1200393" transform="translate(10.772 0)">
      <path id="Path_1241433" data-name="Path 1241433" d="M554.027,213.39H655.049A6.608,6.608,0,0,1,661.656,220v52.83a6.608,6.608,0,0,1-6.607,6.607H611.224l17.524,38.309-32.563-38.309H554.027a6.608,6.608,0,0,1-6.607-6.607V220a6.608,6.608,0,0,1,6.607-6.607Z" transform="translate(-547.42 -213.39)" fill="#fff" stroke="#20154c" stroke-linecap="round" stroke-linejoin="round" stroke-width="1"/>
      <path id="Path_1278197" data-name="Path 1278197" d="M12.512,6.992a1.451,1.451,0,0,1,1.029.371,1.2,1.2,0,0,1,.4.917,1.24,1.24,0,0,1-.4.938,1.435,1.435,0,0,1-1.029.378A1.417,1.417,0,0,1,11.5,9.218a1.24,1.24,0,0,1-.4-.938,1.2,1.2,0,0,1,.4-.917A1.432,1.432,0,0,1,12.512,6.992Zm-.924,10.486a3.533,3.533,0,0,1-2.4-.784,2.772,2.772,0,0,1-.9-2.212,2.551,2.551,0,0,1,.861-2.051,3.439,3.439,0,0,1,2.275-.749l.07-1.05h2.1l.07,2.6h-.84a3.953,3.953,0,0,0-1.659.273.975.975,0,0,0-.553.987,1.012,1.012,0,0,0,.273.749.993.993,0,0,0,.735.273,1.045,1.045,0,0,0,.784-.287,1.065,1.065,0,0,0,.28-.777h2.254a2.892,2.892,0,0,1-.357,1.54,2.721,2.721,0,0,1-1.148,1.085A3.929,3.929,0,0,1,11.588,17.478ZM24.672,5.172V7.09h-2.6V15H19.674V7.09h-2.6V5.172Zm9.961,5.8a6.111,6.111,0,0,1-.042.7H29.173a1.628,1.628,0,0,0,.469,1.113,1.433,1.433,0,0,0,1.015.385A1.258,1.258,0,0,0,31.9,12.41h2.548a3.5,3.5,0,0,1-.707,1.386,3.54,3.54,0,0,1-1.281.966,4.115,4.115,0,0,1-1.722.35,4.19,4.19,0,0,1-2.044-.49,3.485,3.485,0,0,1-1.4-1.4,4.322,4.322,0,0,1-.5-2.128,4.371,4.371,0,0,1,.5-2.128,3.44,3.44,0,0,1,1.393-1.4,4.22,4.22,0,0,1,2.058-.49,4.177,4.177,0,0,1,2.016.476A3.418,3.418,0,0,1,34.136,8.91,4.122,4.122,0,0,1,34.633,10.968Zm-2.45-.63a1.231,1.231,0,0,0-.42-.98,1.546,1.546,0,0,0-1.05-.364,1.516,1.516,0,0,0-1.015.35,1.555,1.555,0,0,0-.511.994ZM44.041,8.294a2.6,2.6,0,0,1,.966-.882,2.965,2.965,0,0,1,1.442-.336,3.235,3.235,0,0,1,1.75.49,3.394,3.394,0,0,1,1.239,1.4,4.669,4.669,0,0,1,.455,2.114,4.713,4.713,0,0,1-.455,2.121A3.434,3.434,0,0,1,48.2,14.615a3.2,3.2,0,0,1-1.75.5,2.976,2.976,0,0,1-1.435-.336,2.631,2.631,0,0,1-.973-.868v4.816H41.647V7.188h2.394Zm3.416,2.786a1.932,1.932,0,0,0-.5-1.407,1.641,1.641,0,0,0-1.225-.511,1.615,1.615,0,0,0-1.211.518,1.957,1.957,0,0,0-.5,1.414,1.957,1.957,0,0,0,.5,1.414,1.675,1.675,0,0,0,2.429-.007A1.966,1.966,0,0,0,47.457,11.08Zm12.8-3.892V15H57.867V13.936a2.627,2.627,0,0,1-.987.833,3.012,3.012,0,0,1-1.379.315,3.089,3.089,0,0,1-1.582-.4,2.69,2.69,0,0,1-1.064-1.155,3.93,3.93,0,0,1-.378-1.778V7.188h2.38V11.43a1.714,1.714,0,0,0,.406,1.218,1.424,1.424,0,0,0,1.092.434,1.441,1.441,0,0,0,1.106-.434,1.714,1.714,0,0,0,.406-1.218V7.188Zm10.479,3.78a6.111,6.111,0,0,1-.042.7H65.28a1.628,1.628,0,0,0,.469,1.113,1.433,1.433,0,0,0,1.015.385,1.258,1.258,0,0,0,1.246-.756h2.548a3.5,3.5,0,0,1-.707,1.386,3.54,3.54,0,0,1-1.281.966,4.115,4.115,0,0,1-1.722.35,4.19,4.19,0,0,1-2.044-.49,3.485,3.485,0,0,1-1.4-1.4,4.322,4.322,0,0,1-.5-2.128,4.371,4.371,0,0,1,.5-2.128,3.44,3.44,0,0,1,1.393-1.4,4.22,4.22,0,0,1,2.058-.49,4.177,4.177,0,0,1,2.016.476A3.418,3.418,0,0,1,70.243,8.91,4.122,4.122,0,0,1,70.74,10.968Zm-2.45-.63a1.231,1.231,0,0,0-.42-.98,1.546,1.546,0,0,0-1.05-.364,1.516,1.516,0,0,0-1.015.35,1.555,1.555,0,0,0-.511.994Zm4.627.742a4.669,4.669,0,0,1,.455-2.114,3.394,3.394,0,0,1,1.239-1.4,3.235,3.235,0,0,1,1.75-.49,3.074,3.074,0,0,1,1.407.322,2.564,2.564,0,0,1,1,.868V4.64h2.394V15H78.769V13.88a2.439,2.439,0,0,1-.959.9,3.006,3.006,0,0,1-1.449.336,3.2,3.2,0,0,1-1.75-.5A3.434,3.434,0,0,1,73.372,13.2,4.713,4.713,0,0,1,72.917,11.08Zm5.852.014a1.957,1.957,0,0,0-.5-1.414,1.682,1.682,0,0,0-2.422-.007,1.932,1.932,0,0,0-.5,1.407,1.982,1.982,0,0,0,.5,1.421,1.667,1.667,0,0,0,2.422.007A1.957,1.957,0,0,0,78.769,11.094Zm9.079,4.018a4.312,4.312,0,0,1-2.065-.49,3.588,3.588,0,0,1-1.442-1.4,4.183,4.183,0,0,1-.525-2.128,4.15,4.15,0,0,1,.532-2.121A3.61,3.61,0,0,1,85.8,7.566a4.626,4.626,0,0,1,4.144,0A3.61,3.61,0,0,1,91.4,8.973a4.15,4.15,0,0,1,.532,2.121,4.107,4.107,0,0,1-.539,2.121,3.645,3.645,0,0,1-1.47,1.407A4.395,4.395,0,0,1,87.848,15.112Zm0-2.072a1.56,1.56,0,0,0,1.169-.5,2,2,0,0,0,.483-1.442,2.04,2.04,0,0,0-.469-1.442,1.591,1.591,0,0,0-2.317-.007,2.055,2.055,0,0,0-.462,1.449,2.08,2.08,0,0,0,.455,1.442A1.473,1.473,0,0,0,87.848,13.04ZM16.125,28.08a4.669,4.669,0,0,1,.455-2.114,3.394,3.394,0,0,1,1.239-1.4,3.235,3.235,0,0,1,1.75-.49,3.006,3.006,0,0,1,1.449.336,2.475,2.475,0,0,1,.959.882V24.188h2.394V32H21.977V30.894a2.585,2.585,0,0,1-.973.882,3.006,3.006,0,0,1-1.449.336,3.176,3.176,0,0,1-1.736-.5A3.434,3.434,0,0,1,16.58,30.2,4.713,4.713,0,0,1,16.125,28.08Zm5.852.014a1.957,1.957,0,0,0-.5-1.414,1.682,1.682,0,0,0-2.422-.007,1.932,1.932,0,0,0-.5,1.407,1.982,1.982,0,0,0,.5,1.421,1.667,1.667,0,0,0,2.422.007A1.957,1.957,0,0,0,21.977,28.094Zm13.5-3.906L30.58,35.71H28L29.8,31.734l-3.178-7.546h2.674L31.1,29.074l1.792-4.886Zm9.975,0V32H43.061V30.936a2.627,2.627,0,0,1-.987.833,3.012,3.012,0,0,1-1.379.315,3.089,3.089,0,0,1-1.582-.4,2.69,2.69,0,0,1-1.064-1.155,3.931,3.931,0,0,1-.378-1.778V24.188h2.38V28.43a1.714,1.714,0,0,0,.406,1.218,1.424,1.424,0,0,0,1.092.434,1.441,1.441,0,0,0,1.106-.434,1.714,1.714,0,0,0,.406-1.218V24.188Zm2.639,3.892a4.669,4.669,0,0,1,.455-2.114,3.394,3.394,0,0,1,1.239-1.4,3.235,3.235,0,0,1,1.75-.49,3.074,3.074,0,0,1,1.407.322,2.564,2.564,0,0,1,1,.868V21.64H56.34V32H53.946V30.88a2.439,2.439,0,0,1-.959.9,3.006,3.006,0,0,1-1.449.336,3.2,3.2,0,0,1-1.75-.5A3.434,3.434,0,0,1,48.549,30.2,4.713,4.713,0,0,1,48.094,28.08Zm5.852.014a1.957,1.957,0,0,0-.5-1.414,1.682,1.682,0,0,0-2.422-.007,1.932,1.932,0,0,0-.5,1.407,1.982,1.982,0,0,0,.5,1.421,1.667,1.667,0,0,0,2.422.007A1.957,1.957,0,0,0,53.946,28.094Zm5.047-.014a4.669,4.669,0,0,1,.455-2.114,3.394,3.394,0,0,1,1.239-1.4,3.235,3.235,0,0,1,1.75-.49,3.006,3.006,0,0,1,1.449.336,2.475,2.475,0,0,1,.959.882V24.188H67.24V32H64.846V30.894a2.585,2.585,0,0,1-.973.882,3.006,3.006,0,0,1-1.449.336,3.176,3.176,0,0,1-1.736-.5A3.434,3.434,0,0,1,59.449,30.2,4.713,4.713,0,0,1,58.994,28.08Zm5.852.014a1.957,1.957,0,0,0-.5-1.414,1.682,1.682,0,0,0-2.422-.007,1.932,1.932,0,0,0-.5,1.407,1.982,1.982,0,0,0,.5,1.421,1.667,1.667,0,0,0,2.422.007A1.957,1.957,0,0,0,64.846,28.094Zm7.917-2.6a3.158,3.158,0,0,1,1.05-1.015,2.708,2.708,0,0,1,1.4-.371v2.534h-.658a2.017,2.017,0,0,0-1.344.385,1.71,1.71,0,0,0-.448,1.351V32H70.369V24.188h2.394Zm7.861-3.864a3.533,3.533,0,0,1,2.4.784,2.772,2.772,0,0,1,.9,2.212,2.551,2.551,0,0,1-.861,2.051,3.439,3.439,0,0,1-2.275.749l-.07,1.05h-2.1l-.07-2.6h.84a4,4,0,0,0,1.645-.266.973.973,0,0,0,.567-.966,1.073,1.073,0,0,0-.266-.77.974.974,0,0,0-.742-.28,1.045,1.045,0,0,0-.784.287,1.065,1.065,0,0,0-.28.777H77.278a2.892,2.892,0,0,1,.357-1.54,2.721,2.721,0,0,1,1.148-1.085A3.929,3.929,0,0,1,80.624,21.626ZM79.7,32.112a1.451,1.451,0,0,1-1.029-.371,1.2,1.2,0,0,1-.4-.917,1.24,1.24,0,0,1,.4-.938,1.435,1.435,0,0,1,1.029-.378,1.417,1.417,0,0,1,1.015.378,1.24,1.24,0,0,1,.4.938,1.2,1.2,0,0,1-.4.917A1.432,1.432,0,0,1,79.7,32.112Z" transform="translate(7.263 14.911)" fill="#20154c"/>
    </g>
  </g>
</svg>
