<svg id="Group_1207762" data-name="Group 1207762" xmlns="http://www.w3.org/2000/svg" xmlns:xlink="http://www.w3.org/1999/xlink" width="241.196" height="241.195" viewBox="0 0 241.196 241.195">
  <defs>
    <clipPath id="clip-path">
      <rect id="Rectangle_411371" data-name="Rectangle 411371" width="241.196" height="241.196" fill="none"/>
    </clipPath>
    <clipPath id="clip-path-4">
      <rect id="Rectangle_411367" data-name="Rectangle 411367" width="88.827" height="31.683" fill="none"/>
    </clipPath>
    <clipPath id="clip-path-5">
      <rect id="Rectangle_411365" data-name="Rectangle 411365" width="65.495" height="15.867" fill="none"/>
    </clipPath>
    <clipPath id="clip-path-6">
      <rect id="Rectangle_411366" data-name="Rectangle 411366" width="88.827" height="15.867" fill="none"/>
    </clipPath>
    <clipPath id="clip-path-7">
      <rect id="Rectangle_411368" data-name="Rectangle 411368" width="171.887" height="215.121" fill="none"/>
    </clipPath>
    <clipPath id="clip-path-8">
      <rect id="Rectangle_411369" data-name="Rectangle 411369" width="71.864" height="222.8" fill="none"/>
    </clipPath>
  </defs>
  <g id="Group_1207761" data-name="Group 1207761" clip-path="url(#clip-path)">
    <path id="Path_1277665" data-name="Path 1277665" d="M0,0H240.408V240.408H0Z" fill="#7fe5cf"/>
    <path id="Path_1277666" data-name="Path 1277666" d="M0,0H240.664V67.8H0Z" transform="translate(0.482 127.433)" fill="#cbf4eb"/>
    <rect id="Rectangle_411352" data-name="Rectangle 411352" width="10.603" height="36.79" transform="translate(5.944 203.905)" fill="#cbf4eb"/>
    <rect id="Rectangle_411353" data-name="Rectangle 411353" width="10.603" height="36.79" transform="translate(27.794 203.905)" fill="#cbf4eb"/>
    <rect id="Rectangle_411354" data-name="Rectangle 411354" width="10.603" height="36.79" transform="translate(49.643 203.905)" fill="#cbf4eb"/>
    <rect id="Rectangle_411355" data-name="Rectangle 411355" width="10.603" height="36.79" transform="translate(71.492 203.905)" fill="#cbf4eb"/>
    <rect id="Rectangle_411356" data-name="Rectangle 411356" width="10.603" height="36.79" transform="translate(93.342 203.905)" fill="#cbf4eb"/>
    <rect id="Rectangle_411357" data-name="Rectangle 411357" width="10.603" height="36.79" transform="translate(115.191 203.905)" fill="#cbf4eb"/>
    <rect id="Rectangle_411358" data-name="Rectangle 411358" width="10.603" height="36.79" transform="translate(137.04 203.905)" fill="#9755ff"/>
    <rect id="Rectangle_411359" data-name="Rectangle 411359" width="10.603" height="36.79" transform="translate(158.89 203.905)" fill="#9755ff"/>
    <rect id="Rectangle_411360" data-name="Rectangle 411360" width="10.603" height="36.79" transform="translate(180.739 203.905)" fill="#9755ff"/>
    <rect id="Rectangle_411361" data-name="Rectangle 411361" width="10.603" height="36.79" transform="translate(202.589 203.905)" fill="#cbf4eb"/>
    <rect id="Rectangle_411362" data-name="Rectangle 411362" width="10.603" height="36.79" transform="translate(224.438 203.905)" fill="#cbf4eb"/>
    <path id="Path_1277371" data-name="Path 1277371" d="M50.7,174.117H36.333l5.224-5.184-5.224-6.048H50.7Z" transform="translate(-18.822 -84.669)" fill="#190a44"/>
    <path id="Path_1277372" data-name="Path 1277372" d="M236.852,162.885h14.366l-5.224,5.184,5.224,6.048H236.852Z" transform="translate(-122.696 -84.669)" fill="#190a44"/>
    <rect id="Rectangle_411364" data-name="Rectangle 411364" width="94.126" height="13.709" transform="translate(26.031 71.362)" fill="#2a1659"/>
    <path id="Path_1277373" data-name="Path 1277373" d="M75.271,161.091,72.393,162.6l.55-3.2-2.328-2.27,3.217-.468,1.439-2.915,1.439,2.915,3.218.468L77.6,159.4l.55,3.2Z" transform="translate(-36.581 -79.935)" fill="#f5d625"/>
    <path id="Path_1277374" data-name="Path 1277374" d="M110.85,161.091l-2.878,1.513.55-3.2-2.328-2.27,3.218-.468,1.439-2.915,1.439,2.915,3.218.468-2.328,2.27.55,3.2Z" transform="translate(-55.011 -79.935)" fill="#f5d625"/>
    <path id="Path_1277375" data-name="Path 1277375" d="M146.429,161.091l-2.878,1.513.55-3.2-2.328-2.27,3.218-.468,1.439-2.915,1.439,2.915,3.218.468-2.328,2.27.549,3.2Z" transform="translate(-73.442 -79.935)" fill="#f5d625"/>
    <path id="Path_1277376" data-name="Path 1277376" d="M182.008,161.091,179.13,162.6l.55-3.2-2.328-2.27,3.218-.468,1.439-2.915,1.439,2.915,3.218.468-2.328,2.27.549,3.2Z" transform="translate(-91.873 -79.935)" fill="#f5d625"/>
    <path id="Path_1277377" data-name="Path 1277377" d="M217.588,161.091,214.71,162.6l.549-3.2-2.328-2.27,3.217-.468,1.439-2.915,1.439,2.915,3.217.468-2.328,2.27.549,3.2Z" transform="translate(-110.305 -79.935)" fill="#f5d625"/>
    <g id="Group_1207760" data-name="Group 1207760">
      <g id="Group_1207759" data-name="Group 1207759" clip-path="url(#clip-path)">
        <g id="Group_1207752" data-name="Group 1207752" transform="translate(25.873 36.766)" style="isolation: isolate">
          <g id="Group_1207751" data-name="Group 1207751">
            <g id="Group_1207750" data-name="Group 1207750" clip-path="url(#clip-path-4)">
              <g id="Group_1207746" data-name="Group 1207746" transform="translate(14.009)" style="isolation: isolate">
                <g id="Group_1207745" data-name="Group 1207745">
                  <g id="Group_1207744" data-name="Group 1207744" clip-path="url(#clip-path-5)">
                    <text id="CUSTOMER" transform="translate(0 11.386)" fill="#fff" font-size="14" font-family="BebasNeueBook, Bebas Neue"><tspan x="0" y="0" letter-spacing="0.159em">C</tspan><tspan y="0" letter-spacing="0.158em">U</tspan><tspan y="0" letter-spacing="0.159em">S</tspan><tspan y="0" letter-spacing="0.154em">T</tspan><tspan y="0" letter-spacing="0.159em">O</tspan><tspan y="0" letter-spacing="0.158em">M</tspan><tspan y="0" letter-spacing="0.159em">E</tspan><tspan y="0">R</tspan></text>
                  </g>
                </g>
              </g>
              <g id="Group_1207749" data-name="Group 1207749" transform="translate(0 15.815)" style="isolation: isolate">
                <g id="Group_1207748" data-name="Group 1207748">
                  <g id="Group_1207747" data-name="Group 1207747" clip-path="url(#clip-path-6)">
                    <text id="SATISFACTION" transform="translate(0 11.386)" fill="#fff" font-size="14" font-family="BebasNeueBook, Bebas Neue"><tspan x="0" y="0" letter-spacing="0.156em">S</tspan><tspan y="0" letter-spacing="0.113em">A</tspan><tspan y="0" letter-spacing="0.158em">T</tspan><tspan y="0" letter-spacing="0.159em">IS</tspan><tspan y="0" letter-spacing="0.126em">F</tspan><tspan y="0" letter-spacing="0.157em">A</tspan><tspan y="0" letter-spacing="0.159em">CTIO</tspan><tspan y="0">N</tspan></text>
                  </g>
                </g>
              </g>
            </g>
          </g>
        </g>
        <g id="Group_1207755" data-name="Group 1207755" transform="translate(69.099 25.575)" opacity="0.3" style="isolation: isolate">
          <g id="Group_1207754" data-name="Group 1207754">
            <g id="Group_1207753" data-name="Group 1207753" clip-path="url(#clip-path-7)">
              <path id="Path_1277378" data-name="Path 1277378" d="M266.679,222.92l.376,1.016,48.2-26.453v-9.124l-18.726-16.993c2.5-3.223,1.25-8.3.926-13.8-.507-8.613,6.333-2.786,17.226-11.906.2-.166.389-.333.574-.5V127.266a16.609,16.609,0,0,0-2.347-1.872c-3.546-2.28-3.546-4.053-.76-11.653s-.253-10.133-8.613-12.16-6.84-3.546-4.813-17.479,2.533-24.319-17.48-29.639S251.6,72.2,251.6,72.2c-14.159-9.1-12.419,17.882-11.909,27.807a2.192,2.192,0,0,0-2.023.311c-3.546,2.027-3.8,8.866-.507,9.373a2.209,2.209,0,0,0,1-.067c-.057.949-.1,1.912-.122,2.883-.354,1.449-.653,2.731-.874,3.771-.867,4.089-.578,7.083,1.272,8.723a59.7,59.7,0,0,0,.755,5.97c1.014,5.066,1.774,9.119-5.319,13.679-5.517,3.546-1.687,12.912.288,16.9l-35.247,37.309-29.132-20.519-.537.806a32.257,32.257,0,0,0-2.917-2.255l-.25.536-3.135-2.887s-2.2-11.484-1.182-16.888-1.52-5.4-2.871-2.533S157.7,163.9,157.7,163.9l-5.235-2.871s-7.938-5.235-5.742,2.027c-2.7,1.52-3.04,2.533-1.858,5.4-1.351,1.858-2.027,3.546-1.013,5.066-1.014,1.351,1.857,3.716,5.066,4.56s5.4,1.351,4.729-1.858c3.208,2.2,6.586,2.7,7.768,2.2.9.84,1.948,1.807,2.928,2.706l-.271.581,2.374,1.622-.217.326,33.439,29.132,30.971-25.448,3.149-2.588L236.4,186.7s-6.334,14.439-12.16,31.665c.1.06.2.115.305.174l-18.528,50.249h26.63l7.468-12.509,3.412,12.509h43.318c-1-13.175-5.393-36.061-23.407-45.561a4.2,4.2,0,0,0,3.238-.305m-4.373-7.6c-.8-1.482-2.664-4.163-5.567-3.682,1.074-4.42,2.575-9.9,4.2-15.564,6.625.6,12.629-6.454,13.465-9.378.92-3.22.588-9.568,10.182-11.471l15.657,13.5L264.522,217.1l.331.894Z" transform="translate(-143.367 -53.665)" fill="#2a1659"/>
            </g>
          </g>
        </g>
        <path id="Path_1277379" data-name="Path 1277379" d="M315.808,52.2s9.626-23.053,29.639-17.733,19.506,15.706,17.48,29.639-3.546,15.453,4.813,17.479,11.4,4.56,8.613,12.16-2.786,9.373.76,11.653,12.666,11.147,1.773,20.266-17.733,3.293-17.226,11.906,3.293,16.213-9.626,17.226-12.413,8.36-13.426,11.906-9.627,13.173-17.733,7.853-21.533-31.159-21.533-31.159-8.36-14.186-1.267-18.746,6.333-8.613,5.319-13.679-2.28-22.546.507-30.905c-.507-9.88-2.28-36.986,11.906-27.866" transform="translate(-152.933 -17.73)" fill="#ff9800"/>
        <path id="Path_1277380" data-name="Path 1277380" d="M139.358,267.437l-6.417-5.911s-2.2-11.484-1.182-16.888-1.52-5.4-2.871-2.533-1.182,8.782-1.182,8.782l-5.235-2.871s-7.938-5.235-5.742,2.027c-2.7,1.52-3.04,2.533-1.857,5.4-1.351,1.857-2.027,3.546-1.013,5.066-1.014,1.351,1.858,3.716,5.066,4.56s5.4,1.351,4.729-1.858c3.209,2.2,6.587,2.7,7.769,2.2,2.533,2.364,6.249,5.742,6.249,5.742Z" transform="translate(-58.728 -124.718)" fill="#f0bf88"/>
        <path id="Path_1277381" data-name="Path 1277381" d="M162.438,292.707c-.321-.964-3.856-3.374-3.856-3.374l-2.249,4.82,3.593,2.455Z" transform="translate(-80.985 -150.173)" fill="#fff"/>
        <path id="Path_1277382" data-name="Path 1277382" d="M241.112,230.317l-47.625,50.411-29.132-20.519-3.546,5.32,33.439,29.132,39.771-32.679Z" transform="translate(-83.304 -119.601)" fill="#7fe5cf"/>
        <path id="Path_1277383" data-name="Path 1277383" d="M267.029,261.128a154.624,154.624,0,0,1,13.215,8.085l8.8-7.231,7.093-31.666Z" transform="translate(-138.329 -119.6)" fill="#7fe5cf"/>
        <path id="Path_1277384" data-name="Path 1277384" d="M257.911,375.558l-22.292,60.46h24.319l13.51-22.63,6.08,22.292H320.4s3.04-53.029-35.128-59.109a125.021,125.021,0,0,1-27.359-1.013" transform="translate(-122.057 -194.84)" fill="#2a1659"/>
        <path id="Path_1277385" data-name="Path 1277385" d="M257.911,375.558l-22.292,60.46h28.122l5.863-15.043,9.925,14.706H320.4s3.04-53.029-35.128-59.109a125.021,125.021,0,0,1-27.359-1.013" transform="translate(-122.057 -194.84)" fill="#589f8f"/>
        <path id="Path_1277386" data-name="Path 1277386" d="M362.577,375.123s-1.014,2.871-5.911.844.169-7.768.169-7.768l3.546,3.715Z" transform="translate(-183.658 -191.028)" fill="#f0bf88"/>
        <path id="Path_1277387" data-name="Path 1277387" d="M323.728,221.908l54.718,49.651-54.465,29.892-2.533-6.84,35.718-28.372-29.385-25.332s-14.693,46.1-15.707,56.238c-9.372,4.307-21.533,4.307-30.905-1.267,5.827-17.226,12.16-31.665,12.16-31.665l-10.893-8.106,21.787-32.173Z" transform="translate(-145.653 -115.245)" fill="#7fe5cf"/>
        <path id="Path_1277388" data-name="Path 1277388" d="M342.419,170.811l-1.773,20.013-4.813,3.546.253,17.479s16.213-17.226,15.959-17.986-6.332-5.1-6.332-5.1l.252-21Z" transform="translate(-173.971 -87.2)" fill="#f0bf88"/>
        <path id="Path_1277389" data-name="Path 1277389" d="M316.084,88.122s-6.84,24.066-8.613,32.426,1.267,12.16,12.666,9.119,22.546-8.866,22.8-33.945c-13.426-12.16-21.279-15.2-21.279-15.2Z" transform="translate(-159.035 -42.003)" fill="#f0bf88"/>
        <path id="Path_1277390" data-name="Path 1277390" d="M374.579,134.131s4.306-5.827,7.093-2.28-.507,12.92-9.12,7.853c-.507-2.534,2.027-5.574,2.027-5.574" transform="translate(-192.958 -68)" fill="#f0bf88"/>
        <path id="Path_1277391" data-name="Path 1277391" d="M309.537,133.523s0-5.573-3.546-3.546-3.8,8.866-.507,9.373,4.053-5.827,4.053-5.827" transform="translate(-157.048 -67.392)" fill="#f0bf88"/>
        <path id="Path_1277392" data-name="Path 1277392" d="M337.409,77.526s5.574,16.973,21.533,20.519,7.6-9.626,7.853-10.893S354.889,74.74,354.889,74.74Z" transform="translate(-174.787 -39.008)" fill="#ff9800"/>
        <path id="Path_1277393" data-name="Path 1277393" d="M340.669,216.477c-.507.338-14.355,18.239-14.186,17.564s.338-17.057.338-17.057l-5.911,2.871s-5.574,16.044-5.4,15.368,5.4-3.377,5.4-3.377,1.351,16.888,1.351,16.382,10.64-15.369,10.64-15.369l3.208,6.249,7.769-20.941Z" transform="translate(-163.439 -112.431)" fill="#fff"/>
        <path id="Path_1277394" data-name="Path 1277394" d="M341.438,365.982s-2.871-7.431-8.445-3.546-10.133,11.653-9.795,14.355,5.375,2.858,10.176.276c5.272-2.834,10.6-6.524,8.063-11.084" transform="translate(-167.417 -187.46)" fill="#f0bf88"/>
        <path id="Path_1277395" data-name="Path 1277395" d="M329.322,124.038c0,.8-.426,1.453-.95,1.453s-.95-.651-.95-1.453.426-1.453.95-1.453.95.651.95,1.453" transform="translate(-169.614 -63.793)" fill="#221b3a"/>
        <path id="Path_1277396" data-name="Path 1277396" d="M344.3,122.986c0,.8-.426,1.453-.95,1.453s-.95-.651-.95-1.453.426-1.453.95-1.453.95.651.95,1.453" transform="translate(-177.374 -63.248)" fill="#221b3a"/>
        <path id="Path_1277397" data-name="Path 1277397" d="M331.425,124.935s-2.153,7.853-3.42,11.273-.887,4.56,2.153,2.913,1.9-12.413,1.267-14.186" transform="translate(-169.563 -65.01)" fill="#f78d59"/>
        <path id="Path_1277398" data-name="Path 1277398" d="M342.078,110.643s2.286-3.131,6.169.918" transform="translate(-177.206 -57.008)" fill="none" stroke="#ff9800" stroke-miterlimit="10" stroke-width="2.102"/>
        <path id="Path_1277399" data-name="Path 1277399" d="M327.522,114s-1.045-2.089-4.332.093" transform="translate(-167.422 -58.877)" fill="none" stroke="#ff9800" stroke-miterlimit="10" stroke-width="2.102"/>
        <path id="Path_1277400" data-name="Path 1277400" d="M382.355,136.854a3.215,3.215,0,0,0-.763-.391,3.108,3.108,0,0,0-.819-.156,2.655,2.655,0,0,0-.411.01,2.866,2.866,0,0,0-.4.066,2.445,2.445,0,0,0-.389.122,1.908,1.908,0,0,0-.375.162,2.338,2.338,0,0,0-.36.2l-.345.229c-.115.076-.215.176-.324.263s-.217.174-.315.275l-.3.3c-.1.1-.2.193-.292.306q-.268.33-.548.653v-.274c.084.134.173.262.252.4a2.867,2.867,0,0,1,.2.438,1.242,1.242,0,0,1,.074.238,1.177,1.177,0,0,1,.04.254.932.932,0,0,1-.1.524,1.033,1.033,0,0,1-.155.217,1.48,1.48,0,0,1-.2.16,1.985,1.985,0,0,1-.431.2,8.353,8.353,0,0,1-.882.238c.269-.142.552-.254.809-.4a1.778,1.778,0,0,0,.351-.244,1.163,1.163,0,0,0,.138-.142.725.725,0,0,0,.086-.162.665.665,0,0,0,.026-.357.82.82,0,0,0-.049-.188.981.981,0,0,0-.078-.187,3.429,3.429,0,0,0-.207-.365c-.078-.12-.168-.235-.251-.352l-.1-.141.1-.133q.268-.354.547-.7c.089-.119.2-.219.3-.329l.312-.322c.106-.105.231-.193.346-.291s.228-.2.357-.278l.388-.241a2.753,2.753,0,0,1,.412-.2,2.251,2.251,0,0,1,.432-.159,2.768,2.768,0,0,1,.451-.1,3.292,3.292,0,0,1,.461-.033,2.829,2.829,0,0,1,1.311.344,2.954,2.954,0,0,1,.373.243,2,2,0,0,1,.32.3" transform="translate(-194.528 -70.722)" fill="#cc6740"/>
        <path id="Path_1277401" data-name="Path 1277401" d="M313.176,135.972s-.013.408-.1,1-.229,1.383-.417,2.159-.422,1.541-.627,2.108-.379.935-.379.935.012-.408.1-1,.23-1.383.418-2.159.423-1.541.628-2.108a10.016,10.016,0,0,1,.378-.935" transform="translate(-161.447 -70.728)" fill="#cc6740"/>
        <path id="Path_1277402" data-name="Path 1277402" d="M307.188,134.8a.9.9,0,0,1,.12-.154,1.4,1.4,0,0,1,.427-.309,1.227,1.227,0,0,1,.35-.112,1.361,1.361,0,0,1,.422-.014,1.478,1.478,0,0,1,.434.128c.068.035.139.067.206.106l.184.135a2.2,2.2,0,0,1,.316.313,1.973,1.973,0,0,1,.243.342,1.6,1.6,0,0,1,.18.34c.051.11.093.217.13.316a4.125,4.125,0,0,1,.124.493c.023.12.031.19.031.19a6.354,6.354,0,0,1-.413-.549c-.064-.079-.131-.163-.2-.255a2.789,2.789,0,0,0-.219-.275,3.163,3.163,0,0,0-.242-.273,1.865,1.865,0,0,0-.269-.245l-.138-.113-.15-.084a1.537,1.537,0,0,0-.3-.13,1.651,1.651,0,0,0-.308-.048,1.629,1.629,0,0,0-.293.013,2.3,2.3,0,0,0-.634.187" transform="translate(-159.132 -69.811)" fill="#cc6740"/>
        <path id="Path_1277403" data-name="Path 1277403" d="M332.679,159.735a3.426,3.426,0,0,0,.329.225,3.646,3.646,0,0,0,.393.218,3.87,3.87,0,0,0,.534.205,1.717,1.717,0,0,0,.312.07,1.213,1.213,0,0,0,.333.038,2.547,2.547,0,0,0,.706-.073l.349-.135a2.257,2.257,0,0,0,.333-.2,3.277,3.277,0,0,0,.617-.51c.2-.189.353-.423.53-.629.159-.222.3-.459.443-.68a6.536,6.536,0,0,0,.375-.669c.112-.218.224-.422.329-.611.171-.394.336-.718.442-.949s.181-.359.181-.359-.027.143-.088.39-.144.6-.266,1.026c-.077.205-.16.429-.256.663a4.653,4.653,0,0,1-.329.726c-.141.24-.261.5-.432.744-.188.23-.353.484-.568.7a3.771,3.771,0,0,1-.721.571,2.009,2.009,0,0,1-.405.212l-.431.135a2.485,2.485,0,0,1-.847.015,1.364,1.364,0,0,1-.377-.085,2.053,2.053,0,0,1-.334-.128c-.1-.053-.2-.1-.289-.149l-.239-.166a3.7,3.7,0,0,1-.357-.3,2.044,2.044,0,0,1-.267-.3" transform="translate(-172.337 -80.937)" fill="#cc6740"/>
        <path id="Path_1277404" data-name="Path 1277404" d="M350.078,138.037c0,.56-1.248,1.013-2.787,1.013s-2.786-.454-2.786-1.013,1.248-1.014,2.786-1.014,2.787.454,2.787,1.014" transform="translate(-178.463 -71.272)" fill="#f4ab7a"/>
        <path id="Path_1277405" data-name="Path 1277405" d="M323.052,138.445c0,.35-.993.633-2.217.633s-2.217-.283-2.217-.633.993-.633,2.217-.633,2.217.283,2.217.633" transform="translate(-165.053 -71.681)" fill="#f4ab7a"/>
        <path id="Path_1277406" data-name="Path 1277406" d="M324.856,271.579,321,278.005l16.709-17.672" transform="translate(-166.287 -135.15)" fill="none" stroke="#190a44" stroke-miterlimit="10" stroke-width="1"/>
        <line id="Line_620" data-name="Line 620" x1="2.731" y1="17.351" transform="translate(153.909 121.649)" fill="none" stroke="#190a44" stroke-miterlimit="10" stroke-width="1"/>
        <line id="Line_621" data-name="Line 621" x1="10.282" y2="39.682" transform="translate(143.467 144.301)" fill="none" stroke="#190a44" stroke-miterlimit="10" stroke-width="1"/>
        <path id="Path_1277407" data-name="Path 1277407" d="M320.856,311.854c-.2.864-.786,1.466-1.3,1.345s-.775-.92-.573-1.783.786-1.467,1.3-1.346.775.92.573,1.784" transform="translate(-165.204 -160.907)" fill="#190a44"/>
        <path id="Path_1277408" data-name="Path 1277408" d="M314.522,336.854c-.2.864-.786,1.466-1.3,1.345s-.775-.92-.573-1.783.786-1.467,1.3-1.346.775.92.573,1.784" transform="translate(-161.923 -173.858)" fill="#190a44"/>
        <path id="Path_1277409" data-name="Path 1277409" d="M308.189,361.854c-.2.864-.786,1.466-1.3,1.345s-.775-.92-.574-1.783.786-1.467,1.3-1.346.775.92.574,1.784" transform="translate(-158.642 -186.809)" fill="#190a44"/>
        <path id="Path_1277410" data-name="Path 1277410" d="M326.723,245.726c.642-.418,1.295-.816,1.951-1.209s1.321-.771,1.98-1.157l.148-.087.027.173c.065.414.115.831.174,1.246s.117.83.165,1.247c.1.833.2,1.666.267,2.5-.172-.823-.315-1.649-.456-2.476-.072-.413-.13-.829-.2-1.243s-.132-.829-.188-1.244l.175.086c-.67.368-1.333.75-2.009,1.107s-1.351.718-2.039,1.054" transform="translate(-169.252 -126.312)" fill="#847ba3"/>
        <path id="Path_1277411" data-name="Path 1277411" d="M341.189,247.672c-.58-.805-1.161-1.61-1.723-2.427l.125.014c-.654.645-1.322,1.276-1.988,1.91s-1.334,1.264-2.009,1.887-1.346,1.251-2.031,1.864-1.372,1.223-2.062,1.831c.649-.651,1.293-1.308,1.954-1.945s1.319-1.28,1.986-1.912,1.331-1.266,2.007-1.888,1.344-1.253,2.029-1.866l.073-.066.052.08c.541.832,1.063,1.676,1.586,2.519" transform="translate(-171.727 -127.245)" fill="#847ba3"/>
        <path id="Path_1277412" data-name="Path 1277412" d="M120.337,258.489l.492.6c.311.382.778.91,1.335,1.544.289.307.595.647.932.991.353.328.694.709,1.1,1.039l.6.519.667.454.168.115.179.089a1.793,1.793,0,0,0,.37.155.91.91,0,0,0,.691.018.75.75,0,0,0,.36-.556,2.755,2.755,0,0,0,.025-.786,5.743,5.743,0,0,0-.4-1.529,9.753,9.753,0,0,0-.713-1.319c-.244-.407-.525-.774-.767-1.116-.507-.673-.937-1.231-1.254-1.609l-.494-.6s.2.2.544.554.821.876,1.355,1.537c.259.337.553.688.825,1.1a7.986,7.986,0,0,1,.775,1.337,6.044,6.044,0,0,1,.444,1.608,3.081,3.081,0,0,1-.018.884,1.072,1.072,0,0,1-.533.795,1.225,1.225,0,0,1-.949-.015,2.17,2.17,0,0,1-.4-.174l-.195-.1-.175-.122-.691-.484-.61-.539a14.739,14.739,0,0,1-1.082-1.088c-.327-.362-.62-.716-.9-1.036-.536-.657-.953-1.229-1.243-1.628s-.441-.64-.441-.64" transform="translate(-62.338 -133.164)" fill="#cc6740"/>
        <path id="Path_1277413" data-name="Path 1277413" d="M116.483,271.84l1.79.895.87.422.978.453c.335.167.693.31,1.053.463l.545.229.56.2.556.207c.187.056.377.1.563.147s.378.1.55.134a3.986,3.986,0,0,0,.557.047,1.634,1.634,0,0,0,.953-.212.818.818,0,0,0,.321-.751,1.9,1.9,0,0,0-.226-.745,2.7,2.7,0,0,0-.34-.519,3.319,3.319,0,0,0-.268-.3l-.1-.1.112.091a2.475,2.475,0,0,1,.305.272,2.807,2.807,0,0,1,.4.5,1.821,1.821,0,0,1,.306.79,1.036,1.036,0,0,1-.361.966,1.75,1.75,0,0,1-1.109.307,4.307,4.307,0,0,1-.581-.038c-.207-.033-.39-.087-.589-.13s-.4-.088-.59-.143l-.572-.2-.568-.211-.547-.242c-.361-.162-.721-.314-1.055-.488-.679-.327-1.287-.68-1.812-.973-1.041-.606-1.7-1.061-1.7-1.061" transform="translate(-60.341 -141.111)" fill="#cc6740"/>
        <path id="Path_1277414" data-name="Path 1277414" d="M114.381,280.443l.562.126,1.479.34,2.089.476c.381.089.775.182,1.178.261s.809.179,1.22.237a12.077,12.077,0,0,0,1.218.191l.582.055.3-.023c.094-.013.165-.047.249-.066a.983.983,0,0,0,.63-.716,1.926,1.926,0,0,0-.018-.95,3.123,3.123,0,0,0-.665-1.311,2.3,2.3,0,0,0-.3-.3l-.114-.1.125.084a1.877,1.877,0,0,1,.334.267,3.042,3.042,0,0,1,.428.515,2.758,2.758,0,0,1,.373.793,2.145,2.145,0,0,1,.075,1.055,2.2,2.2,0,0,1-.088.285,2.578,2.578,0,0,1-.156.271,2.052,2.052,0,0,1-.234.224,1.874,1.874,0,0,1-.29.155,2.7,2.7,0,0,1-.323.088l-.3.029c-.233-.01-.421-.029-.638-.044a12.128,12.128,0,0,1-1.251-.173c-.417-.067-.822-.176-1.227-.262s-.8-.188-1.179-.284c-.764-.186-1.465-.407-2.07-.577-1.2-.365-1.992-.649-1.992-.649" transform="translate(-59.253 -144.647)" fill="#cc6740"/>
        <path id="Path_1277415" data-name="Path 1277415" d="M335,368.667s-.125.136-.351.366-.548.559-.946.939-.863.826-1.376,1.284-1.081.926-1.644,1.4c-1.134.936-2.291,1.844-3.179,2.5-.441.33-.822.589-1.083.778s-.418.285-.418.285.128-.134.36-.359.56-.548.967-.919c.809-.749,1.913-1.715,3.041-2.651.568-.464,1.135-.929,1.678-1.351s1.035-.837,1.473-1.173.809-.608,1.066-.8.413-.295.413-.295" transform="translate(-168.877 -191.27)" fill="#cc6740"/>
        <path id="Path_1277416" data-name="Path 1277416" d="M334.52,376l-.466.389c-.3.239-.723.6-1.248,1l-3.836,2.951c-.7.527-1.4,1.056-2.074,1.537s-1.3.919-1.841,1.3-1.006.677-1.325.894l-.511.329.453-.4c.294-.248.7-.618,1.216-1.035s1.1-.914,1.752-1.425,1.346-1.052,2.046-1.588,1.406-1.064,2.083-1.537,1.331-.881,1.881-1.246,1.025-.646,1.35-.854l.521-.312" transform="translate(-167.436 -195.069)" fill="#cc6740"/>
        <path id="Path_1277417" data-name="Path 1277417" d="M338.271,381.667l-.425.374c-.276.229-.659.573-1.139.957s-1.032.843-1.64,1.314-1.258.968-1.927,1.446-1.34.95-1.978,1.38-1.241.82-1.753,1.161-.955.6-1.257.791l-.484.289.432-.367c.281-.225.671-.563,1.158-.938s1.046-.826,1.662-1.284,1.275-.941,1.937-1.421l1.958-1.4c.626-.446,1.225-.842,1.731-1.191s.946-.616,1.245-.815l.48-.3" transform="translate(-169.741 -198.004)" fill="#cc6740"/>
        <g id="Group_1207758" data-name="Group 1207758" transform="translate(160.928 18.038)" opacity="0.3" style="isolation: isolate">
          <g id="Group_1207757" data-name="Group 1207757">
            <g id="Group_1207756" data-name="Group 1207756" clip-path="url(#clip-path-8)">
              <path id="Path_1277418" data-name="Path 1277418" d="M347.681,205.484a4.2,4.2,0,0,0,3.238-.305l.376,1.017L405.759,176.3l-24.992-22.678c2.5-3.223,1.25-8.3.926-13.8-.507-8.613,6.333-2.787,17.226-11.906s1.774-17.986-1.773-20.266S393.6,103.6,396.386,96s-.253-10.133-8.613-12.16-6.84-3.546-4.813-17.479c1.872-12.871,2.445-22.714-13.253-28.334,3.017,4.647,4.3,10.33,4.9,15.785a50.245,50.245,0,0,1-1.118,17.3c-2.213,9-7.861,16.727-11.59,25.087a8.421,8.421,0,0,0-.637,4.953c.007.017.078.626.089.689.075.463.153.925.227,1.389.239,1.51.476,3.031.616,4.554A18.52,18.52,0,0,1,358.17,121.6a49.7,49.7,0,0,1-3.784,3.962c-.571.567-1.129,1.144-1.659,1.747a15.65,15.65,0,0,1-.883,1.334c-.07.141-.124.249-.168.336l-.192.633c-.156.662-.359,1.315-.516,1.978-.293,1.226-.536,2.463-.762,3.7-.439,2.406-.793,4.827-1.232,7.232-1,5.49-2.9,10.717-4.519,16.045s-3.16,10.71-4.647,16.092c-2.036,7.375-3.86,14.815-5.912,22.188.137.114.27.234.4.352a6.413,6.413,0,0,1,8.429,2.322c1.94,2.96,1.143,6.5-.061,9.624.033.072.068.145.1.216,4.8,10.586,6.538,21.851,7.022,33.4a80.936,80.936,0,0,1-1.029,18.065h22.545s2.382-41.626-23.626-55.343m-6.7-11.585c1.074-4.42,2.575-9.9,4.2-15.564,6.625.6,12.629-6.454,13.465-9.378.92-3.22.589-9.568,10.182-11.471l15.657,13.5-35.718,28.372.331.894-2.547-2.669c-.8-1.482-2.665-4.163-5.568-3.681" transform="translate(-333.895 -38.027)" fill="#2a1659"/>
            </g>
          </g>
        </g>
      </g>
    </g>
  </g>
</svg>
