<svg xmlns="http://www.w3.org/2000/svg" xmlns:xlink="http://www.w3.org/1999/xlink" width="337" height="355" viewBox="0 0 337 355">
  <defs>
    <clipPath id="clip-path">
      <rect id="Rectangle_411477" data-name="Rectangle 411477" width="337" height="355" transform="translate(0 -0.339)" fill="none"/>
    </clipPath>
    <clipPath id="clip-path-2">
      <path id="Path_1277851" data-name="Path 1277851" d="M40.1,73.47a62.036,62.036,0,0,1,5.734,26.1,62.038,62.038,0,0,1-15.708,41.335,62.31,62.31,0,0,1,42.846,54.766,62.337,62.337,0,0,1,66.5,8.145,62.322,62.322,0,0,1,53.1-41.681A62.259,62.259,0,0,1,202.9,96.106a62.318,62.318,0,0,1-41.111-55.539A62.033,62.033,0,0,1,134.606,46.8,62.03,62.03,0,0,1,93.8,31.555,62.311,62.311,0,0,1,40.1,73.47" transform="translate(-30.122 -31.555)" fill="none"/>
    </clipPath>
    <clipPath id="clip-path-3">
      <path id="Path_1277853" data-name="Path 1277853" d="M163.981,142.886a20.919,20.919,0,0,1-6.8.19,30.908,30.908,0,0,0-4.153-.49,3.846,3.846,0,1,0,0,7.675,37.547,37.547,0,0,0,5.644-.767,20.448,20.448,0,0,1,7.2-.124,18.976,18.976,0,0,0,2.572.271c2.268,0,2.757-1.718,2.757-3.837s.186-3.837-2.082-3.837a26.713,26.713,0,0,0-5.137.919" transform="translate(-148.916 -141.967)" fill="none"/>
    </clipPath>
    <clipPath id="clip-path-5">
      <rect id="Rectangle_411482" data-name="Rectangle 411482" width="337" height="338" transform="translate(0 -0.339)" fill="none"/>
    </clipPath>
  </defs>
  <g id="Group_1207880" data-name="Group 1207880" transform="translate(-0.219 0.509)">
    <path id="Path_1278125" data-name="Path 1278125" d="M337,338h0Z" transform="translate(0.219 -0.509)" fill="#fff"/>
    <g id="Group_1207871" data-name="Group 1207871" transform="translate(0.219 -0.17)">
      <g id="Group_1207870" data-name="Group 1207870" clip-path="url(#clip-path)">
        <path id="Path_1277808" data-name="Path 1277808" d="M312.687,209.5c-21.994-16.682-34-42.3-31.342-68.82.558-5.586.767-11.556.767-18.175,0-46.12-43.827-85.506-92.667-85.506C160.8,37,130.807,52.518,114.509,86.05a66.677,66.677,0,0,1-38.947,33.777c-15.542,5.241-34.918,17.144-38.63,45.554-1.3,9.985,1.988,22.866,9.044,36.192,11.782,22.251-9.156,28.965-21.357,51.014a35.435,35.435,0,0,0-4.044,21.167c5.343,53.733,48.921,60.189,153.817,60.189,94.624,0,148.832-10.437,153.818-60.189,3.626-36.18-2.359-54.268-15.523-64.252" transform="translate(-6.811 -11.862)" fill="#c6b7e2"/>
        <path id="Path_1277809" data-name="Path 1277809" d="M300.94,294.456c-17.106-1.631-34.754,5.993-44.318,20.227-4.644,6.912-7.906,14.953-14.016,20.818-5.113,4.908-12.778,9.034-20.146,8.246-5.979-.639-10.818-4.259-14.8-8.489-4.618-4.906-8.376-10.517-12.92-15.485-5.662-6.191-12.841-10.3-21.468-10.342-8.1-.038-16,2.843-22.8,7.054-11.518,7.128-19.663,18.329-30.793,26-4.9,3.376-10.724,6.63-16.881,6.632-5.825,0-12.01-3.306-14.628-8.585-5.635-11.361,6.411-29.278-7.871-36.726-4.905-2.557-10.694-2.1-15.846-.548a60.771,60.771,0,0,0-17.179,8.788,94.086,94.086,0,0,0-14.954,13.026c-.355.384-.71.775-1.063,1.168a74.064,74.064,0,0,0-6.63,9.88,35.435,35.435,0,0,0-4.044,21.167c5.343,53.733,48.921,60.189,153.817,60.189,94.624,0,148.832-10.437,153.818-60.189,2.841-28.346-.219-45.586-8.008-56.524a47.364,47.364,0,0,0-19.262-6.31" transform="translate(-6.811 -95.4)" fill="#e8e2f3"/>
        <path id="Path_1277810" data-name="Path 1277810" d="M456.1,208.412c4.837,16.486,1.109,32.035-8.329,34.732s-21.008-8.48-25.846-24.966-1.109-32.036,8.328-34.733,21.01,8.481,25.847,24.967" transform="translate(-136.529 -59.289)" fill="#7fe5cf"/>
        <path id="Path_1277811" data-name="Path 1277811" d="M72.968,195.673a62.31,62.31,0,0,0-42.846-54.766A62.038,62.038,0,0,0,45.83,99.572,62.036,62.036,0,0,0,40.1,73.47,62.311,62.311,0,0,0,93.8,31.555a62.03,62.03,0,0,0,40.8,15.248,62.033,62.033,0,0,0,27.187-6.235A62.318,62.318,0,0,0,202.9,96.106a62.259,62.259,0,0,0-10.337,66.03,62.322,62.322,0,0,0-53.1,41.681,62.337,62.337,0,0,0-66.5-8.145" transform="translate(-9.981 -10.094)" fill="#f9db5a"/>
        <path id="Path_1277812" data-name="Path 1277812" d="M50.463,103.859a12.329,12.329,0,0,1,13.366,4.6c3.479,4.642,4.359,10.821,4.293,16.481a54.559,54.559,0,0,1-2.474,15.82c4.994-3.873,9.012-8.84,13.727-13.029,4.267-3.792,9.538-7.458,15.427-7.867,10.485-.729,13.643,10.167,13.449,18.871,3.848-9.563,13.677-16,23.689-17.436a23.485,23.485,0,0,1,14.772,2.407,21.9,21.9,0,0,1,9.6,11.815c1.622-7.482,1.707-16.209,6.985-22.2,3.768-4.274,12.957-8.225,17.544-3.349-1.074-3.755-2.752-7.465-2.81-11.389A16,16,0,0,1,182.12,87.8a20.436,20.436,0,0,1,5.031-4.014,62.1,62.1,0,0,1-20.563-43.221A62.033,62.033,0,0,1,139.4,46.8,62.03,62.03,0,0,1,98.6,31.554,62.311,62.311,0,0,1,44.89,73.469a62.028,62.028,0,0,1,5.734,26.1c0,1.443-.064,2.87-.161,4.288" transform="translate(-14.777 -10.093)" fill="#eab750"/>
      </g>
    </g>
    <g id="Group_1207873" data-name="Group 1207873" transform="translate(20.36 21.292)">
      <g id="Group_1207872" data-name="Group 1207872" clip-path="url(#clip-path-2)">
        <path id="Path_1277813" data-name="Path 1277813" d="M102.831,173.782l.394-4.9-10.691-1.97-.45,6.246s8.1,2.589,10.748.619" transform="translate(-50.244 -75.514)" fill="#e5aa89"/>
        <path id="Path_1277814" data-name="Path 1277814" d="M137.289,171.175h13.505c11.31,0,14.856,5.571,14.518,19.245s0,60.435,0,60.435H114.331V196.666s-7.09,16.375-12.83,20.089-16.712,2.532-14.18-19.582S89.853,170.5,89.853,170.5s2.026,5.908,12.155,2.7l-1.519,23.3s7.175-15.12,9.454-19.582c4.136-8.1,27.348-5.74,27.348-5.74" transform="translate(-48.576 -76.677)" fill="#33434f"/>
        <path id="Path_1277815" data-name="Path 1277815" d="M95.781,179.474c1.309,2.81,1.181,6.2.872,9.2-.565,5.492-1.573,10.957-.134,16.411.5,1.9,1.447,4.742,3.725,5.111,2.831.459,5.344-2.061,6.88-4.124,2.792-3.75,4.975-9.351,9.788-10.913a.341.341,0,0,1,.415.236c1.745,5.717-.008,11.985.513,17.852.493,5.559,1.845,12.46,6.376,16.233,5.328,4.437,13.184,4.517,19.571,2.722a25.025,25.025,0,0,0,9.237-4.474c3.466-2.887,5.366-7.066,6.416-11.377.554-2.273.756-4.622,1.421-6.865.527-1.776,1.047-3.555,1.525-5.345a85.981,85.981,0,0,0,2.533-12.435c.65-5.727.468-11.654-1.57-16.931-2.3-2.359-5.768-3.432-10.73-3.432H139.116s-23.212-2.363-27.348,5.74c-2.278,4.463-9.454,19.582-9.454,19.582l1.519-23.3c-6.763,2.142-9.911.219-11.258-1.294.583,2.584,2,4.814,3.205,7.4" transform="translate(-50.404 -76.847)" fill="#3d4e59"/>
        <path id="Path_1277816" data-name="Path 1277816" d="M142.826,184.092a63,63,0,0,0,7.006,19.667c4.136,7.681,6.724,8.272,6.724,8.272s4.586-3.039,8.216-14.1c3.158-9.622,2.545-21.541.887-26.588h-10.34a82.156,82.156,0,0,0-11.585-.2c-.758,2.886-1.84,8.278-.907,12.945" transform="translate(-66.605 -76.849)" fill="#e5e8ea"/>
        <rect id="Rectangle_411478" data-name="Rectangle 411478" width="11.479" height="10.72" transform="translate(82.805 88.336)" fill="#f4cfa2"/>
        <path id="Path_1277817" data-name="Path 1277817" d="M164.229,167.805v-5.43H152.75v4.108a11.436,11.436,0,0,0,11.479,1.322" transform="translate(-69.945 -74.039)" fill="#e5aa89"/>
        <path id="Path_1277818" data-name="Path 1277818" d="M156.5,176.669l7.765-.169s.338,4.389-3.461,4.727-4.3-4.558-4.3-4.558" transform="translate(-71.163 -78.626)" fill="#3f7266"/>
        <path id="Path_1277819" data-name="Path 1277819" d="M116.486,80.3c.311-13.049,12.27-23.788,27.4-23.634,22,.225,27.4,10.581,27.4,23.634s-10.525,26.335-25.66,26.335S115.7,113.387,116.486,80.3" transform="translate(-58.159 -39.709)" fill="#625a70"/>
        <path id="Path_1277820" data-name="Path 1277820" d="M171.825,86.536a2.525,2.525,0,0,0-1.995-.206,58.737,58.737,0,0,1-16.755,2.193,58.4,58.4,0,0,1-16.922-2.245,2.6,2.6,0,0,0-1.7.016,7.367,7.367,0,0,0-4.791,6.9V120.01c0,12.444,10.088,19.831,22.533,19.831,11.756,0,20.692-6.674,20.987-18.426l1.359-30.057a5.4,5.4,0,0,0-2.72-4.823" transform="translate(-62.449 -49.283)" fill="#f4cfa2"/>
        <path id="Path_1277821" data-name="Path 1277821" d="M133.407,91.3c5.9-1.661,11.556,1.2,17.3,2.1,4.114.646,8.554.832,12.572-.459,1.934-.621,3.846-1.312,5.818-1.81a15.813,15.813,0,0,1,5.391-.635,5.4,5.4,0,0,0-2.666-3.957,2.525,2.525,0,0,0-1.995-.206,58.737,58.737,0,0,1-16.755,2.193,58.4,58.4,0,0,1-16.922-2.245,2.6,2.6,0,0,0-1.7.016,7.367,7.367,0,0,0-4.791,6.9v.535a7,7,0,0,1,3.74-2.432" transform="translate(-62.449 -49.283)" fill="#e5aa89"/>
        <path id="Path_1277822" data-name="Path 1277822" d="M126.024,120.162s-3.039-8.553-9.116-5.064-.225,14.405,3.939,15.193,4.84-1.688,4.84-1.688Z" transform="translate(-57.455 -58.414)" fill="#f4cfa2"/>
        <path id="Path_1277823" data-name="Path 1277823" d="M135.99,92.4a3.636,3.636,0,0,1,.957.3c.289.109.631.244,1.009.4l.592.243a1.018,1.018,0,0,0,.284.093.59.59,0,0,0,.274-.038.577.577,0,0,0,.224-.163.992.992,0,0,0,.14-.263l.258-.585c.166-.373.319-.707.452-.986a3.615,3.615,0,0,1,.481-.881,3.7,3.7,0,0,1-.3.958c-.109.288-.244.63-.4,1.008-.077.189-.159.387-.243.592a1.234,1.234,0,0,1-.177.332.829.829,0,0,1-.741.3,1.224,1.224,0,0,1-.358-.117l-.585-.258c-.373-.166-.706-.319-.985-.452a3.686,3.686,0,0,1-.881-.481" transform="translate(-64.502 -50.703)" fill="#351c17"/>
        <path id="Path_1277824" data-name="Path 1277824" d="M146.3,96.1a3.668,3.668,0,0,1-.957-.3c-.289-.109-.631-.244-1.009-.4l-.592-.244a1.227,1.227,0,0,1-.332-.176.829.829,0,0,1-.3-.742,1.265,1.265,0,0,1,.117-.358l.258-.585c.167-.373.319-.706.452-.985a3.641,3.641,0,0,1,.481-.881,3.669,3.669,0,0,1-.3.957c-.109.289-.244.631-.4,1.009l-.244.592a1.01,1.01,0,0,0-.092.283.563.563,0,0,0,.2.5,1,1,0,0,0,.263.14l.585.259c.373.166.706.319.985.452a3.629,3.629,0,0,1,.881.481" transform="translate(-66.812 -50.999)" fill="#351c17"/>
        <path id="Path_1277825" data-name="Path 1277825" d="M135.077,95.445a3.636,3.636,0,0,1,.957.3c.289.109.631.244,1.009.4l.592.243a1.23,1.23,0,0,1,.332.177.827.827,0,0,1,.3.742,1.232,1.232,0,0,1-.117.357l-.258.585c-.166.373-.319.707-.452.985a3.683,3.683,0,0,1-.481.881,3.608,3.608,0,0,1,.3-.958c.11-.288.244-.631.4-1.009l.243-.592a1,1,0,0,0,.093-.283.563.563,0,0,0-.2-.5,1.016,1.016,0,0,0-.263-.14l-.585-.258c-.373-.166-.706-.319-.985-.452a3.658,3.658,0,0,1-.881-.481" transform="translate(-64.206 -52.301)" fill="#351c17"/>
        <path id="Path_1277826" data-name="Path 1277826" d="M144.671,99.857a3.668,3.668,0,0,1-.957-.3c-.289-.109-.631-.244-1.009-.4l-.592-.244a1.011,1.011,0,0,0-.283-.092.59.59,0,0,0-.274.037.584.584,0,0,0-.224.163,1,1,0,0,0-.14.263l-.258.585c-.166.373-.319.706-.452.985a3.625,3.625,0,0,1-.481.881,3.669,3.669,0,0,1,.3-.957c.109-.289.244-.631.4-1.009l.242-.592a1.232,1.232,0,0,1,.177-.332.834.834,0,0,1,.742-.3,1.266,1.266,0,0,1,.358.117l.585.259c.373.166.706.319.985.452a3.686,3.686,0,0,1,.881.481" transform="translate(-65.803 -53.309)" fill="#351c17"/>
        <path id="Path_1277827" data-name="Path 1277827" d="M180.25,119.264c0-1.8.756-3.263,1.688-3.263s1.688,1.461,1.688,3.263-.756,3.263-1.688,3.263-1.688-1.462-1.688-3.263" transform="translate(-78.876 -58.979)" fill="#351c17"/>
        <path id="Path_1277828" data-name="Path 1277828" d="M148.666,120.264c0-1.8.756-3.263,1.688-3.263s1.688,1.461,1.688,3.263-.756,3.263-1.688,3.263-1.688-1.462-1.688-3.263" transform="translate(-68.619 -59.303)" fill="#351c17"/>
        <path id="Path_1277829" data-name="Path 1277829" d="M143.581,108.912a18.5,18.5,0,0,1,2.054.982,18.974,18.974,0,0,0,3.889,1.241c1.207.25,1.854.327,2.189.422s.366.178.365.281-.04.2-.4.244a7.769,7.769,0,0,1-2.306-.22,13.7,13.7,0,0,1-3.975-1.5,5.165,5.165,0,0,1-1.815-1.449" transform="translate(-66.967 -56.673)" fill="#351c17"/>
        <path id="Path_1277830" data-name="Path 1277830" d="M183.988,106.915a4.461,4.461,0,0,1-1.342,1.907,8.573,8.573,0,0,1-3.757,2.062,6.1,6.1,0,0,1-2.332.233c-.363-.059-.4-.163-.39-.263s.04-.187.377-.262.979-.127,2.157-.427a9.787,9.787,0,0,0,3.6-1.74c1-.777,1.585-1.579,1.686-1.51" transform="translate(-77.55 -56.027)" fill="#351c17"/>
        <path id="Path_1277831" data-name="Path 1277831" d="M165.5,131.679c-.022-.109.8-.211,1.91-.783a2.147,2.147,0,0,0,1.242-1.483,10.4,10.4,0,0,0-.278-2.652c-.788-3.851-1.667-6.954-1.467-7.012.16-.049,1.332,2.96,2.135,6.884a9.3,9.3,0,0,1,.228,2.891,2.142,2.142,0,0,1-.681,1.2,4.195,4.195,0,0,1-3.089.957" transform="translate(-74.086 -60.196)" fill="#351c17"/>
        <path id="Path_1277832" data-name="Path 1277832" d="M119.951,122.143a2.979,2.979,0,0,1-.07-1.388,2.759,2.759,0,0,1,.18-.717,1.465,1.465,0,0,1,.569-.717,1.343,1.343,0,0,1,1.045-.123,2.825,2.825,0,0,1,.955.492,6.641,6.641,0,0,1,2.26,3.9,5.87,5.87,0,0,1,.009,2.369,3.873,3.873,0,0,1-.208.585,2.04,2.04,0,0,1-.4.521,1.455,1.455,0,0,1-1.231.4,2.11,2.11,0,0,1-1.572-1.283,2.847,2.847,0,0,1-.182-1.493,1.768,1.768,0,0,1,.479-1.061,1.356,1.356,0,0,1,.739-.373,1.245,1.245,0,0,1,.75.077c.11.059.118.115.106.164s-.038.092-.143.123-.3.045-.585.145a1.01,1.01,0,0,0-.666,1,2.308,2.308,0,0,0,.167,1.122,1.424,1.424,0,0,0,1.007.843c.456.08.886-.308,1.03-.948a5.374,5.374,0,0,0,.023-2.066A6.278,6.278,0,0,0,122.3,120.1c-.472-.407-1.065-.644-1.466-.42a1.691,1.691,0,0,0-.671,1.126c-.173.81-.148,1.337-.215,1.336" transform="translate(-59.26 -60)" fill="#351c17"/>
        <path id="Path_1277833" data-name="Path 1277833" d="M151.718,178.88l4.389-6.162s-3.545-1.35-5.233-3.545v-3.8a4.024,4.024,0,0,0-3.883,3.967c-.084,3.8-.084,4.727,4.727,9.538" transform="translate(-68.069 -75.013)" fill="#fff"/>
        <path id="Path_1277834" data-name="Path 1277834" d="M159.872,180.417a157.2,157.2,0,0,0-3.207,30.049l4.5,4.614,3.826-3.939s-.675-22.058-3.263-30.668Z" transform="translate(-71.216 -79.898)" fill="#3f7266"/>
        <path id="Path_1277835" data-name="Path 1277835" d="M143.672,171.076c-.9.026-1.815.071-2.747.137-4.976,6.853-4.677,18.719-4.677,18.719l6.246,3.039-4.3,3.123c6.5,15.446,16.346,15.953,16.346,15.953-10.939-15.94-12.259-31.065-11.789-38.152a4.493,4.493,0,0,1,.924-2.819" transform="translate(-64.585 -76.864)" fill="#33434f"/>
        <path id="Path_1277836" data-name="Path 1277836" d="M163.333,212.184c11.366-1.266,14.377-15.109,14.377-15.109l-4.22-4.22,4.474-1.773c.6-11.832-3.583-18.277-4.534-19.582H169.2a8.122,8.122,0,0,0,1.756.675c1.773.506,2.195,10.382-.253,22.283s-7.372,17.725-7.372,17.725" transform="translate(-73.382 -77.002)" fill="#33434f"/>
        <path id="Path_1277837" data-name="Path 1277837" d="M168.153,165.824s2.209.372,2.715.963a9.035,9.035,0,0,1,1.435,4.558c0,1.773-4.052,6.33-4.052,6.33l-3.376-4.9,3.292-3.292Z" transform="translate(-73.883 -75.159)" fill="#fff"/>
        <path id="Path_1277838" data-name="Path 1277838" d="M160.875,240.9a1.773,1.773,0,1,1,1.773,1.773,1.772,1.772,0,0,1-1.773-1.773" transform="translate(-72.584 -98.963)" fill="#26323a"/>
        <path id="Path_1277839" data-name="Path 1277839" d="M193.5,173.776v78.143h6.415s-.338-46.761,0-60.435c.238-9.623-1.452-15.229-6.415-17.708" transform="translate(-83.179 -77.741)" fill="#3d4e59"/>
        <path id="Path_1277840" data-name="Path 1277840" d="M92.035,114.487l9.743-5.654,11.648,30.724L102,145.521l-10.932-28.3a2.235,2.235,0,0,1,.964-2.74" transform="translate(-49.866 -56.651)" fill="#3d4e59"/>
        <path id="Path_1277841" data-name="Path 1277841" d="M107.333,160.1l11.367-6.19,2.139-.2-.338,2.222L110.034,161.5a2.188,2.188,0,0,1-2.7-1.407" transform="translate(-55.196 -71.224)" fill="#33434f"/>
        <path id="Path_1277842" data-name="Path 1277842" d="M107,108.834l2.7.45,11.31,29.6s.816,1.744-.619,2.476c-.857.436-1.744-1.8-1.744-1.8Z" transform="translate(-55.088 -56.651)" fill="#26323a"/>
        <path id="Path_1277843" data-name="Path 1277843" d="M102.081,140.587s3.77,6.415,2.983,11.029-4.333,6.921-9.229,5.908-7.146-5.908-7.6-14.856,5.289-11.367,8.947-14.011,6.64-2.588,7.372-.956-2.476,12.886-2.476,12.886" transform="translate(-48.987 -62.407)" fill="#f4cfa2"/>
        <path id="Path_1277844" data-name="Path 1277844" d="M101.857,162.055a8.524,8.524,0,0,1-6.448-2,19.361,19.361,0,0,1-7-14.719,16.449,16.449,0,0,0-.171,3.428c.45,8.947,2.7,13.843,7.6,14.856,3.214.664,5.838-.108,7.49-2.018a6.551,6.551,0,0,1-1.468.449" transform="translate(-48.988 -68.507)" fill="#e5aa89"/>
        <path id="Path_1277845" data-name="Path 1277845" d="M98.084,137.463a91.479,91.479,0,0,1,8.553-5.289c2.757-1.294,5.627,1.407,3.545,4.389l-7.878,5.4" transform="translate(-52.193 -64.123)" fill="#f4cfa2"/>
        <path id="Path_1277846" data-name="Path 1277846" d="M102.75,142.624s6.133-3.883,8.553-4.671,3.263,3.376.506,5.121a42.73,42.73,0,0,0-5.121,3.883" transform="translate(-53.708 -66.076)" fill="#f4cfa2"/>
        <path id="Path_1277847" data-name="Path 1277847" d="M107.333,148.989s2.7-2.082,4.727-3.376,3.545.394,3.77,1.97-6.021,5.964-6.021,5.964" transform="translate(-55.196 -68.446)" fill="#f4cfa2"/>
        <path id="Path_1277848" data-name="Path 1277848" d="M218.446,88.334l-13.055,9.341,5.176,3.714-5.4,6.528,9.679-6.865-4.5-3.714Z" transform="translate(-86.967 -49.994)" fill="#fff"/>
        <path id="Path_1277849" data-name="Path 1277849" d="M227.2,111.334l-11.029.113.45,6.077-9.791,1.351,12.6,1.125-.675-6.64Z" transform="translate(-87.509 -57.463)" fill="#fff"/>
        <path id="Path_1277850" data-name="Path 1277850" d="M169.117,141.967a26.713,26.713,0,0,0-5.137.919,20.919,20.919,0,0,1-6.8.19,30.908,30.908,0,0,0-4.153-.49,3.846,3.846,0,1,0,0,7.675,37.547,37.547,0,0,0,5.644-.767,20.448,20.448,0,0,1,7.2-.124,18.976,18.976,0,0,0,2.572.271c2.268,0,2.757-1.718,2.757-3.837s.186-3.837-2.082-3.837" transform="translate(-68.7 -67.411)" fill="#fff"/>
      </g>
    </g>
    <g id="Group_1207875" data-name="Group 1207875" transform="translate(100.576 95.848)">
      <g id="Group_1207874" data-name="Group 1207874" clip-path="url(#clip-path-3)">
        <path id="Path_1277852" data-name="Path 1277852" d="M163.343,147.957c-1.616-.006-3.226-.017-4.833-.046-3.463.034-6.928.088-10.4.1a1.38,1.38,0,0,0-.159.011,2.4,2.4,0,0,0-.011.462,1.427,1.427,0,0,0,.17.014c7.78-.016,15.548-.271,23.318,0a.922.922,0,0,0,.494-.088c-1.622-.645-6.9-.441-8.582-.448" transform="translate(-148.598 -143.897)" fill="#686362"/>
      </g>
    </g>
    <g id="Group_1207877" data-name="Group 1207877" transform="translate(0.219 -0.17)">
      <g id="Group_1207876" data-name="Group 1207876" clip-path="url(#clip-path)">
        <path id="Path_1277854" data-name="Path 1277854" d="M281.461,297.283s-17.542-.416-22.268,18.941-7.428,47.718-8.328,48.618S209,378.8,209,378.8l4.727,15.981s37.138-7.2,47.492-12.155,14.18-25.435,14.18-25.435Z" transform="translate(-68.071 -96.388)" fill="#fff"/>
        <path id="Path_1277855" data-name="Path 1277855" d="M273.746,329.939c-1.421,7.125-2.429,14.2-4.654,21.152-2.76,8.62-6.192,17.051-12.3,23.866-5.7,6.357-12.955,11.737-21.1,14.473a48.35,48.35,0,0,1-17.282,2.037,26.846,26.846,0,0,1-6.682-.889l2.886,9.759s37.138-7.2,47.492-12.155,14.18-25.435,14.18-25.435l4.893-48.346c-4.194,4.086-6.294,9.839-7.431,15.536" transform="translate(-68.956 -101.948)" fill="#e5e8ea"/>
        <path id="Path_1277856" data-name="Path 1277856" d="M329.884,295.79c19.92-.928,35.451,1.885,38.32,6.246,3.417,5.193-4.22,111.332-4.22,111.332H295.333l1.361-101.077c.12-8.894,3.911-15.406,12.8-15.55Z" transform="translate(-96.108 -95.846)" fill="#589f8f"/>
        <path id="Path_1277857" data-name="Path 1277857" d="M368.2,302.37c-1.737-2.639-8.117-4.71-17.295-5.729.363,7.613,1.609,15.162,2.134,22.771a67.719,67.719,0,0,1-.327,14.889c-.663,4.334-1.723,9-4.218,12.694a20.223,20.223,0,0,1-7.4,6.486,36.627,36.627,0,0,1-9.917,3.18,36.667,36.667,0,0,0-5.671,1.54,11.82,11.82,0,0,0-2.431,1.207c-.824.571-1.119.454-.265.978a21.546,21.546,0,0,0,6.644,2.228c3.765.845,9.861,1.482,11.949,5.315,2.673,4.906-2.075,10.666-6.073,13.053-5.892,3.518-13.32,4.886-20.122,4.91-6.2.022-12.267-1.515-17.038-5.631a29.438,29.438,0,0,1-2.356-2.286l-.482,35.728h68.651s7.638-106.139,4.22-111.332" transform="translate(-96.108 -96.18)" fill="#3f7266"/>
        <path id="Path_1277858" data-name="Path 1277858" d="M340.8,295.79l-11.822.551c-.228,8.306.512,27.328,11.034,38.023,0,0,11.817-16.8,11.7-37.814,0-.307-.009-.605-.02-.9-3.433-.082-7.084-.043-10.9.136" transform="translate(-107.023 -95.846)" fill="#e5e8ea"/>
        <path id="Path_1277859" data-name="Path 1277859" d="M325.864,309a26.011,26.011,0,0,0,8.216-5.852,13.957,13.957,0,0,1-2.476-8.216v-4.3s-5.374.928-6.387,5.993.647,12.379.647,12.379" transform="translate(-105.706 -94.226)" fill="#fff"/>
        <path id="Path_1277860" data-name="Path 1277860" d="M357.457,289.125v5.149a18.921,18.921,0,0,1-3.207,9.116s2.954,4.051,5.74,4.98a20.564,20.564,0,0,0,2.195-15.615c-.76-2.87-4.727-3.629-4.727-3.629" transform="translate(-115.241 -93.739)" fill="#fff"/>
        <path id="Path_1277861" data-name="Path 1277861" d="M389.309,303.158s6.528,2.927,10.354,18.907,9.9,43.442,8.1,54.02-15.981,14.18-24.084,4.5S365,331.069,365,331.069s7.428.675,18.007-6.077l1.575,3.826s-2.588-5.74-1.238-15.531,3.488-11.367,5.965-10.129" transform="translate(-118.732 -98.178)" fill="#fff"/>
        <path id="Path_1277862" data-name="Path 1277862" d="M407.811,368.66c-4.469-2.213-7.458-6.84-9.693-11.126A86,86,0,0,1,392.039,342a125.674,125.674,0,0,1-4.189-19.844,146.631,146.631,0,0,1-.682-15.646,29.394,29.394,0,0,1,.03-3.5c-1.569.644-2.906,3.465-3.854,10.34-1.217,8.823.759,14.34,1.163,15.348l-1.5-3.644C372.427,331.816,365,331.141,365,331.141s10.579,39.84,18.682,49.518,22.283,6.077,24.084-4.5a35.927,35.927,0,0,0,.255-7.4c-.07-.031-.139-.059-.209-.093" transform="translate(-118.731 -98.251)" fill="#e5e8ea"/>
        <path id="Path_1277863" data-name="Path 1277863" d="M339.667,370.363a2.363,2.363,0,1,1,2.363,2.363,2.363,2.363,0,0,1-2.363-2.363" transform="translate(-110.505 -119.354)" fill="#fff"/>
        <path id="Path_1277864" data-name="Path 1277864" d="M339.833,403.2a2.363,2.363,0,1,1,2.363,2.363,2.363,2.363,0,0,1-2.363-2.363" transform="translate(-110.559 -130.016)" fill="#fff"/>
        <path id="Path_1277865" data-name="Path 1277865" d="M334.467,287.905V282.25H350.28l.506,4.642s3.629,12.83-8.187,17.472a21.047,21.047,0,0,1-5.655-3.939c-3.545-3.151-3.854-10.242-2.476-12.52" transform="translate(-108.569 -91.506)" fill="#f4cfa2"/>
        <path id="Path_1277866" data-name="Path 1277866" d="M351.076,288.3a13.812,13.812,0,0,0-.288-1.408l-.506-4.642H334.47v5.655a8.71,8.71,0,0,0-.739,4.487c4.57.292,12.264-1.836,17.345-4.092" transform="translate(-108.572 -91.506)" fill="#e5aa89"/>
        <path id="Path_1277867" data-name="Path 1277867" d="M308.737,149.63S288.479,140.852,277,166.286a26.509,26.509,0,0,1,13.055-1.576s-9.9,6.077-9.9,14.631,9.678,20.933,19.807,25.66,52.895,12.155,56.721-9.229-13.505-49.743-47.943-46.142" transform="translate(-90.154 -47.963)" fill="#625a70"/>
        <path id="Path_1277868" data-name="Path 1277868" d="M285.083,228.878c0-8.764,5.357-16.544,10.3-16.544s2.7,6.316,2.7,15.08,1.565,15.982-3.376,15.982-9.622-5.754-9.622-14.519" transform="translate(-92.779 -68.801)" fill="#589f8f"/>
        <path id="Path_1277869" data-name="Path 1277869" d="M297.952,212.334a5.849,5.849,0,0,0-2.846.812A82.668,82.668,0,0,0,293,231.925a85.133,85.133,0,0,0,.6,10.376,7.013,7.013,0,0,0,3.673,1.095c4.941,0,3.376-7.218,3.376-15.982s2.24-15.08-2.7-15.08" transform="translate(-95.35 -68.801)" fill="#3f7266"/>
        <path id="Path_1277870" data-name="Path 1277870" d="M323.549,249.191h0c-15.069-1.335-26.2-10.582-24.868-25.651l2.228-29.2c1.392-15.7,13.225-27.308,28.929-25.917l32.706,2.718a.931.931,0,0,1,.845,1.009l-4.855,53.261c-1.6,18.091-16.893,25.381-34.985,23.778" transform="translate(-97.159 -54.505)" fill="#f4cfa2"/>
        <path id="Path_1277871" data-name="Path 1277871" d="M312.389,177.762c2.153-1.132,5.081-2.018,7.3-.5,3.363,2.307,4.878,6.4,8.361,8.62a46.43,46.43,0,0,0,13.323,5.39,57.449,57.449,0,0,0,15.812,1.812,29.135,29.135,0,0,0,7.944-1.062l1.812-19.871a.93.93,0,0,0-.845-1.009l-32.707-2.718a25.426,25.426,0,0,0-23.888,11.29,16.894,16.894,0,0,1,2.892-1.953" transform="translate(-100.707 -54.505)" fill="#e5aa89"/>
        <path id="Path_1277872" data-name="Path 1277872" d="M328.276,158.56s10.354,21.608,38.264,20.482c0,0-4.5,20.933,4.727,29.261s20.708-29.937,5.627-52.445S328.052,143.423,324,147.531c0,0,.45,3.376,4.276,11.029" transform="translate(-105.417 -45.864)" fill="#625a70"/>
        <path id="Path_1277873" data-name="Path 1277873" d="M386,140.782a17.782,17.782,0,1,1,17.781,17.781A17.782,17.782,0,0,1,386,140.782" transform="translate(-125.552 -39.79)" fill="#625a70"/>
        <path id="Path_1277874" data-name="Path 1277874" d="M366.959,209.461a6.832,6.832,0,0,1-2.735.529,10.652,10.652,0,0,1-5.067-.915,5.963,5.963,0,0,1-1.558-1.051,3.328,3.328,0,0,1-.646-.795c-.213-.406-.12-.527-.01-.581s.215-.084.52.169c.161.12.363.313.693.558a7.693,7.693,0,0,0,1.409.867,12.423,12.423,0,0,0,4.661,1.093,14.229,14.229,0,0,1,2.734.128" transform="translate(-116.077 -66.942)" fill="#351c17"/>
        <path id="Path_1277875" data-name="Path 1277875" d="M309.333,209.257c0-.064.3-.122.791-.172l.865-.073,1.072-.116a24.042,24.042,0,0,0,2.439-.418,11.934,11.934,0,0,0,2.246-.78,6.438,6.438,0,0,0,2.008-1.466c.261-.275.353-.273.483-.239s.243.137.075.584a4.132,4.132,0,0,1-2.16,1.956,10.271,10.271,0,0,1-2.473.781,16.765,16.765,0,0,1-2.575.236l-1.105-.02c-.334-.02-.632-.056-.879-.084-.494-.063-.788-.126-.786-.19" transform="translate(-100.654 -66.737)" fill="#351c17"/>
        <path id="Path_1277876" data-name="Path 1277876" d="M310,237.83c.111.106-.822,1.263-1.474,1.947s-.779.635-.889.529-.166-.23.487-.914,1.765-1.67,1.877-1.563" transform="translate(-100.08 -77.078)" fill="#351c17"/>
        <path id="Path_1277877" data-name="Path 1277877" d="M313.331,237.83c.111.106-.821,1.263-1.474,1.947s-.778.635-.889.529-.166-.23.487-.914,1.765-1.67,1.877-1.563" transform="translate(-101.163 -77.078)" fill="#351c17"/>
        <path id="Path_1277878" data-name="Path 1277878" d="M371.513,237.445c.111.107-.821,1.264-1.474,1.947s-.778.635-.889.529-.166-.23.487-.914,1.765-1.669,1.876-1.563" transform="translate(-120.057 -76.954)" fill="#351c17"/>
        <path id="Path_1277879" data-name="Path 1277879" d="M374.847,237.445c.111.107-.821,1.264-1.474,1.947s-.778.635-.889.529-.165-.23.487-.914,1.765-1.669,1.877-1.563" transform="translate(-121.14 -76.954)" fill="#351c17"/>
        <path id="Path_1277880" data-name="Path 1277880" d="M335.062,247.731c-.047.076-.51-.1-1.091-.633a3.792,3.792,0,0,1-.836-1.128,2.755,2.755,0,0,1-.228-1.769,3.055,3.055,0,0,1,.872-1.54,4.854,4.854,0,0,1,1.118-.816c.691-.363,1.173-.443,1.2-.359s-.366.324-.945.764a3.892,3.892,0,0,0-1.584,2.089,3.044,3.044,0,0,0,.753,2.436c.441.567.79.877.735.958" transform="translate(-108.291 -78.258)" fill="#351c17"/>
        <path id="Path_1277881" data-name="Path 1277881" d="M329.125,263.97c0-2.145,2.442-4.093,6.289-4.093s7.765,2.244,7.765,4.388-3.245,2.6-7.09,2.7c-5.064.126-6.964-.853-6.964-3" transform="translate(-107.081 -84.241)" fill="#bc3558"/>
        <path id="Path_1277882" data-name="Path 1277882" d="M318.843,222.171c0-2.843-1.159-4.505-2.588-4.505s-2.588,1.662-2.588,4.505v1.287c0,2.844,1.159,4.505,2.588,4.505s2.588-1.661,2.588-4.505Z" transform="translate(-102.061 -70.533)" fill="#351c17"/>
        <path id="Path_1277883" data-name="Path 1277883" d="M362.76,221.671c0-2.843-1.159-4.505-2.588-4.505s-2.589,1.662-2.589,4.505v1.287c0,2.844,1.159,4.505,2.589,4.505s2.588-1.661,2.588-4.505Z" transform="translate(-116.323 -70.37)" fill="#351c17"/>
        <path id="Path_1277884" data-name="Path 1277884" d="M383.155,249.674a1.346,1.346,0,0,0-1.4,1.3,10.842,10.842,0,0,1-3.792,7.081c-3.976,3.536-10.43,5-19.179,4.339a1.35,1.35,0,1,0-.2,2.693q2.126.16,4.091.159c7.526,0,13.284-1.754,17.151-5.23a13.531,13.531,0,0,0,4.631-8.95,1.349,1.349,0,0,0-1.3-1.388" transform="translate(-116.242 -80.927)" fill="#42221d"/>
        <path id="Path_1277885" data-name="Path 1277885" d="M358.522,265.875h-5.233a3.039,3.039,0,1,0,0,6.077h5.233a3.039,3.039,0,1,0,0-6.077" transform="translate(-113.942 -86.189)" fill="#351c17"/>
        <path id="Path_1277886" data-name="Path 1277886" d="M372.365,150.818a34.912,34.912,0,0,0-15.1-9.009c-3.813-1.043-12.254-1.381-19.763,1.562,6.171-.577,22.124-.863,32.432,9.8,13.158,13.6,10.026,38.836,4.961,51.546a1.688,1.688,0,1,0,3.137,1.25c5.591-14.03,8.695-40.292-5.671-55.144" transform="translate(-109.803 -45.655)" fill="#589f8f"/>
        <path id="Path_1277887" data-name="Path 1277887" d="M381.909,225.691c1.673-8.436,5.219-14.966,13.722-13.153,5.888,1.255,9.334,8.961,7.661,17.4s-7.786,14.149-13.723,13.153c-8.772-1.469-9.335-8.96-7.661-17.4" transform="translate(-123.98 -68.769)" fill="#3f7266"/>
        <path id="Path_1277888" data-name="Path 1277888" d="M403.5,216.991a5.411,5.411,0,0,0-2.679-1.527c-6.3-1.36-9.125,4.475-10.6,11.934s-1.265,14.028,5.244,15.079c4.364.706,9.031-4.383,10.558-11.731,1.03-5.412-.049-10.494-2.518-13.756" transform="translate(-126.677 -69.753)" fill="#589f8f"/>
        <path id="Path_1277889" data-name="Path 1277889" d="M396.807,226.781l-1.257-.494a.253.253,0,0,0-.328.142,28.374,28.374,0,0,0-1.214,4.059.254.254,0,0,0,.191.3l1.317.3a.227.227,0,0,0,.056.007.253.253,0,0,0,.135-.039.25.25,0,0,0,.111-.158,26.471,26.471,0,0,1,1.13-3.791.249.249,0,0,0,0-.193.255.255,0,0,0-.139-.135" transform="translate(-128.15 -73.327)" fill="#fff"/>
        <path id="Path_1277890" data-name="Path 1277890" d="M401.419,220.07l-.732-1.135a.253.253,0,0,0-.35-.075,7.837,7.837,0,0,0-2.043,1.974.253.253,0,0,0,.054.354l1.087.8a.259.259,0,0,0,.151.049.253.253,0,0,0,.038,0,.25.25,0,0,0,.165-.1,6.034,6.034,0,0,1,1.554-1.514.253.253,0,0,0,.075-.35" transform="translate(-129.528 -70.907)" fill="#fff"/>
        <path id="Path_1277891" data-name="Path 1277891" d="M371.849,320.247c6.374-.406,6.865-9.116,6.3-16.544s-3.376-13.843-6.19-17.444-10.269-12.211-12.97-10.269.675,6.077,3.629,9.2,3.714,4.136,3.714,4.136-8.1,16.966-8.525,17.979-.058,7.328,3.883,10.466c4.558,3.629,7.062,2.673,10.157,2.476" transform="translate(-116.352 -89.382)" fill="#f4cfa2"/>
        <path id="Path_1277892" data-name="Path 1277892" d="M366.619,294.857S358.263,293,354.127,293s-4.55,5.878,1.182,7.343c6.274,1.6,6.387,1.548,6.387,1.548" transform="translate(-114.189 -94.997)" fill="#f4cfa2"/>
        <path id="Path_1277893" data-name="Path 1277893" d="M361.837,302.646s-6.021-1.126-10.129-1.576-6.246,4.9-1.688,6.921l7.315,1.745" transform="translate(-113.036 -97.609)" fill="#f4cfa2"/>
        <path id="Path_1277894" data-name="Path 1277894" d="M357.645,311.484a79.071,79.071,0,0,0-8.328-1.069c-3.039-.113-3.771,2.363-3.1,5.852s2.814,5.8,5.74,6.134c.9.056,2.307.225,2.307.225a10.1,10.1,0,0,1-.253-4.051Z" transform="translate(-112.558 -100.652)" fill="#f4cfa2"/>
        <path id="Path_1277895" data-name="Path 1277895" d="M383.057,337.069l-1.913-5.4s-5.515,5.4-15.644,6.415l2.251,7.315s13.505-3.827,15.306-8.328" transform="translate(-118.894 -107.554)" fill="#3d4e59"/>
        <path id="Path_1277896" data-name="Path 1277896" d="M407.766,386.761a35.339,35.339,0,0,0,.265-7.157c-1.463,5.16-3.722,7.832-7.129.968l-17.894-44.9C372.428,342.42,365,341.744,365,341.744s10.579,39.84,18.682,49.518,22.283,6.077,24.084-4.5" transform="translate(-118.732 -108.853)" fill="#fff"/>
        <path id="Path_1277897" data-name="Path 1277897" d="M391.995,392.018c-7.009-3.429-10.634-9.764-14.042-16.466a43.375,43.375,0,0,1-4.6-13.658,72.18,72.18,0,0,1-.673-7.736c-.07-2.1.043-4.222-.159-6.31-.136-1.416-.534-3.211-.088-4.6.33-1.029,1.26-1.311,2.256-1.492,3.318-.6,6.259-2.346,7.468-5.3C372.032,342.636,365,342,365,342s10.579,39.84,18.682,49.518c6.729,8.037,17.642,6.911,22.183.241a14.348,14.348,0,0,1-13.871.26" transform="translate(-118.732 -109.108)" fill="#e5e8ea"/>
      </g>
    </g>
    <g id="Group_1207879" data-name="Group 1207879" transform="translate(0.219 -0.17)">
      <g id="Group_1207878" data-name="Group 1207878" clip-path="url(#clip-path-5)">
        <path id="Path_1277898" data-name="Path 1277898" d="M209.177,387.78h-95.2a4.419,4.419,0,0,1-4.383-3.856l-8.993-69.94A4.42,4.42,0,0,1,104.981,309h97a4.419,4.419,0,0,1,4.4,3.967l7.194,69.941a4.42,4.42,0,0,1-4.4,4.872" transform="translate(-32.856 -100.193)" fill="#3d4e59"/>
        <path id="Path_1277899" data-name="Path 1277899" d="M199.014,315.667h-97.4a4.241,4.241,0,0,0-1.035.132c.005.116.01.232.025.35l8.993,69.94a4.419,4.419,0,0,0,4.383,3.856h95.2a4.4,4.4,0,0,0,1.263-.188l-7.231-70.3a4.223,4.223,0,0,0-4.2-3.792" transform="translate(-32.861 -102.358)" fill="#4a5d68"/>
        <path id="Path_1277900" data-name="Path 1277900" d="M166.333,364.428a7.428,7.428,0,1,1,7.428,7.428,7.428,7.428,0,0,1-7.428-7.428" transform="translate(-54.215 -115.781)" fill="#fff"/>
        <path id="Path_1277901" data-name="Path 1277901" d="M289.376,425.292h-173.4a1.477,1.477,0,0,0-1.477,1.478v1.771a1.477,1.477,0,0,0,1.477,1.478h173.4a1.478,1.478,0,0,0,1.478-1.478V426.77a1.479,1.479,0,0,0-1.479-1.478" transform="translate(-37.383 -137.959)" fill="#283842"/>
        <path id="Path_1277902" data-name="Path 1277902" d="M336.464,430.018H260.977a1.477,1.477,0,0,1-1.477-1.478v-1.771a1.478,1.478,0,0,1,1.477-1.478h75.488a1.479,1.479,0,0,1,1.478,1.478v1.771a1.478,1.478,0,0,1-1.479,1.478" transform="translate(-84.471 -137.958)" fill="#33434f"/>
        <rect id="Rectangle_411480" data-name="Rectangle 411480" width="254.795" height="58.522" transform="translate(47.295 296.139)" fill="#eab750"/>
        <rect id="Rectangle_411481" data-name="Rectangle 411481" width="134.375" height="58.522" transform="translate(167.714 296.139)" fill="#f9db5a"/>
        <path id="Path_1277903" data-name="Path 1277903" d="M326.854,439.995H62.83a4.164,4.164,0,1,1,0-8.328H326.854a4.164,4.164,0,1,1,0,8.328" transform="translate(-19.25 -140.029)" fill="#6b3d1b"/>
      </g>
    </g>
  </g>
</svg>
