<svg xmlns="http://www.w3.org/2000/svg" width="78.783" height="74.474" viewBox="0 0 78.783 74.474">
  <g id="Group_1203478" data-name="Group 1203478" transform="translate(0.5 0.5)">
    <path id="Path_1241371" data-name="Path 1241371" d="M484.6,199.89h55.3a7.185,7.185,0,0,1,7.182,7.182v33.037a7.185,7.185,0,0,1-7.182,7.182H510.83l-16.892,19.391,1.982-19.391H484.6a7.185,7.185,0,0,1-7.182-7.182V207.072A7.185,7.185,0,0,1,484.6,199.89Z" transform="translate(-468.802 -192.708)" fill="#5825b3" opacity="0.3"/>
    <g id="Group_1200392" data-name="Group 1200392" transform="translate(0 0)">
      <path id="Path_1241430" data-name="Path 1241430" d="M490.6,194.89h55.3a7.185,7.185,0,0,1,7.182,7.182v33.037a7.185,7.185,0,0,1-7.182,7.182H516.831l-16.892,19.391,1.982-19.391H490.6a7.185,7.185,0,0,1-7.182-7.182V202.072A7.185,7.185,0,0,1,490.6,194.89Z" transform="translate(-483.42 -194.89)" fill="#fff" stroke="#20154c" stroke-linecap="round" stroke-linejoin="round" stroke-width="1"/>
      <g id="Group_1200391" data-name="Group 1200391" transform="translate(16.029 11.922)">
        <path id="Path_1241431" data-name="Path 1241431" d="M517.645,203.19c4.726,0,8.029,2.557,8.029,7.282,0,4.4-3.16,6.765-7.627,6.809l-.172,2.557h-5.1L512.6,213.5h2.04c3.2,0,5.415-.575,5.372-3.06a2.294,2.294,0,0,0-2.456-2.485,2.378,2.378,0,0,0-2.585,2.585H509.5c-.1-4.079,2.758-7.354,8.13-7.354Zm-2.255,25.481a3.222,3.222,0,0,1-3.476-3.131,3.267,3.267,0,0,1,3.476-3.2,3.178,3.178,0,1,1,0,6.334Z" transform="translate(-488.602 -203.19)" fill="#d1026e"/>
        <path id="Path_1241432" data-name="Path 1241432" d="M502.979,228.671c-4.726,0-8.029-2.557-8.029-7.282,0-4.4,3.16-6.765,7.627-6.808l.172-2.557h5.1l.172,6.334h-2.04c-3.2,0-5.415.575-5.372,3.06a2.294,2.294,0,0,0,2.456,2.485,2.378,2.378,0,0,0,2.586-2.585h5.473c.1,4.079-2.758,7.354-8.13,7.354Zm2.241-25.481a3.222,3.222,0,0,1,3.476,3.131,3.267,3.267,0,0,1-3.476,3.2,3.178,3.178,0,1,1,0-6.334Z" transform="translate(-494.95 -203.19)" fill="#d1026e"/>
      </g>
    </g>
  </g>
</svg>
