<svg xmlns="http://www.w3.org/2000/svg" width="132.647" height="87.645" viewBox="0 0 132.647 87.645">
  <g id="Group_1203482" data-name="Group 1203482" transform="translate(0.5 0.5)">
    <path id="Path_1241372" data-name="Path 1241372" d="M333.512,203.02H441.241a7.185,7.185,0,0,1,7.182,7.182v32.319a7.185,7.185,0,0,1-7.182,7.182H392.1l-11.19,32.319.574-32.319H333.512a7.185,7.185,0,0,1-7.182-7.182V210.2a7.185,7.185,0,0,1,7.182-7.182Z" transform="translate(-316.276 -194.876)" fill="#d1026e" opacity="0.2"/>
    <g id="Group_1200390" data-name="Group 1200390" transform="translate(0 0)">
      <path id="Path_1241429" data-name="Path 1241429" d="M340.512,197.35H448.241a7.185,7.185,0,0,1,7.182,7.182v32.319a7.185,7.185,0,0,1-7.182,7.182H399.1l-11.189,32.319.575-32.319H340.512a7.185,7.185,0,0,1-7.182-7.182V204.532A7.185,7.185,0,0,1,340.512,197.35Z" transform="translate(-333.33 -197.35)" fill="#fff" stroke="#20154c" stroke-linecap="round" stroke-linejoin="round" stroke-width="1"/>
      <path id="Path_1278199" data-name="Path 1278199" d="M14.07-14.742V0H10.479V-6.069H4.893V0H1.3V-14.742H4.893v5.775h5.586v-5.775ZM24.086.168a6.468,6.468,0,0,1-3.1-.735,5.382,5.382,0,0,1-2.163-2.1,6.275,6.275,0,0,1-.788-3.192,6.225,6.225,0,0,1,.8-3.182,5.415,5.415,0,0,1,2.184-2.11,6.53,6.53,0,0,1,3.108-.735,6.53,6.53,0,0,1,3.108.735,5.415,5.415,0,0,1,2.184,2.11,6.225,6.225,0,0,1,.8,3.182,6.161,6.161,0,0,1-.809,3.181A5.467,5.467,0,0,1,27.2-.567,6.592,6.592,0,0,1,24.086.168Zm0-3.108A2.339,2.339,0,0,0,25.839-3.7a3,3,0,0,0,.725-2.163,3.059,3.059,0,0,0-.7-2.163,2.273,2.273,0,0,0-1.732-.756,2.279,2.279,0,0,0-1.743.745,3.082,3.082,0,0,0-.693,2.174A3.12,3.12,0,0,0,22.374-3.7,2.209,2.209,0,0,0,24.086-2.94Zm13.733-12.6V0H34.227V-15.54Zm3.989,9.66a7,7,0,0,1,.682-3.171,5.091,5.091,0,0,1,1.859-2.1,4.852,4.852,0,0,1,2.625-.735,4.509,4.509,0,0,1,2.174.5,3.713,3.713,0,0,1,1.438,1.323v-1.659h3.591V0H50.585V-1.659A3.878,3.878,0,0,1,49.125-.336a4.509,4.509,0,0,1-2.174.5,4.765,4.765,0,0,1-2.6-.746A5.152,5.152,0,0,1,42.489-2.7,7.07,7.07,0,0,1,41.807-5.88Zm8.778.021a2.936,2.936,0,0,0-.746-2.121,2.422,2.422,0,0,0-1.816-.777,2.438,2.438,0,0,0-1.817.767,2.9,2.9,0,0,0-.745,2.111,2.974,2.974,0,0,0,.745,2.131,2.407,2.407,0,0,0,1.817.788,2.422,2.422,0,0,0,1.816-.777A2.936,2.936,0,0,0,50.585-5.859ZM63.6-15.267l-.42,10.059H60.138l-.42-10.059ZM61.713.168A2.177,2.177,0,0,1,60.17-.389a1.8,1.8,0,0,1-.6-1.376,1.86,1.86,0,0,1,.6-1.407,2.153,2.153,0,0,1,1.544-.567,2.125,2.125,0,0,1,1.522.567,1.86,1.86,0,0,1,.6,1.407,1.8,1.8,0,0,1-.6,1.376A2.148,2.148,0,0,1,61.713.168Z" transform="translate(32.134 30.618)" fill="#d1026e"/>
    </g>
  </g>
</svg>
