<svg xmlns="http://www.w3.org/2000/svg" xmlns:xlink="http://www.w3.org/1999/xlink" width="104" height="104" viewBox="0 0 104 104">
  <defs>
    <clipPath id="clip-path">
      <rect id="Rectangle_411425" data-name="Rectangle 411425" width="96.41" height="96.314" fill="none"/>
    </clipPath>
  </defs>
  <g id="Group_1207845" data-name="Group 1207845" transform="translate(1888 -1142)">
    <rect id="Rectangle_411436" data-name="Rectangle 411436" width="104" height="104" transform="translate(-1888 1142)" fill="none"/>
    <g id="Group_1207835" data-name="Group 1207835" transform="translate(-1881.286 1145.843)">
      <g id="Group_1207834" data-name="Group 1207834" clip-path="url(#clip-path)">
        <path id="Path_1277692" data-name="Path 1277692" d="M75.594,53.816l0,16.849A9.935,9.935,0,0,0,85.531,80.6h20.335a9.935,9.935,0,0,0,9.935-9.936V53.813a20.1,20.1,0,1,0-40.206,0Z" transform="translate(-61.36 -27.363)" fill="#fcdd2e"/>
        <path id="Path_1277693" data-name="Path 1277693" d="M104.792,230.816a5.42,5.42,0,0,1-3.986-5.222l-.01-11.436-16.379.014.01,11.436a5.419,5.419,0,0,1-3.975,5.229l-8.68,2.4c0,7.285,11.936,15.057,20.816,15.057,8.9,0,20.844-8.539,20.844-15.1Z" transform="translate(-58.258 -173.832)" fill="#ffece3"/>
        <path id="Path_1277694" data-name="Path 1277694" d="M184.167,229.45a5.42,5.42,0,0,0,3.986,5.222L201,238.2a10.843,10.843,0,0,1,1.377.481,9.372,9.372,0,0,0,2.279-5.493l-8.641-2.372a5.42,5.42,0,0,1-3.986-5.222l-.01-11.436-7.861.007Z" transform="translate(-149.482 -173.831)" fill="#ffddce"/>
        <rect id="Rectangle_411423" data-name="Rectangle 411423" width="13.786" height="11.107" transform="translate(40.656 24.395)" fill="#7c8b96"/>
        <rect id="Rectangle_411424" data-name="Rectangle 411424" width="12.555" height="11.107" transform="translate(14.234 24.395)" fill="#7c8b96"/>
        <path id="Path_1277695" data-name="Path 1277695" d="M104.946,92.008l.056,9.967c.008,9.657,10.15,15.041,14.539,15.131,4.389-.1,14.521-5.5,14.513-15.156l.031-18.654-21.32.018v.861A7.826,7.826,0,0,1,104.946,92.008Z" transform="translate(-85.185 -67.611)" fill="#ffece3"/>
        <path id="Path_1277696" data-name="Path 1277696" d="M173.163,83.3l-.031,18.648c.006,7.428-5.987,12.338-10.751,14.253a11.332,11.332,0,0,0,3.78.9c4.389-.1,14.522-5.5,14.513-15.156L180.7,83.3Z" transform="translate(-131.805 -67.611)" fill="#ffddce"/>
        <path id="Path_1277697" data-name="Path 1277697" d="M147.233,33.711a20.049,20.049,0,0,0-7.4,1.4,4.9,4.9,0,0,0-.752,2.62c.006,7.408,6.017,13.409,13.426,14.035l14.722-.011A20.106,20.106,0,0,0,147.233,33.711Z" transform="translate(-112.895 -27.363)" fill="#fbd307"/>
        <path id="Path_1277698" data-name="Path 1277698" d="M54.752,41.59V32.54a20.1,20.1,0,1,1,40.206,0V41.59a4.835,4.835,0,0,0,4.835-4.835V32.437a24.938,24.938,0,1,0-49.877,0v4.314A4.836,4.836,0,0,0,54.752,41.59Z" transform="translate(-40.517 -6.088)" fill="#8c9ba6"/>
        <path id="Path_1277699" data-name="Path 1277699" d="M73.426,326.8a10.821,10.821,0,0,0-7.956-10.426l-4.207-1.155a24.1,24.1,0,0,1-41.66.047l-4.165,1.151A10.82,10.82,0,0,0,7.5,326.859l.018,20.531a3.38,3.38,0,0,0,3.383,3.377l59.167-.051a3.38,3.38,0,0,0,3.377-3.383Z" transform="translate(-6.088 -255.865)" fill="#80b4fb"/>
        <path id="Path_1277700" data-name="Path 1277700" d="M288.674,326.8a10.821,10.821,0,0,0-7.956-10.426l-4.207-1.155a24.191,24.191,0,0,1-3.829,4.964l.173.047a10.821,10.821,0,0,1,7.956,10.426l.017,20.061,4.487,0a3.38,3.38,0,0,0,3.377-3.383Z" transform="translate(-221.335 -255.865)" fill="#61a2f9"/>
        <path id="Path_1277701" data-name="Path 1277701" d="M231.831,377.336H189.35V352.7a2.613,2.613,0,0,1,2.613-2.613h37.255a2.613,2.613,0,0,1,2.613,2.613v24.636Z" transform="translate(-153.695 -284.166)" fill="#f4f8f8"/>
        <path id="Path_1277702" data-name="Path 1277702" d="M368.166,350.088h-7.634a2.613,2.613,0,0,1,2.613,2.613v24.636h7.634V352.7a2.613,2.613,0,0,0-2.613-2.613" transform="translate(-292.644 -284.166)" fill="#e5ecf1"/>
        <path id="Path_1277703" data-name="Path 1277703" d="M216.97,480.947h-44.5a2.673,2.673,0,0,1,0-5.347h44.5a2.673,2.673,0,0,1,0,5.347" transform="translate(-137.827 -386.045)" fill="#e5ecf1"/>
        <path id="Path_1277704" data-name="Path 1277704" d="M361.308,7.5h-18.5a6.6,6.6,0,0,0-6.6,6.6v7.924a6.6,6.6,0,0,0,5.08,6.421,1.983,1.983,0,0,1,1.511,1.938v5.795a.6.6,0,0,0,1.086.353l5.154-7.088a2,2,0,0,1,1.617-.823h10.642a6.6,6.6,0,0,0,6.6-6.6V14.1a6.6,6.6,0,0,0-6.6-6.6" transform="translate(-272.907 -6.088)" fill="#a1e42c"/>
        <path id="Path_1277705" data-name="Path 1277705" d="M366.812,119.781a2,2,0,0,1,.83,1.627V127.2a.6.6,0,0,0,1.086.353l5.155-7.088a2,2,0,0,1,1.617-.823h-8.589Z" transform="translate(-297.741 -97.116)" fill="#95d528"/>
        <path id="Path_1277706" data-name="Path 1277706" d="M450.82,7.5h-4.326a3.352,3.352,0,0,1,3.352,3.352V25.266a3.352,3.352,0,0,1-3.352,3.352h4.326a6.6,6.6,0,0,0,6.6-6.6V14.1a6.6,6.6,0,0,0-6.6-6.6" transform="translate(-362.419 -6.088)" fill="#95d528"/>
        <path id="Path_1277707" data-name="Path 1277707" d="M116.159,216.039h-5.648a2.646,2.646,0,0,1,0-5.292h5.648a2.646,2.646,0,1,1,0,5.292" transform="translate(-87.554 -171.063)" fill="#fc5692"/>
        <path id="Path_1277708" data-name="Path 1277708" d="M387.55,39.479H371.407a1.412,1.412,0,1,0,0,2.824H387.55a1.412,1.412,0,0,0,0-2.824" transform="translate(-300.325 -32.045)"/>
        <path id="Path_1277709" data-name="Path 1277709" d="M387.55,72.485H371.407a1.412,1.412,0,1,0,0,2.825H387.55a1.412,1.412,0,0,0,0-2.825" transform="translate(-300.325 -58.836)"/>
        <path id="Path_1277710" data-name="Path 1277710" d="M355.222,0h-9.247a1.412,1.412,0,0,0,0,2.825h9.247a5.19,5.19,0,0,1,5.184,5.184v7.924a5.19,5.19,0,0,1-5.184,5.184H344.58a3.421,3.421,0,0,0-2.759,1.405l-3.687,5.069v-3.3a3.379,3.379,0,0,0-2.6-3.313,5.161,5.161,0,0,1-3.991-5.046V8.009a5.19,5.19,0,0,1,5.184-5.184h2.726a1.412,1.412,0,0,0,0-2.825h-2.726a8.018,8.018,0,0,0-8.008,8.009v7.924a7.975,7.975,0,0,0,6.169,7.8.572.572,0,0,1,.422.563v5.795a2.013,2.013,0,0,0,3.641,1.184l5.155-7.088a.588.588,0,0,1,.475-.242h10.642a8.017,8.017,0,0,0,8.008-8.008V8.009A8.018,8.018,0,0,0,355.222,0Z" transform="translate(-266.821)"/>
        <path id="Path_1277711" data-name="Path 1277711" d="M79.548,88.163V68.534a4.03,4.03,0,0,0-4.025-4.025H66.914a12.279,12.279,0,0,0-7.158-5.36L46.908,55.622a3.99,3.99,0,0,1-1.732-1A11.338,11.338,0,0,0,55.854,43.3V36.754a6.249,6.249,0,0,0,4.835-6.087V26.349a26.35,26.35,0,1,0-52.7,0c0,16.469,0,13.08,0,13.554a3.741,3.741,0,0,0,3.737,3.737h1.109A11.36,11.36,0,0,0,23.561,54.631a3.986,3.986,0,0,1-1.743,1.012L8.974,59.193A12.265,12.265,0,0,0,0,70.995L.017,91.526A4.8,4.8,0,0,0,4.81,96.314h0c51.409,0-60.974-.014,74.33,0a4.086,4.086,0,0,0,.4-8.151ZM63.372,64.509H53.117A25.455,25.455,0,0,0,55.826,61l3.182.874a9.428,9.428,0,0,1,4.363,2.636M15.648,40.819v-3.9h2.979a14.614,14.614,0,0,0,.946,3.181,4.048,4.048,0,0,0-.38.725H15.648ZM50.3,25.811l2.72,0c.023.685.007.38.013,8.281H50.282ZM39.676,23c-6.77-.6-12.068-6.136-12.074-12.624a3.507,3.507,0,0,1,.331-1.489A18.717,18.717,0,0,1,52.7,22.985Zm-14.9-12.614a14.905,14.905,0,0,0,1.389,6.262,6.42,6.42,0,0,1-6.358,6.34H15.967A18.714,18.714,0,0,1,24.778,10.382ZM15.648,34.09V26.452c0-.216,0-.431.012-.645h2.7L18.4,34.09H15.648Zm7.31,7.006h5.648a1.234,1.234,0,1,1,0,2.468H22.957a1.234,1.234,0,0,1,0-2.468m9.706,1.234A4.063,4.063,0,0,0,28.6,38.272H22.957a4.043,4.043,0,0,0-1.016.134,11.81,11.81,0,0,1-.712-4.049L21.181,25.7a9.266,9.266,0,0,0,7.138-5.671c.253.3.516.6.794.888a16.377,16.377,0,0,0,10.383,4.9c.04,0,.079,0,.119,0h0l7.855-.006-.014,8.527a13.336,13.336,0,0,1-5.638,10.521c-.021.013-3.988,3.122-7.464,3.222a12.653,12.653,0,0,1-5.2-1.737A4.061,4.061,0,0,0,32.663,42.33Zm11.843,9.494h-.543c0-.021,0-.042,0-.063l0-5.006a16.5,16.5,0,0,0,6.1-9.84h2.975V43.3A8.518,8.518,0,0,1,44.507,51.823Zm-10.169-49A23.553,23.553,0,0,1,57.863,26.349v4.318a3.414,3.414,0,0,1-2.01,3.116V26.45a21.668,21.668,0,0,0-.11-2.186l0-.027a21.516,21.516,0,0,0-42.917,2.216v7.328a3.426,3.426,0,0,1-2.011-3.115V26.353A23.513,23.513,0,0,1,34.337,2.825ZM10.812,39.907V35.889a6.218,6.218,0,0,0,2.012.863V40.82h-1.1a.913.913,0,0,1-.912-.912m13.36,11.916a8.532,8.532,0,0,1-8.514-8.179h3.464a4.062,4.062,0,0,0,3.836,2.744H24.29q.228.2.463.386l0,5c0,.015,0,.031,0,.046Zm-1.6,6.543a6.85,6.85,0,0,0,5.011-6.591l0-3.077a15.234,15.234,0,0,0,6.748,2.209h.06a15.425,15.425,0,0,0,6.745-2.216l0,3.072a6.851,6.851,0,0,0,5.024,6.583l6.793,1.865a22.717,22.717,0,0,1-3.9,4.3H38.268a4.03,4.03,0,0,0-4.025,4.025v1.41a22.788,22.788,0,0,1-18.5-9.691ZM4.812,93.49h0a1.97,1.97,0,0,1-1.968-1.966L2.824,70.992a9.433,9.433,0,0,1,6.9-9.076l3.141-.868A25.485,25.485,0,0,0,34.242,72.769v3.479a1.412,1.412,0,0,0,2.824,0V68.535a1.2,1.2,0,0,1,1.2-1.2H75.523a1.2,1.2,0,0,1,1.2,1.2V88.143H37.067v-5.3a1.412,1.412,0,1,0-2.824,0v5.32a4.085,4.085,0,0,0-3.489,5.3l-16.759.015V85.587a1.412,1.412,0,1,0-2.825,0v7.9Zm74.332,0h-44.5c-.043,0-.086,0-.128-.006-.026,0-.052-.009-.078-.012a1.26,1.26,0,0,1,.206-2.5h44.5a1.261,1.261,0,0,1,0,2.522" transform="translate(0)"/>
      </g>
    </g>
  </g>
</svg>
