<svg xmlns="http://www.w3.org/2000/svg" xmlns:xlink="http://www.w3.org/1999/xlink" width="107.479" height="117.092" viewBox="0 0 107.479 117.092">
  <defs>
    <filter id="Rectangle_410591" x="0" y="0" width="73" height="117.092" filterUnits="userSpaceOnUse">
      <feOffset dy="3" input="SourceAlpha"/>
      <feGaussianBlur stdDeviation="3" result="blur"/>
      <feFlood flood-opacity="0.161"/>
      <feComposite operator="in" in2="blur"/>
      <feComposite in="SourceGraphic"/>
    </filter>
  </defs>
  <g id="Group_1207732" data-name="Group 1207732" transform="translate(-242.85 -5760.451)">
    <g id="Group_1200292" data-name="Group 1200292">
      <g transform="matrix(1, 0, 0, 1, 242.85, 5760.45)" filter="url(#Rectangle_410591)">
        <path id="Rectangle_410591-2" data-name="Rectangle 410591" d="M10,0H45A10,10,0,0,1,55,10V99.092a0,0,0,0,1,0,0H0a0,0,0,0,1,0,0V10A10,10,0,0,1,10,0Z" transform="translate(9 6)" fill="#7fe5cf"/>
      </g>
    </g>
    <g id="customer-service_8734856" transform="translate(264.604 5780.288)">
      <g id="Group_1203359" data-name="Group 1203359" transform="translate(0 0)">
        <path id="Path_1260781" data-name="Path 1260781" d="M79.482,7.5h0A20.787,20.787,0,0,0,58.695,28.287v4.387h41.574V28.287A20.787,20.787,0,0,0,79.482,7.5Z" transform="translate(-49.913 -7.5)" fill="#ffe177"/>
        <path id="Path_1260782" data-name="Path 1260782" d="M169.518,7.5h0a21.032,21.032,0,0,0-2.144.109,20.789,20.789,0,0,1,18.643,20.677v4.387h4.288V28.287A20.787,20.787,0,0,0,169.518,7.5Z" transform="translate(-139.949 -7.5)" fill="#ffd15b"/>
        <path id="Path_1260783" data-name="Path 1260783" d="M56.913,312.282,48.8,310.864,39.81,315.81A5.962,5.962,0,0,1,34,315.778l-8.694-4.91-8.088,1.413A11.745,11.745,0,0,0,7.5,323.852v18.093a2.136,2.136,0,0,0,2.136,2.136H64.5a2.136,2.136,0,0,0,2.136-2.136V323.852A11.745,11.745,0,0,0,56.913,312.282Z" transform="translate(-7.498 -258.825)" fill="#fd8087"/>
        <path id="Path_1260784" data-name="Path 1260784" d="M125.835,244.479l8.989-4.946-2.673-.467a2.136,2.136,0,0,1-1.768-2.1v-12.2H115.8v12.2a2.136,2.136,0,0,1-1.768,2.1l-2.7.472,8.694,4.91A5.962,5.962,0,0,0,125.835,244.479Z" transform="translate(-93.523 -187.495)" fill="#ffd3b6"/>
        <path id="Path_1260785" data-name="Path 1260785" d="M222.69,312.32l-8.069-1.41-6.949,3.824,10.729,1.875a11.745,11.745,0,0,1,9.724,11.57v13.8a2.136,2.136,0,0,1-2.136,2.136h4.288a2.136,2.136,0,0,0,2.136-2.136V323.89A11.745,11.745,0,0,0,222.69,312.32Z" transform="translate(-173.334 -258.863)" fill="#fe646f"/>
        <path id="Path_1260786" data-name="Path 1260786" d="M153.377,239.063a2.136,2.136,0,0,1-1.768-2.1v-12.2H137.028v10.63a15.324,15.324,0,0,0,9.5,1.688.688.688,0,0,1,.792.677v3.492a2.136,2.136,0,0,0,1.768,2.1l.058.01,6.949-3.824Z" transform="translate(-114.809 -187.491)" fill="#f9b995"/>
        <path id="Path_1260787" data-name="Path 1260787" d="M156.9,434.584h-8.468a1.372,1.372,0,0,1-1.372-1.372v-5.52a1.372,1.372,0,0,1,1.372-1.372H156.9a1.372,1.372,0,0,1,1.372,1.372v5.52A1.372,1.372,0,0,1,156.9,434.584Z" transform="translate(-123.12 -354.475)" fill="#ffe177"/>
        <path id="Path_1260788" data-name="Path 1260788" d="M22.719,191.935h0a.78.78,0,0,1-.543-1.339q.158-.155.31-.318a9.586,9.586,0,0,0,2.337-4.611,29.658,29.658,0,0,1,1.869-5.895,27.416,27.416,0,0,1,6.768-9.446,4.011,4.011,0,0,1,2.673-1.019v9.2A13.424,13.424,0,0,1,22.719,191.935Z" transform="translate(-19.462 -141.55)" fill="#ffd15b"/>
        <path id="Path_1260789" data-name="Path 1260789" d="M92.853,136.02H50.9a1.384,1.384,0,0,1-1.383-1.383v-6.757A1.384,1.384,0,0,1,50.9,126.5H92.853a1.384,1.384,0,0,1,1.383,1.383v6.757A1.384,1.384,0,0,1,92.853,136.02Z" transform="translate(-42.305 -106.084)" fill="#8d9ca8"/>
        <path id="Path_1260790" data-name="Path 1260790" d="M117.663,89.051a19.353,19.353,0,0,1-10.971-3.389,1.031,1.031,0,0,0-1.168,0,19.353,19.353,0,0,1-10.971,3.389A19.551,19.551,0,0,1,92,88.884,1.028,1.028,0,0,0,90.835,89.9v12.385a15.274,15.274,0,0,0,15.274,15.274h0a15.274,15.274,0,0,0,15.274-15.274V89.9a1.028,1.028,0,0,0-1.165-1.019A19.559,19.559,0,0,1,117.663,89.051Z" transform="translate(-76.539 -72.104)" fill="#ffd3b6"/>
        <path id="Path_1260791" data-name="Path 1260791" d="M362.044,136.887l12.183-7.765-13.7-2.627-.062,9.517A1.029,1.029,0,0,0,362.044,136.887Z" transform="translate(-299.915 -106.084)" fill="#d8ecfe"/>
        <ellipse id="Ellipse_12609" data-name="Ellipse 12609" cx="15.578" cy="12.607" rx="15.578" ry="12.607" transform="translate(54.039 0)" fill="#eaf6ff"/>
        <path id="Path_1260792" data-name="Path 1260792" d="M281.459,126.5h-4.288a1.383,1.383,0,0,1,1.383,1.383v6.757a1.384,1.384,0,0,1-1.383,1.383h4.288a1.383,1.383,0,0,0,1.383-1.383v-6.757A1.384,1.384,0,0,0,281.459,126.5Z" transform="translate(-230.912 -106.084)" fill="#7a8c98"/>
        <path id="Path_1260793" data-name="Path 1260793" d="M183.628,105.274a19.553,19.553,0,0,1-2.555.167c-.361,0-.719-.013-1.075-.033a1.024,1.024,0,0,1,.506.884v12.385a15.276,15.276,0,0,1-13.13,15.123,15.4,15.4,0,0,0,2.144.151h0a15.274,15.274,0,0,0,15.274-15.274V106.293A1.028,1.028,0,0,0,183.628,105.274Z" transform="translate(-139.949 -88.495)" fill="#f9b995"/>
        <path id="Path_1260794" data-name="Path 1260794" d="M94.858,105.323c-.139-.015-.279-.03-.417-.048a1.025,1.025,0,0,0-.659.135C94.143,105.39,94.5,105.362,94.858,105.323Z" transform="translate(-78.981 -88.495)" fill="#ffcebf"/>
        <path id="Path_1260795" data-name="Path 1260795" d="M402.982,7.5a19.374,19.374,0,0,0-2.144.119c7.589.846,13.434,6.114,13.434,12.488S408.427,31.75,400.838,32.6a19.333,19.333,0,0,0,2.144.119c8.6,0,15.578-5.644,15.578-12.607S411.586,7.5,402.982,7.5Z" transform="translate(-333.365 -7.5)" fill="#d8ecfe"/>
        <path id="Path_1260796" data-name="Path 1260796" d="M164.7,211.386h-1.435a2.573,2.573,0,0,1-2.573-2.573h0a2.573,2.573,0,0,1,2.573-2.573H164.7a2.573,2.573,0,0,1,2.573,2.573h0A2.573,2.573,0,0,1,164.7,211.386Z" transform="translate(-134.412 -172.148)" fill="#7a8c98"/>
        <path id="Path_1260797" data-name="Path 1260797" d="M348.241,340.991l-7.36,7.371a12.3,12.3,0,0,1-17.417,0l-3.151-3.156,6.644-6.654,3,3.005a3.129,3.129,0,0,0,4.429,0l7.059-7.069a3.14,3.14,0,0,0,0-4.436l-3-3.005,6.644-6.654,3.152,3.156A12.346,12.346,0,0,1,348.241,340.991Z" transform="translate(-266.653 -266.72)" fill="#ffe177"/>
        <path id="Path_1260798" data-name="Path 1260798" d="M395.164,340.988l-7.361,7.371a12.281,12.281,0,0,1-10.852,3.424,12.246,12.246,0,0,0,6.563-3.424l7.361-7.371a12.345,12.345,0,0,0,0-17.442l-1.007-1.009,2.144-2.148,3.151,3.156A12.345,12.345,0,0,1,395.164,340.988Z" transform="translate(-313.576 -266.717)" fill="#ffd15b"/>
        <path id="Path_1260799" data-name="Path 1260799" d="M311.294,409.4l-7.4,7.513a.983.983,0,0,1-1.4-.02l-2.194-2.225a1.018,1.018,0,0,1-.02-1.424l7.4-7.513a.983.983,0,0,1,1.4.02l2.194,2.225A1.018,1.018,0,0,1,311.294,409.4Z" transform="translate(-249.818 -337.186)" fill="#eaf6ff"/>
        <path id="Path_1260800" data-name="Path 1260800" d="M416.741,303.981l-7.489,7.4a1.012,1.012,0,0,1-1.419-.02l-2.218-2.194a.985.985,0,0,1-.02-1.4l7.489-7.4a1.012,1.012,0,0,1,1.42.02l2.218,2.194A.985.985,0,0,1,416.741,303.981Z" transform="translate(-337.07 -249.893)" fill="#eaf6ff"/>
      </g>
      <g id="Group_1203361" data-name="Group 1203361" transform="translate(0.03 0)">
        <g id="Group_1203360" data-name="Group 1203360" transform="translate(0 0)">
          <path id="Path_1260801" data-name="Path 1260801" d="M32.422,182.01a27.719,27.719,0,0,0-5.553,8.287A29.6,29.6,0,0,0,25,196.191a9.579,9.579,0,0,1-2.338,4.613c-.1.108-.2.214-.309.317a.78.78,0,0,0,.542,1.338,13.425,13.425,0,0,0,13.353-12.116" transform="translate(-19.639 -152.075)" fill="none" stroke="#000" stroke-linecap="round" stroke-linejoin="round" stroke-miterlimit="10" stroke-width="1"/>
          <path id="Path_1260802" data-name="Path 1260802" d="M100.459,27.913a20.785,20.785,0,0,0-41.564,0" transform="translate(-50.109 -7.5)" fill="none" stroke="#000" stroke-linecap="round" stroke-linejoin="round" stroke-miterlimit="10" stroke-width="1"/>
          <path id="Path_1260803" data-name="Path 1260803" d="M269.085,126.5h5.705a1.383,1.383,0,0,1,1.383,1.383v6.757a1.383,1.383,0,0,1-1.383,1.383h-5.705" transform="translate(-224.243 -106.087)" fill="none" stroke="#000" stroke-linecap="round" stroke-linejoin="round" stroke-miterlimit="10" stroke-width="1"/>
          <path id="Path_1260804" data-name="Path 1260804" d="M56.773,136.022H51.068a1.383,1.383,0,0,1-1.383-1.383v-6.757a1.383,1.383,0,0,1,1.383-1.383h5.705" transform="translate(-42.479 -106.087)" fill="none" stroke="#000" stroke-linecap="round" stroke-linejoin="round" stroke-miterlimit="10" stroke-width="1"/>
          <line id="Line_579" data-name="Line 579" y1="13.797" x2="0.007" transform="translate(14.038 71.457)" fill="none" stroke="#000" stroke-linecap="round" stroke-linejoin="round" stroke-miterlimit="10" stroke-width="1"/>
          <path id="Path_1260805" data-name="Path 1260805" d="M117.835,89.051a19.353,19.353,0,0,1-10.971-3.389,1.031,1.031,0,0,0-1.168,0,19.353,19.353,0,0,1-10.971,3.389,19.551,19.551,0,0,1-2.555-.167A1.028,1.028,0,0,0,91.007,89.9v12.385a15.274,15.274,0,0,0,15.274,15.274h0a15.274,15.274,0,0,0,15.274-15.274V89.9a1.028,1.028,0,0,0-1.165-1.019A19.557,19.557,0,0,1,117.835,89.051Z" transform="translate(-76.712 -72.104)" fill="none" stroke="#000" stroke-linecap="round" stroke-linejoin="round" stroke-miterlimit="10" stroke-width="1"/>
          <line id="Line_580" data-name="Line 580" x1="0.007" y2="13.797" transform="translate(45.092 71.458)" fill="none" stroke="#000" stroke-linecap="round" stroke-linejoin="round" stroke-miterlimit="10" stroke-width="1"/>
          <line id="Line_581" data-name="Line 581" y2="1.544" transform="translate(36.67 24.402)" fill="none" stroke="#000" stroke-linecap="round" stroke-linejoin="round" stroke-miterlimit="10" stroke-width="1"/>
          <line id="Line_582" data-name="Line 582" y2="1.544" transform="translate(22.467 24.402)" fill="none" stroke="#000" stroke-linecap="round" stroke-linejoin="round" stroke-miterlimit="10" stroke-width="1"/>
          <path id="Path_1260806" data-name="Path 1260806" d="M111.5,310.865l8.694,4.909a5.967,5.967,0,0,0,5.807.033l8.989-4.947h0" transform="translate(-93.694 -258.822)" fill="none" stroke="#000" stroke-linecap="round" stroke-linejoin="round" stroke-miterlimit="10" stroke-width="1"/>
          <path id="Path_1260807" data-name="Path 1260807" d="M101.625,312.62l13.452,19.118,13.454-19.118" transform="translate(-85.509 -260.28)" fill="none" stroke="#000" stroke-linecap="round" stroke-linejoin="round" stroke-miterlimit="10" stroke-width="1"/>
          <path id="Path_1260808" data-name="Path 1260808" d="M157.074,434.584h-8.467a1.372,1.372,0,0,1-1.372-1.372v-5.52a1.372,1.372,0,0,1,1.372-1.372h8.467a1.372,1.372,0,0,1,1.372,1.372v5.52A1.372,1.372,0,0,1,157.074,434.584Z" transform="translate(-123.294 -354.475)" fill="none" stroke="#000" stroke-linecap="round" stroke-linejoin="round" stroke-miterlimit="10" stroke-width="1"/>
          <path id="Path_1260809" data-name="Path 1260809" d="M199.225,188.739h10.768a6.729,6.729,0,0,0,6.729-6.729" transform="translate(-166.367 -152.075)" fill="none" stroke="#000" stroke-linecap="round" stroke-linejoin="round" stroke-miterlimit="10" stroke-width="1"/>
          <path id="Path_1260810" data-name="Path 1260810" d="M164.872,211.386h-1.435a2.573,2.573,0,0,1-2.573-2.573h0a2.573,2.573,0,0,1,2.573-2.573h1.435a2.573,2.573,0,0,1,2.573,2.573h0A2.573,2.573,0,0,1,164.872,211.386Z" transform="translate(-134.586 -172.148)" fill="none" stroke="#000" stroke-linecap="round" stroke-linejoin="round" stroke-miterlimit="10" stroke-width="1"/>
          <path id="Path_1260811" data-name="Path 1260811" d="M371.064,143.191l-8.845,5.638a1.029,1.029,0,0,1-1.582-.875l.046-7.044" transform="translate(-300.09 -118.025)" fill="none" stroke="#000" stroke-linecap="round" stroke-linejoin="round" stroke-miterlimit="10" stroke-width="1"/>
          <path id="Path_1260812" data-name="Path 1260812" d="M323.155,18.832c.789-6.362,7.428-11.332,15.5-11.332,8.6,0,15.577,5.645,15.577,12.608s-6.975,12.606-15.577,12.606c-6.56,0-12.172-3.28-14.469-7.925" transform="translate(-269.038 -7.5)" fill="none" stroke="#000" stroke-linecap="round" stroke-linejoin="round" stroke-miterlimit="10" stroke-width="1"/>
          <line id="Line_583" data-name="Line 583" x2="18.263" transform="translate(60.485 12.607)" fill="none" stroke="#000" stroke-linecap="round" stroke-linejoin="round" stroke-miterlimit="10" stroke-width="1"/>
          <line id="Line_584" data-name="Line 584" x2="8.577" transform="translate(65.328 6.604)" fill="none" stroke="#000" stroke-linecap="round" stroke-linejoin="round" stroke-miterlimit="10" stroke-width="1"/>
          <line id="Line_585" data-name="Line 585" x2="8.577" transform="translate(65.328 18.611)" fill="none" stroke="#000" stroke-linecap="round" stroke-linejoin="round" stroke-miterlimit="10" stroke-width="1"/>
          <path id="Path_1260813" data-name="Path 1260813" d="M222.545,261.73v5.858a2.135,2.135,0,0,0,1.769,2.1l10.786,1.885a11.746,11.746,0,0,1,9.725,11.57v3.436" transform="translate(-185.686 -218.12)" fill="none" stroke="#000" stroke-linecap="round" stroke-linejoin="round" stroke-miterlimit="10" stroke-width="1"/>
          <path id="Path_1260814" data-name="Path 1260814" d="M7.675,457.21v5.976a2.135,2.135,0,0,0,2.136,2.136H64.677a2.139,2.139,0,0,0,2.11-1.8" transform="translate(-7.675 -380.067)" fill="none" stroke="#000" stroke-linecap="round" stroke-linejoin="round" stroke-miterlimit="10" stroke-width="1"/>
          <path id="Path_1260815" data-name="Path 1260815" d="M29.953,261.73v5.858a2.135,2.135,0,0,1-1.769,2.1L17.4,271.576a11.744,11.744,0,0,0-9.723,11.57v6.112" transform="translate(-7.675 -218.12)" fill="none" stroke="#000" stroke-linecap="round" stroke-linejoin="round" stroke-miterlimit="10" stroke-width="1"/>
          <path id="Path_1260816" data-name="Path 1260816" d="M311.467,409.4l-7.4,7.513a.983.983,0,0,1-1.4-.02l-2.194-2.225a1.018,1.018,0,0,1-.02-1.424l7.4-7.513a.983.983,0,0,1,1.4.02l2.194,2.225A1.018,1.018,0,0,1,311.467,409.4Z" transform="translate(-249.991 -337.186)" fill="none" stroke="#000" stroke-linecap="round" stroke-linejoin="round" stroke-miterlimit="10" stroke-width="1"/>
          <path id="Path_1260817" data-name="Path 1260817" d="M416.914,303.981l-7.489,7.4a1.012,1.012,0,0,1-1.419-.02l-2.218-2.194a.985.985,0,0,1-.02-1.4l7.489-7.4a1.012,1.012,0,0,1,1.419.02l2.218,2.194A.985.985,0,0,1,416.914,303.981Z" transform="translate(-337.244 -249.893)" fill="none" stroke="#000" stroke-linecap="round" stroke-linejoin="round" stroke-miterlimit="10" stroke-width="1"/>
          <path id="Path_1260818" data-name="Path 1260818" d="M375.261,363.73l2.221,2.225a3.14,3.14,0,0,1,0,4.436l-7.059,7.069a3.129,3.129,0,0,1-4.429,0l-2.22-2.223" transform="translate(-302.69 -302.623)" fill="none" stroke="#000" stroke-linecap="round" stroke-linejoin="round" stroke-miterlimit="10" stroke-width="1"/>
          <path id="Path_1260819" data-name="Path 1260819" d="M350.069,325.19l2.329,2.333a12.345,12.345,0,0,1,0,17.442l-7.361,7.371a12.3,12.3,0,0,1-17.416,0l-2.326-2.33" transform="translate(-270.811 -270.694)" fill="none" stroke="#000" stroke-linecap="round" stroke-linejoin="round" stroke-miterlimit="10" stroke-width="1"/>
        </g>
      </g>
    </g>
  </g>
</svg>
