<svg xmlns="http://www.w3.org/2000/svg" width="76.345" height="76.345" viewBox="0 0 76.345 76.345">
  <g id="Group_1204265" data-name="Group 1204265" transform="translate(-1021.691 -3093)">
    <g id="Group_1200255" data-name="Group 1200255" transform="translate(-0.275 0.345)">
      <g id="Group_1187152" data-name="Group 1187152">
        <g id="Group_1185946" data-name="Group 1185946" transform="translate(-3.07)">
          <g id="Group_1184280" data-name="Group 1184280">
            <g id="Group_1182168" data-name="Group 1182168">
              <g id="Group_1178877" data-name="Group 1178877">
                <g id="Group_1111311" data-name="Group 1111311">
                  <g id="Group_1098742" data-name="Group 1098742" transform="translate(1025.482 3093.101)">
                    <g id="Rectangle_400898" data-name="Rectangle 400898" transform="translate(-0.445 -0.445)" fill="#f8da30" stroke="#ad9721" stroke-width="1" opacity="0.859">
                      <rect width="76.345" height="76.345" rx="38.172" stroke="none"/>
                      <rect x="0.5" y="0.5" width="75.345" height="75.345" rx="37.672" fill="none"/>
                    </g>
                    <g id="Rectangle_400907" data-name="Rectangle 400907" transform="translate(-0.446 -0.445)" fill="none" stroke="#ad9721" stroke-width="1">
                      <rect width="76.345" height="76.345" rx="38.172" stroke="none"/>
                      <rect x="0.5" y="0.5" width="75.345" height="75.345" rx="37.672" fill="none"/>
                    </g>
                  </g>
                </g>
              </g>
            </g>
          </g>
        </g>
      </g>
    </g>
    <g id="customer-service_12558564" transform="translate(1018.127 3089.734)">
      <g id="Group_1203267" data-name="Group 1203267" transform="translate(7.501 7.5)">
        <path id="Path_1258859" data-name="Path 1258859" d="M188.691,228.544l2.231-2.555a9.345,9.345,0,0,0,.734-10.828l-2.529-4.222-19.155-.82v5.63a9.126,9.126,0,0,0,.984,10.131l2.238,2.883Z" transform="translate(-146.608 -182.157)" fill="#bc7c63"/>
        <g id="Group_1203260" data-name="Group 1203260" transform="translate(17.429 11.779)">
          <path id="Path_1258860" data-name="Path 1258860" d="M167.115,326.867v1.619a.69.69,0,0,1-.69.69l-3.305.414H151.7l-.977-.866-1.093.866H134.491a.69.69,0,0,1-.69-.69v-1.619a5.325,5.325,0,0,1,4.177-5.2l7.248-1.6H156.1l2.788.616,4.1,1.125C165.433,322.759,167.115,324.369,167.115,326.867Z" transform="translate(-133.801 -289.067)" fill="#eaf6ff"/>
          <path id="Path_1258861" data-name="Path 1258861" d="M227.471,256.222l-5.438,4.109-5.438-4.109a2.568,2.568,0,0,0,2.014-2.508v-7.779l6.848.818v6.961A2.568,2.568,0,0,0,227.471,256.222Z" transform="translate(-205.169 -224.809)" fill="#fcbbb4"/>
          <path id="Path_1258862" data-name="Path 1258862" d="M193.736,101.995c0,2.263,0,4.906-1.56,6.558a12.63,12.63,0,0,1-9.212,3.74c-6.457,0-11.693-4.359-11.693-9.737,0-5.088,4.685-9.264,10.658-9.7.341-.026.686.865,1.035.865s.7-.938,1.035-.865C188.613,93.857,193.736,96.906,193.736,101.995Z" transform="translate(-166.101 -92.851)" fill="#c68d7a"/>
          <path id="Path_1258863" data-name="Path 1258863" d="M274.16,102.58a8.718,8.718,0,0,1-2.481,6,4.182,4.182,0,0,1-1.242-3.162A14.2,14.2,0,0,0,263.5,92.88C269.476,93.316,274.16,97.492,274.16,102.58Z" transform="translate(-245.603 -92.876)" fill="#bc7c63"/>
          <path id="Path_1258864" data-name="Path 1258864" d="M187.638,190.2h-17.5a3.574,3.574,0,0,1-1.516-.335c-.789-.369-1.37-.262-1.72-1.062a8.193,8.193,0,0,1-.35-2.188v-1a1.892,1.892,0,0,1,1.892-1.892h20.888a1.892,1.892,0,0,1,1.892,1.892v1A3.586,3.586,0,0,1,187.638,190.2Z" transform="translate(-162.032 -171.183)" fill="#fcbbb4"/>
          <path id="Path_1258865" data-name="Path 1258865" d="M195.836,146.952v-1.33c0-4.656,4.746-7.844,8.129-8.56a.847.847,0,0,1,.348,0c3.435.718,8.129,3.83,8.129,8.56v1.695a11.574,11.574,0,0,1-7.275,10.746h0a2.767,2.767,0,0,1-2.056,0h0a11.574,11.574,0,0,1-7.275-10.746Z" transform="translate(-187.275 -130.945)" fill="#fecec8"/>
          <path id="Path_1258866" data-name="Path 1258866" d="M200.988,311.97l-4.6-4.278,1.217-1.942a1.668,1.668,0,0,1,2.765-.159l4.245,5.594-2.4,1A1.165,1.165,0,0,1,200.988,311.97Z" transform="translate(-187.753 -275.664)" fill="#8ac9fe"/>
          <path id="Path_1258867" data-name="Path 1258867" d="M259.631,311.97l4.6-4.278-1.216-1.942a1.668,1.668,0,0,0-2.765-.159L256,311.185l2.4,1A1.166,1.166,0,0,0,259.631,311.97Z" transform="translate(-239.137 -275.664)" fill="#8ac9fe"/>
        </g>
        <g id="Group_1203266" data-name="Group 1203266" transform="translate(0)">
          <g id="Group_1203261" data-name="Group 1203261" transform="translate(0 43.081)">
            <path id="Path_1258868" data-name="Path 1258868" d="M9.976,350.745l5.378,5.378,2.28,2.05a8.036,8.036,0,0,0,11.6-.116l1.018-1.018-5.72-5.72-2.172,2.172a2.2,2.2,0,0,1-3.107,0l-4.447-4.447c-1.172-1.172-1.251-2.642-.393-3.5l2.267-2.054-5.7-5.7L9.976,338.8A8.448,8.448,0,0,0,9.976,350.745Z" transform="translate(-7.502 -335.292)" fill="#8ac9fe"/>
            <path id="Path_1258869" data-name="Path 1258869" d="M123.221,420.641l3.912,3.912,2.622,2.346a.88.88,0,0,0,1.208-.17l1.024-1.024a.88.88,0,0,0,.17-1.208l-2.346-2.622-3.912-3.912a.88.88,0,0,0-1.208.17l-1.3,1.3A.88.88,0,0,0,123.221,420.641Z" transform="translate(-107.102 -404.25)" fill="#60b7ff"/>
            <path id="Path_1258870" data-name="Path 1258870" d="M25.111,322.532l3.912,3.912,2.622,2.346a.88.88,0,0,0,1.208-.17l1.024-1.024a.88.88,0,0,0,.17-1.208L31.7,323.766l-3.912-3.912a.88.88,0,0,0-1.208.17l-1.3,1.3A.88.88,0,0,0,25.111,322.532Z" transform="translate(-22.531 -319.681)" fill="#60b7ff"/>
          </g>
          <g id="Group_1203264" data-name="Group 1203264" transform="translate(2.474 47.029)">
            <g id="Group_1203262" data-name="Group 1203262" transform="translate(0 2.061)">
              <path id="Path_1258871" data-name="Path 1258871" d="M38.489,368.492l2.476,2.476a2.2,2.2,0,0,1,0-3.107l2.16-2.16-2.476-2.476-2.16,2.16A2.2,2.2,0,0,0,38.489,368.492Z" transform="translate(-36.133 -363.225)" fill="#60b7ff"/>
              <path id="Path_1258872" data-name="Path 1258872" d="M25.431,431.659h0l2.409,2.409Z" transform="translate(-25.431 -422.215)" fill="#60b7ff"/>
              <path id="Path_1258873" data-name="Path 1258873" d="M73.578,461.149l-1.018,1.018c-3.3,3.3-8.918,3.029-12.217-.27l2.76,2.76a8.448,8.448,0,0,0,11.947,0l1.018-1.018Z" transform="translate(-55.524 -447.635)" fill="#60b7ff"/>
            </g>
            <path id="Path_1258874" data-name="Path 1258874" d="M157.093,449.157l-2.76-2.76a.88.88,0,0,1-.17,1.208l-1.3,1.3a.88.88,0,0,1-1.208.17l2.76,2.76a.88.88,0,0,0,1.208-.17l1.3-1.3A.88.88,0,0,0,157.093,449.157Z" transform="translate(-134.236 -432.858)" fill="#26a6fe"/>
            <g id="Group_1203263" data-name="Group 1203263" transform="translate(3.88)">
              <path id="Path_1258875" data-name="Path 1258875" d="M58.983,351.047l-2.76-2.76a.88.88,0,0,1-.17,1.208l-1.3,1.3a.88.88,0,0,1-1.208.17l2.76,2.76a.88.88,0,0,0,1.208-.17l1.3-1.3A.88.88,0,0,0,58.983,351.047Z" transform="translate(-53.544 -348.287)" fill="#26a6fe"/>
            </g>
          </g>
          <path id="Path_1258876" data-name="Path 1258876" d="M375.641,7.776,372.706,7.5H359.123a1.755,1.755,0,0,0-1.755,1.755V21.862a1.755,1.755,0,0,0,1.755,1.755h1.242a.276.276,0,0,1,.276.276v2.86a.772.772,0,0,0,1.3.567l3.933-3.631a.276.276,0,0,1,.187-.073h6.649l2.935-.276a1.755,1.755,0,0,0,1.755-1.755V9.531A1.755,1.755,0,0,0,375.641,7.776Z" transform="translate(-309.086 -7.5)" fill="#ffe177"/>
          <g id="Group_1203265" data-name="Group 1203265" transform="translate(63.344)">
            <path id="Path_1258877" data-name="Path 1258877" d="M470,7.5h-3.487a1.787,1.787,0,0,1,1.817,1.755V21.862a1.787,1.787,0,0,1-1.817,1.755H470a1.755,1.755,0,0,0,1.755-1.755V9.255A1.755,1.755,0,0,0,470,7.5Z" transform="translate(-466.514 -7.5)" fill="#ffd15b"/>
          </g>
        </g>
        <path id="Path_1258878" data-name="Path 1258878" d="M324.25,331.125v1.619a.69.69,0,0,1-.69.69H319.84c0-6.306-4.228-8.494-4.228-8.494l4.46.985A5.326,5.326,0,0,1,324.25,331.125Z" transform="translate(-273.092 -281.133)" fill="#d8ecfe"/>
      </g>
      <g id="Group_1203273" data-name="Group 1203273" transform="translate(7.501 7.5)">
        <g id="Group_1203268" data-name="Group 1203268" transform="translate(0 43.081)">
          <path id="Path_1258879" data-name="Path 1258879" d="M123.222,420.642l6.534,6.534a.88.88,0,0,0,1.208-.17l1.3-1.3a.88.88,0,0,0,.17-1.208l-6.535-6.534a.88.88,0,0,0-1.208.17l-1.3,1.3A.88.88,0,0,0,123.222,420.642Z" transform="translate(-107.102 -404.251)" fill="none" stroke="#000" stroke-linecap="round" stroke-linejoin="round" stroke-miterlimit="10" stroke-width="1"/>
          <path id="Path_1258880" data-name="Path 1258880" d="M25.111,322.532l6.535,6.534a.88.88,0,0,0,1.208-.17l1.3-1.3a.88.88,0,0,0,.17-1.208l-6.535-6.534a.88.88,0,0,0-1.208.17l-1.3,1.3A.88.88,0,0,0,25.111,322.532Z" transform="translate(-22.531 -319.681)" fill="none" stroke="#000" stroke-linecap="round" stroke-linejoin="round" stroke-miterlimit="10" stroke-width="1"/>
          <path id="Path_1258881" data-name="Path 1258881" d="M46.6,452.83l4.656,4.656a8.447,8.447,0,0,0,11.947,0l.232-.232" transform="translate(-41.206 -434.455)" fill="none" stroke="#000" stroke-linecap="round" stroke-linejoin="round" stroke-miterlimit="10" stroke-width="1"/>
          <path id="Path_1258882" data-name="Path 1258882" d="M9.5,355.281a8.446,8.446,0,0,1,.473-11.432l.2-.2" transform="translate(-7.501 -340.342)" fill="none" stroke="#000" stroke-linecap="round" stroke-linejoin="round" stroke-miterlimit="10" stroke-width="1"/>
          <path id="Path_1258883" data-name="Path 1258883" d="M65.352,394.562l-1.369,1.369a2.2,2.2,0,0,1-3.107,0l-4.447-4.447a2.2,2.2,0,0,1,0-3.107l1.351-1.351" transform="translate(-49.122 -377.732)" fill="none" stroke="#000" stroke-linecap="round" stroke-linejoin="round" stroke-miterlimit="10" stroke-width="1"/>
        </g>
        <path id="Path_1258884" data-name="Path 1258884" d="M377.676,16.855v5.007a1.754,1.754,0,0,1-1.755,1.755h-9.968l-4.013,3.7a.772.772,0,0,1-1.3-.567V23.617h-1.517a1.754,1.754,0,0,1-1.755-1.755V9.255A1.754,1.754,0,0,1,359.127,7.5h16.793a1.754,1.754,0,0,1,1.755,1.755v2.77" transform="translate(-309.089 -7.5)" fill="none" stroke="#000" stroke-linecap="round" stroke-linejoin="round" stroke-miterlimit="10" stroke-width="1"/>
        <g id="Group_1203269" data-name="Group 1203269" transform="translate(17.43 11.744)">
          <path id="Path_1258885" data-name="Path 1258885" d="M142.442,325.768l-4.46.871a5.325,5.325,0,0,0-4.176,5.2v2.308" transform="translate(-133.805 -293.59)" fill="none" stroke="#000" stroke-linecap="round" stroke-linejoin="round" stroke-miterlimit="10" stroke-width="1"/>
          <path id="Path_1258886" data-name="Path 1258886" d="M228.97,281.954v2.808a2.56,2.56,0,0,1-.355,1.3" transform="translate(-215.531 -255.823)" fill="none" stroke="#000" stroke-linecap="round" stroke-linejoin="round" stroke-miterlimit="10" stroke-width="1"/>
          <path id="Path_1258887" data-name="Path 1258887" d="M281.063,285.867a2.561,2.561,0,0,1-.25-1.105v-2.808" transform="translate(-260.526 -255.823)" fill="none" stroke="#000" stroke-linecap="round" stroke-linejoin="round" stroke-miterlimit="10" stroke-width="1"/>
          <path id="Path_1258888" data-name="Path 1258888" d="M324.25,334.146v-2.308a5.325,5.325,0,0,0-4.176-5.2l-4.46-.871" transform="translate(-290.523 -293.59)" fill="none" stroke="#000" stroke-linecap="round" stroke-linejoin="round" stroke-miterlimit="10" stroke-width="1"/>
          <line id="Line_564" data-name="Line 564" y2="5" transform="translate(16.863 35.556)" fill="none" stroke="#000" stroke-linecap="round" stroke-linejoin="round" stroke-miterlimit="10" stroke-width="1"/>
          <path id="Path_1258889" data-name="Path 1258889" d="M204.692,94.589a13.223,13.223,0,0,1,7.081-1.989c6.458,0,11.693,4.359,11.693,9.739a8.214,8.214,0,0,1-.469,2.739" transform="translate(-194.909 -92.6)" fill="none" stroke="#000" stroke-linecap="round" stroke-linejoin="round" stroke-miterlimit="10" stroke-width="1"/>
          <path id="Path_1258890" data-name="Path 1258890" d="M172.478,131.92a8.4,8.4,0,0,0-1.206,4.313,8.252,8.252,0,0,0,.5,2.836" transform="translate(-166.101 -126.494)" fill="none" stroke="#000" stroke-linecap="round" stroke-linejoin="round" stroke-miterlimit="10" stroke-width="1"/>
          <path id="Path_1258891" data-name="Path 1258891" d="M170.713,190.2h-.573a3.586,3.586,0,0,1-3.586-3.586v-1a1.892,1.892,0,0,1,1.892-1.892h2.267" transform="translate(-162.035 -171.148)" fill="none" stroke="#000" stroke-linecap="round" stroke-linejoin="round" stroke-miterlimit="10" stroke-width="1"/>
          <path id="Path_1258892" data-name="Path 1258892" d="M316.364,183.722H318.3a1.892,1.892,0,0,1,1.892,1.892v1a3.586,3.586,0,0,1-3.586,3.586h-.438" transform="translate(-291.004 -171.147)" fill="none" stroke="#000" stroke-linecap="round" stroke-linejoin="round" stroke-miterlimit="10" stroke-width="1"/>
          <path id="Path_1258893" data-name="Path 1258893" d="M210.8,140.957a7.342,7.342,0,0,1,1.637,4.56v1.695a11.571,11.571,0,0,1-7.275,10.746,2.777,2.777,0,0,1-2.056,0,11.574,11.574,0,0,1-7.275-10.746v-1.695c0-4.738,4.913-7.954,8.3-8.6a11,11,0,0,1,2.9,1.013" transform="translate(-187.272 -130.804)" fill="none" stroke="#000" stroke-linecap="round" stroke-linejoin="round" stroke-miterlimit="10" stroke-width="1"/>
          <line id="Line_565" data-name="Line 565" y1="5.216" transform="translate(16.864 0.59)" fill="none" stroke="#000" stroke-linecap="round" stroke-linejoin="round" stroke-miterlimit="10" stroke-width="1"/>
          <path id="Path_1258894" data-name="Path 1258894" d="M200.988,311.97l-4.6-4.164,1.217-2.056a1.668,1.668,0,0,1,2.765-.159l4.245,5.594-2.4,1A1.165,1.165,0,0,1,200.988,311.97Z" transform="translate(-187.754 -275.629)" fill="none" stroke="#000" stroke-linecap="round" stroke-linejoin="round" stroke-miterlimit="10" stroke-width="1"/>
          <path id="Path_1258895" data-name="Path 1258895" d="M259.631,311.97l4.6-4.164-1.216-2.056a1.668,1.668,0,0,0-2.765-.159L256,311.185l2.4,1A1.166,1.166,0,0,0,259.631,311.97Z" transform="translate(-239.138 -275.629)" fill="none" stroke="#000" stroke-linecap="round" stroke-linejoin="round" stroke-miterlimit="10" stroke-width="1"/>
        </g>
        <g id="Group_1203272" data-name="Group 1203272" transform="translate(5.703 3.161)">
          <g id="Group_1203270" data-name="Group 1203270" transform="translate(35.199 41.429)">
            <path id="Path_1258896" data-name="Path 1258896" d="M328.925,330.617a25.389,25.389,0,0,1-21.493,18.538" transform="translate(-306.943 -330.617)" fill="none" stroke="#000" stroke-linecap="round" stroke-linejoin="round" stroke-miterlimit="10" stroke-width="1"/>
            <path id="Path_1258897" data-name="Path 1258897" d="M307.452,447.147l-3.561-2.243,3.012-3.271" transform="translate(-303.891 -426.312)" fill="none" stroke="#000" stroke-linecap="round" stroke-linejoin="round" stroke-miterlimit="10" stroke-width="1"/>
          </g>
          <g id="Group_1203271" data-name="Group 1203271">
            <path id="Path_1258898" data-name="Path 1258898" d="M48.826,65.586A25.389,25.389,0,0,1,70.319,47.048" transform="translate(-48.826 -44.752)" fill="none" stroke="#000" stroke-linecap="round" stroke-linejoin="round" stroke-miterlimit="10" stroke-width="1"/>
            <path id="Path_1258899" data-name="Path 1258899" d="M182.306,30.408l3.561,2.243-3.012,3.271" transform="translate(-163.886 -30.408)" fill="none" stroke="#000" stroke-linecap="round" stroke-linejoin="round" stroke-miterlimit="10" stroke-width="1"/>
          </g>
        </g>
        <line id="Line_566" data-name="Line 566" x2="7.1" transform="translate(54.885 10.384)" fill="none" stroke="#000" stroke-linecap="round" stroke-linejoin="round" stroke-miterlimit="10" stroke-width="1"/>
        <line id="Line_567" data-name="Line 567" x2="11.347" transform="translate(52.761 5.734)" fill="none" stroke="#000" stroke-linecap="round" stroke-linejoin="round" stroke-miterlimit="10" stroke-width="1"/>
        <path id="Path_1258900" data-name="Path 1258900" d="M174.915,225.73v1.914a2.854,2.854,0,0,0,2.854,2.854H185.6" transform="translate(-151.812 -195.614)" fill="none" stroke="#000" stroke-linecap="round" stroke-linejoin="round" stroke-miterlimit="10" stroke-width="1"/>
        <path id="Path_1258901" data-name="Path 1258901" d="M169.973,250.914a9.126,9.126,0,0,0,.984,10.131l.17.207" transform="translate(-146.609 -217.322)" fill="none" stroke="#000" stroke-linecap="round" stroke-linejoin="round" stroke-miterlimit="10" stroke-width="1"/>
        <path id="Path_1258902" data-name="Path 1258902" d="M324.37,230.691l1.32,2.2a9.505,9.505,0,0,1-.813,10.925h0" transform="translate(-280.642 -199.89)" fill="none" stroke="#000" stroke-linecap="round" stroke-linejoin="round" stroke-miterlimit="10" stroke-width="1"/>
      </g>
    </g>
  </g>
</svg>
