<svg xmlns="http://www.w3.org/2000/svg" xmlns:xlink="http://www.w3.org/1999/xlink" width="107" height="96" viewBox="0 0 107 96">
  <defs>
    <filter id="Ellipse_12607" x="45" y="34" width="62" height="62" filterUnits="userSpaceOnUse">
      <feOffset dy="3" input="SourceAlpha"/>
      <feGaussianBlur stdDeviation="3" result="blur"/>
      <feFlood flood-opacity="0.161"/>
      <feComposite operator="in" in2="blur"/>
      <feComposite in="SourceGraphic"/>
    </filter>
    <filter id="Ellipse_12608" x="0" y="0" width="50" height="50" filterUnits="userSpaceOnUse">
      <feOffset dy="3" input="SourceAlpha"/>
      <feGaussianBlur stdDeviation="3" result="blur-2"/>
      <feFlood flood-opacity="0.161"/>
      <feComposite operator="in" in2="blur-2"/>
      <feComposite in="SourceGraphic"/>
    </filter>
  </defs>
  <g id="Group_1204108" data-name="Group 1204108" transform="translate(-799.781 -1981)">
    <g id="Group_1203357" data-name="Group 1203357" transform="translate(834.781 1998)">
      <g transform="matrix(1, 0, 0, 1, -35, -17)" filter="url(#Ellipse_12607)">
        <circle id="Ellipse_12607-2" data-name="Ellipse 12607" cx="22" cy="22" r="22" transform="translate(54 40)" fill="#c6b7e2"/>
      </g>
      <g transform="matrix(1, 0, 0, 1, -35, -17)" filter="url(#Ellipse_12608)">
        <circle id="Ellipse_12608-2" data-name="Ellipse 12608" cx="16" cy="16" r="16" transform="translate(9 6)" fill="#c6b7e2"/>
      </g>
    </g>
    <g id="customer-service_8734856" transform="translate(814.283 1975.568)">
      <g id="Group_1203359" data-name="Group 1203359" transform="translate(7.498 7.5)">
        <path id="Path_1260781" data-name="Path 1260781" d="M78.672,7.5h0A19.977,19.977,0,0,0,58.695,27.477v4.216H98.648V27.477A19.977,19.977,0,0,0,78.672,7.5Z" transform="translate(-50.255 -7.5)" fill="#ffe177"/>
        <path id="Path_1260782" data-name="Path 1260782" d="M169.435,7.5h0a20.212,20.212,0,0,0-2.061.105A19.979,19.979,0,0,1,185.29,27.477v4.216h4.121V27.477A19.977,19.977,0,0,0,169.435,7.5Z" transform="translate(-141.018 -7.5)" fill="#ffd15b"/>
        <path id="Path_1260783" data-name="Path 1260783" d="M54.987,312.227l-7.8-1.363-8.638,4.753a5.73,5.73,0,0,1-5.58-.031l-8.355-4.718-7.773,1.358A11.287,11.287,0,0,0,7.5,323.345v17.388a2.052,2.052,0,0,0,2.052,2.052H62.279a2.052,2.052,0,0,0,2.052-2.052V323.345A11.288,11.288,0,0,0,54.987,312.227Z" transform="translate(-7.498 -260.854)" fill="#fd8087"/>
        <path id="Path_1260784" data-name="Path 1260784" d="M125.27,243.711l8.638-4.753-2.569-.449a2.052,2.052,0,0,1-1.7-2.022V224.764H115.628v11.723a2.052,2.052,0,0,1-1.7,2.022l-2.593.453,8.355,4.718A5.73,5.73,0,0,0,125.27,243.711Z" transform="translate(-94.217 -188.947)" fill="#ffd3b6"/>
        <path id="Path_1260785" data-name="Path 1260785" d="M222.1,312.265l-7.754-1.355-6.678,3.675,10.311,1.8a11.287,11.287,0,0,1,9.345,11.119v13.266a2.052,2.052,0,0,1-2.052,2.052H229.4a2.052,2.052,0,0,0,2.052-2.052V323.384A11.287,11.287,0,0,0,222.1,312.265Z" transform="translate(-174.673 -260.892)" fill="#fe646f"/>
        <path id="Path_1260786" data-name="Path 1260786" d="M152.74,238.506a2.052,2.052,0,0,1-1.7-2.022V224.76H137.028v10.215a14.726,14.726,0,0,0,9.129,1.622.661.661,0,0,1,.761.651v3.356a2.052,2.052,0,0,0,1.7,2.022l.056.01,6.678-3.675Z" transform="translate(-115.675 -188.944)" fill="#f9b995"/>
        <path id="Path_1260787" data-name="Path 1260787" d="M156.517,434.262H148.38a1.319,1.319,0,0,1-1.319-1.319v-5.305a1.319,1.319,0,0,1,1.319-1.319h8.137a1.319,1.319,0,0,1,1.319,1.319v5.305A1.319,1.319,0,0,1,156.517,434.262Z" transform="translate(-124.054 -357.276)" fill="#ffe177"/>
        <path id="Path_1260788" data-name="Path 1260788" d="M22.689,191.053h0a.75.75,0,0,1-.522-1.286q.152-.149.3-.305a9.212,9.212,0,0,0,2.246-4.432,28.5,28.5,0,0,1,1.8-5.665,26.348,26.348,0,0,1,6.5-9.078,3.855,3.855,0,0,1,2.569-.98v8.838A12.9,12.9,0,0,1,22.689,191.053Z" transform="translate(-19.559 -142.632)" fill="#ffd15b"/>
        <path id="Path_1260789" data-name="Path 1260789" d="M91.163,135.648H50.842a1.33,1.33,0,0,1-1.33-1.33v-6.493a1.33,1.33,0,0,1,1.33-1.33H91.163a1.33,1.33,0,0,1,1.33,1.33v6.493A1.33,1.33,0,0,1,91.163,135.648Z" transform="translate(-42.586 -106.879)" fill="#8d9ca8"/>
        <path id="Path_1260790" data-name="Path 1260790" d="M116.617,88.912a18.6,18.6,0,0,1-10.543-3.257.991.991,0,0,0-1.122,0,18.6,18.6,0,0,1-10.543,3.257,18.789,18.789,0,0,1-2.455-.161.988.988,0,0,0-1.119.979v11.9a14.679,14.679,0,0,0,14.678,14.678h0a14.679,14.679,0,0,0,14.678-14.678V89.73a.988.988,0,0,0-1.119-.979A18.8,18.8,0,0,1,116.617,88.912Z" transform="translate(-77.097 -72.626)" fill="#ffd3b6"/>
        <path id="Path_1260791" data-name="Path 1260791" d="M361.983,136.482l11.708-7.462-13.17-2.524-.059,9.146A.989.989,0,0,0,361.983,136.482Z" transform="translate(-302.275 -106.879)" fill="#d8ecfe"/>
        <ellipse id="Ellipse_12609" data-name="Ellipse 12609" cx="14.971" cy="12.116" rx="14.971" ry="12.116" transform="translate(51.933 0)" fill="#eaf6ff"/>
        <path id="Path_1260792" data-name="Path 1260792" d="M281.292,126.5h-4.121a1.33,1.33,0,0,1,1.33,1.33v6.493a1.33,1.33,0,0,1-1.33,1.33h4.121a1.33,1.33,0,0,0,1.33-1.33v-6.493A1.33,1.33,0,0,0,281.292,126.5Z" transform="translate(-232.715 -106.879)" fill="#7a8c98"/>
        <path id="Path_1260793" data-name="Path 1260793" d="M182.994,105.274a18.791,18.791,0,0,1-2.455.161c-.347,0-.691-.013-1.033-.031a.984.984,0,0,1,.486.85v11.9a14.681,14.681,0,0,1-12.618,14.534,14.8,14.8,0,0,0,2.061.145h0a14.679,14.679,0,0,0,14.678-14.678v-11.9A.988.988,0,0,0,182.994,105.274Z" transform="translate(-141.018 -89.148)" fill="#f9b995"/>
        <path id="Path_1260794" data-name="Path 1260794" d="M94.816,105.321c-.134-.015-.268-.029-.4-.046a.985.985,0,0,0-.633.129C94.129,105.385,94.474,105.358,94.816,105.321Z" transform="translate(-79.558 -89.149)" fill="#ffcebf"/>
        <path id="Path_1260795" data-name="Path 1260795" d="M402.9,7.5a18.619,18.619,0,0,0-2.061.115c7.293.813,12.91,5.876,12.91,12s-5.617,11.189-12.91,12a18.579,18.579,0,0,0,2.061.115c8.268,0,14.971-5.424,14.971-12.116S411.167,7.5,402.9,7.5Z" transform="translate(-335.995 -7.5)" fill="#d8ecfe"/>
        <path id="Path_1260796" data-name="Path 1260796" d="M164.543,211.186h-1.379a2.473,2.473,0,0,1-2.473-2.473h0a2.473,2.473,0,0,1,2.473-2.473h1.379a2.473,2.473,0,0,1,2.473,2.473h0A2.473,2.473,0,0,1,164.543,211.186Z" transform="translate(-135.437 -173.477)" fill="#7a8c98"/>
        <path id="Path_1260797" data-name="Path 1260797" d="M347.153,340.188l-7.073,7.084a11.823,11.823,0,0,1-16.738,0l-3.029-3.033,6.385-6.394,2.884,2.888a3.007,3.007,0,0,0,4.257,0l6.784-6.794a3.018,3.018,0,0,0,0-4.263l-2.884-2.888,6.385-6.395,3.029,3.033A11.865,11.865,0,0,1,347.153,340.188Z" transform="translate(-268.745 -268.812)" fill="#ffe177"/>
        <path id="Path_1260798" data-name="Path 1260798" d="M394.454,340.185l-7.074,7.084a11.8,11.8,0,0,1-10.429,3.29,11.768,11.768,0,0,0,6.307-3.29l7.074-7.084a11.864,11.864,0,0,0,0-16.762l-.968-.969,2.061-2.064,3.028,3.033A11.864,11.864,0,0,1,394.454,340.185Z" transform="translate(-316.047 -268.809)" fill="#ffd15b"/>
        <path id="Path_1260799" data-name="Path 1260799" d="M310.853,409.25l-7.115,7.221a.945.945,0,0,1-1.349-.019l-2.109-2.138a.978.978,0,0,1-.02-1.369l7.115-7.221a.945.945,0,0,1,1.349.019l2.109,2.138A.978.978,0,0,1,310.853,409.25Z" transform="translate(-251.774 -339.847)" fill="#eaf6ff"/>
        <path id="Path_1260800" data-name="Path 1260800" d="M416.3,303.829l-7.2,7.115a.972.972,0,0,1-1.364-.02l-2.132-2.109a.947.947,0,0,1-.019-1.349l7.2-7.115a.973.973,0,0,1,1.364.02l2.132,2.109A.947.947,0,0,1,416.3,303.829Z" transform="translate(-339.73 -251.849)" fill="#eaf6ff"/>
      </g>
      <g id="Group_1203361" data-name="Group 1203361" transform="translate(7.527 7.5)">
        <g id="Group_1203360" data-name="Group 1203360" transform="translate(0 0)">
          <path id="Path_1260801" data-name="Path 1260801" d="M32.02,182.01a26.639,26.639,0,0,0-5.336,7.964,28.442,28.442,0,0,0-1.8,5.664,9.205,9.205,0,0,1-2.247,4.433c-.1.1-.2.206-.3.3a.749.749,0,0,0,.521,1.286A12.9,12.9,0,0,0,35.7,190.019" transform="translate(-19.735 -153.242)" fill="none" stroke="#000" stroke-linecap="round" stroke-linejoin="round" stroke-miterlimit="10" stroke-width="1"/>
          <path id="Path_1260802" data-name="Path 1260802" d="M98.839,27.117a19.975,19.975,0,0,0-39.944,0" transform="translate(-50.451 -7.5)" fill="none" stroke="#000" stroke-linecap="round" stroke-linejoin="round" stroke-miterlimit="10" stroke-width="1"/>
          <path id="Path_1260803" data-name="Path 1260803" d="M269.085,126.5h5.483a1.329,1.329,0,0,1,1.329,1.329v6.494a1.329,1.329,0,0,1-1.329,1.329h-5.483" transform="translate(-225.991 -106.883)" fill="none" stroke="#000" stroke-linecap="round" stroke-linejoin="round" stroke-miterlimit="10" stroke-width="1"/>
          <path id="Path_1260804" data-name="Path 1260804" d="M56.5,135.651H51.014a1.329,1.329,0,0,1-1.329-1.329v-6.494a1.329,1.329,0,0,1,1.329-1.329H56.5" transform="translate(-42.76 -106.883)" fill="none" stroke="#000" stroke-linecap="round" stroke-linejoin="round" stroke-miterlimit="10" stroke-width="1"/>
          <line id="Line_579" data-name="Line 579" y1="13.259" x2="0.007" transform="translate(13.49 68.672)" fill="none" stroke="#000" stroke-linecap="round" stroke-linejoin="round" stroke-miterlimit="10" stroke-width="1"/>
          <path id="Path_1260805" data-name="Path 1260805" d="M116.789,88.912a18.6,18.6,0,0,1-10.543-3.257.991.991,0,0,0-1.122,0,18.6,18.6,0,0,1-10.543,3.257,18.789,18.789,0,0,1-2.455-.161.988.988,0,0,0-1.119.979v11.9a14.679,14.679,0,0,0,14.678,14.678h0a14.679,14.679,0,0,0,14.678-14.678V89.73a.988.988,0,0,0-1.119-.979A18.8,18.8,0,0,1,116.789,88.912Z" transform="translate(-77.27 -72.626)" fill="none" stroke="#000" stroke-linecap="round" stroke-linejoin="round" stroke-miterlimit="10" stroke-width="1"/>
          <line id="Line_580" data-name="Line 580" x1="0.007" y2="13.259" transform="translate(43.335 68.672)" fill="none" stroke="#000" stroke-linecap="round" stroke-linejoin="round" stroke-miterlimit="10" stroke-width="1"/>
          <line id="Line_581" data-name="Line 581" y2="1.484" transform="translate(35.24 23.451)" fill="none" stroke="#000" stroke-linecap="round" stroke-linejoin="round" stroke-miterlimit="10" stroke-width="1"/>
          <line id="Line_582" data-name="Line 582" y2="1.484" transform="translate(21.592 23.451)" fill="none" stroke="#000" stroke-linecap="round" stroke-linejoin="round" stroke-miterlimit="10" stroke-width="1"/>
          <path id="Path_1260806" data-name="Path 1260806" d="M111.5,310.865l8.355,4.718a5.735,5.735,0,0,0,5.58.031l8.638-4.754h0" transform="translate(-94.388 -260.85)" fill="none" stroke="#000" stroke-linecap="round" stroke-linejoin="round" stroke-miterlimit="10" stroke-width="1"/>
          <path id="Path_1260807" data-name="Path 1260807" d="M101.625,312.62l12.928,18.373,12.929-18.373" transform="translate(-86.137 -262.32)" fill="none" stroke="#000" stroke-linecap="round" stroke-linejoin="round" stroke-miterlimit="10" stroke-width="1"/>
          <path id="Path_1260808" data-name="Path 1260808" d="M156.69,434.262h-8.137a1.319,1.319,0,0,1-1.319-1.319v-5.305a1.319,1.319,0,0,1,1.319-1.319h8.137a1.319,1.319,0,0,1,1.319,1.319v5.305A1.319,1.319,0,0,1,156.69,434.262Z" transform="translate(-124.227 -357.276)" fill="none" stroke="#000" stroke-linecap="round" stroke-linejoin="round" stroke-miterlimit="10" stroke-width="1"/>
          <path id="Path_1260809" data-name="Path 1260809" d="M199.225,188.477h10.348a6.466,6.466,0,0,0,6.467-6.467" transform="translate(-167.648 -153.242)" fill="none" stroke="#000" stroke-linecap="round" stroke-linejoin="round" stroke-miterlimit="10" stroke-width="1"/>
          <path id="Path_1260810" data-name="Path 1260810" d="M164.716,211.186h-1.379a2.473,2.473,0,0,1-2.473-2.473h0a2.473,2.473,0,0,1,2.473-2.473h1.379a2.473,2.473,0,0,1,2.473,2.473h0A2.473,2.473,0,0,1,164.716,211.186Z" transform="translate(-135.61 -173.477)" fill="none" stroke="#000" stroke-linecap="round" stroke-linejoin="round" stroke-miterlimit="10" stroke-width="1"/>
          <path id="Path_1260811" data-name="Path 1260811" d="M370.658,143.1l-8.5,5.418a.989.989,0,0,1-1.521-.841l.044-6.77" transform="translate(-302.45 -118.917)" fill="none" stroke="#000" stroke-linecap="round" stroke-linejoin="round" stroke-miterlimit="10" stroke-width="1"/>
          <path id="Path_1260812" data-name="Path 1260812" d="M323.155,18.39c.758-6.114,7.138-10.89,14.9-10.89,8.267,0,14.97,5.425,14.97,12.117s-6.7,12.115-14.97,12.115c-6.3,0-11.7-3.152-13.905-7.616" transform="translate(-271.147 -7.5)" fill="none" stroke="#000" stroke-linecap="round" stroke-linejoin="round" stroke-miterlimit="10" stroke-width="1"/>
          <line id="Line_583" data-name="Line 583" x2="17.552" transform="translate(58.127 12.116)" fill="none" stroke="#000" stroke-linecap="round" stroke-linejoin="round" stroke-miterlimit="10" stroke-width="1"/>
          <line id="Line_584" data-name="Line 584" x2="8.243" transform="translate(62.782 6.346)" fill="none" stroke="#000" stroke-linecap="round" stroke-linejoin="round" stroke-miterlimit="10" stroke-width="1"/>
          <line id="Line_585" data-name="Line 585" x2="8.243" transform="translate(62.782 17.886)" fill="none" stroke="#000" stroke-linecap="round" stroke-linejoin="round" stroke-miterlimit="10" stroke-width="1"/>
          <path id="Path_1260813" data-name="Path 1260813" d="M222.545,261.73v5.63a2.052,2.052,0,0,0,1.7,2.021l10.366,1.812a11.288,11.288,0,0,1,9.345,11.119v3.3" transform="translate(-187.123 -219.82)" fill="none" stroke="#000" stroke-linecap="round" stroke-linejoin="round" stroke-miterlimit="10" stroke-width="1"/>
          <path id="Path_1260814" data-name="Path 1260814" d="M7.675,457.21v5.743a2.052,2.052,0,0,0,2.052,2.052H62.455a2.055,2.055,0,0,0,2.028-1.728" transform="translate(-7.675 -383.074)" fill="none" stroke="#000" stroke-linecap="round" stroke-linejoin="round" stroke-miterlimit="10" stroke-width="1"/>
          <path id="Path_1260815" data-name="Path 1260815" d="M29.084,261.73v5.63a2.052,2.052,0,0,1-1.7,2.021l-10.366,1.812a11.286,11.286,0,0,0-9.344,11.119v5.874" transform="translate(-7.675 -219.82)" fill="none" stroke="#000" stroke-linecap="round" stroke-linejoin="round" stroke-miterlimit="10" stroke-width="1"/>
          <path id="Path_1260816" data-name="Path 1260816" d="M311.026,409.25l-7.115,7.221a.945.945,0,0,1-1.349-.019l-2.109-2.138a.978.978,0,0,1-.02-1.369l7.115-7.221a.945.945,0,0,1,1.349.019l2.109,2.138A.978.978,0,0,1,311.026,409.25Z" transform="translate(-251.947 -339.847)" fill="none" stroke="#000" stroke-linecap="round" stroke-linejoin="round" stroke-miterlimit="10" stroke-width="1"/>
          <path id="Path_1260817" data-name="Path 1260817" d="M416.468,303.829l-7.2,7.115a.972.972,0,0,1-1.364-.02l-2.132-2.109a.947.947,0,0,1-.019-1.349l7.2-7.115a.972.972,0,0,1,1.364.02l2.132,2.109A.947.947,0,0,1,416.468,303.829Z" transform="translate(-339.904 -251.849)" fill="none" stroke="#000" stroke-linecap="round" stroke-linejoin="round" stroke-miterlimit="10" stroke-width="1"/>
          <path id="Path_1260818" data-name="Path 1260818" d="M374.814,363.73l2.135,2.138a3.018,3.018,0,0,1,0,4.263l-6.784,6.794a3.007,3.007,0,0,1-4.257,0l-2.133-2.136" transform="translate(-305.071 -305.005)" fill="none" stroke="#000" stroke-linecap="round" stroke-linejoin="round" stroke-miterlimit="10" stroke-width="1"/>
          <path id="Path_1260819" data-name="Path 1260819" d="M349.1,325.19l2.239,2.242a11.864,11.864,0,0,1,0,16.762l-7.074,7.084a11.822,11.822,0,0,1-16.737,0l-2.235-2.239" transform="translate(-272.935 -272.818)" fill="none" stroke="#000" stroke-linecap="round" stroke-linejoin="round" stroke-miterlimit="10" stroke-width="1"/>
        </g>
      </g>
    </g>
  </g>
</svg>
