<svg xmlns="http://www.w3.org/2000/svg" xmlns:xlink="http://www.w3.org/1999/xlink" width="104" height="104" viewBox="0 0 104 104">
  <defs>
    <clipPath id="clip-path">
      <rect id="Rectangle_411390" data-name="Rectangle 411390" width="99.185" height="98.84" fill="none"/>
    </clipPath>
  </defs>
  <g id="Group_1207781" data-name="Group 1207781" transform="translate(6870 -4411)">
    <rect id="Rectangle_411380" data-name="Rectangle 411380" width="104" height="104" transform="translate(-6870 4411)" fill="none"/>
    <g id="Group_1207778" data-name="Group 1207778" transform="translate(-6865.185 4411)">
      <g id="Group_1207777" data-name="Group 1207777" clip-path="url(#clip-path)">
        <path id="Path_1277491" data-name="Path 1277491" d="M36.408,48.155A28.378,28.378,0,0,1,64.785,76.533c-.469,25.447-15.72,17.461-15.72,43.688a16,16,0,0,1-32-.148c0-25.082-7.951-21.564-9.031-43.54A28.378,28.378,0,0,1,36.408,48.155Z" transform="translate(-6.468 -38.791)" fill="#ffd3b6" fill-rule="evenodd"/>
        <path id="Path_1277492" data-name="Path 1277492" d="M113.415,58.9A28.383,28.383,0,0,1,131.1,85.184c-.469,25.447-15.72,17.461-15.72,43.688A16,16,0,0,1,90.35,141.94a16.013,16.013,0,0,0,21.136-15.012c0-26.227,15.252-18.242,15.72-43.688A28.36,28.36,0,0,0,113.415,58.9Z" transform="translate(-72.78 -47.442)" fill="#f9c6aa" fill-rule="evenodd"/>
        <path id="Path_1277493" data-name="Path 1277493" d="M75.132,178.343a9.039,9.039,0,0,0-16.166-5.519q-.038.551-.047,1.108c.613,11.73,3.572,16.243,9.583,24.685-.191-4.451.554-9.027,3.883-12.866C74.63,183.165,75.062,181.853,75.132,178.343Z" transform="translate(-47.462 -136.414)" fill="#f9c6aa" fill-rule="evenodd"/>
        <path id="Path_1277494" data-name="Path 1277494" d="M213.967,273.735h-42.55a3.264,3.264,0,0,0-3.257,3.257v26.663a3.264,3.264,0,0,0,3.257,3.257h24.2l13.787,9.9v-9.9h4.564a3.264,3.264,0,0,0,3.257-3.257V276.99A3.26,3.26,0,0,0,213.967,273.735Z" transform="translate(-135.46 -220.504)" fill="#ffe177" fill-rule="evenodd"/>
        <path id="Path_1277495" data-name="Path 1277495" d="M214.612,273.735h-.056a3.251,3.251,0,0,1,.154.988v26.663a3.264,3.264,0,0,1-3.257,3.257h-4.564v9.9l3.158,2.267v-9.9h4.564a3.264,3.264,0,0,0,3.257-3.257V276.99A3.26,3.26,0,0,0,214.612,273.735ZM168.96,304.641a3.264,3.264,0,0,0,3.1,2.267h24.2l-3.158-2.267Z" transform="translate(-136.104 -220.504)" fill="#ffc700" fill-rule="evenodd"/>
        <path id="Path_1277496" data-name="Path 1277496" d="M335.442,12.783A2.554,2.554,0,0,1,338,8.359a29.945,29.945,0,0,1,10.962,40.9,2.554,2.554,0,1,1-4.424-2.553,24.836,24.836,0,0,0-9.091-33.928M318.269,28.077a2.554,2.554,0,0,1,2.553-4.424A15.337,15.337,0,0,1,326.437,44.6a2.554,2.554,0,1,1-4.424-2.553,10.234,10.234,0,0,0-3.743-13.974m8.587-7.648a17.532,17.532,0,0,1,6.417,23.95,2.554,2.554,0,1,0,4.424,2.553A22.642,22.642,0,0,0,329.41,16a2.555,2.555,0,0,0-2.553,4.426Z" transform="translate(-255.35 -6.458)" fill="#75c5b4" fill-rule="evenodd"/>
        <path id="Path_1277497" data-name="Path 1277497" d="M339.915,8.456a2.554,2.554,0,0,1,2.713-.1,29.945,29.945,0,0,1,10.962,40.9,2.558,2.558,0,0,1-2.878,1.19,2.547,2.547,0,0,0,.776-.836,29.945,29.945,0,0,0-10.962-40.9A2.512,2.512,0,0,0,339.915,8.456ZM322.74,23.75a2.554,2.554,0,0,1,2.713-.1A15.337,15.337,0,0,1,331.067,44.6a2.558,2.558,0,0,1-2.878,1.19,2.547,2.547,0,0,0,.776-.836A15.337,15.337,0,0,0,323.351,24a2.6,2.6,0,0,0-.611-.255m8.587-7.646a2.48,2.48,0,0,1,.611.255,22.642,22.642,0,0,1,8.288,30.929,2.546,2.546,0,0,1-.776.836,2.557,2.557,0,0,0,2.878-1.19A22.642,22.642,0,0,0,334.04,16a2.55,2.55,0,0,0-2.713.1" transform="translate(-259.98 -6.456)" fill="#42a5f5" fill-rule="evenodd"/>
        <path id="Path_1277498" data-name="Path 1277498" d="M81,39.7a.987.987,0,0,1-.607.465,1,1,0,0,1-.756-.1,1,1,0,0,1-.366-1.363,19.091,19.091,0,0,0-6.987-26.075,1,1,0,0,1,1-1.731A21.084,21.084,0,0,1,81,39.7ZM74.834,8.2a4.11,4.11,0,0,0-4.109,7.119,15.976,15.976,0,0,1,5.847,21.824,4.113,4.113,0,0,0,3.553,6.166,4.188,4.188,0,0,0,1.07-.142,4.081,4.081,0,0,0,2.495-1.915A24.2,24.2,0,0,0,74.834,8.2ZM92.256,42.028A28.392,28.392,0,0,0,81.864,3.246a.99.99,0,0,0-.758-.1,1,1,0,0,0-.241,1.83A26.392,26.392,0,0,1,90.525,41.03a1,1,0,0,0,1.122,1.462A.98.98,0,0,0,92.256,42.028ZM98.1,19.68A31.3,31.3,0,0,0,83.42.553,4.11,4.11,0,0,0,77.4,5.177a4.081,4.081,0,0,0,1.915,2.495,23.28,23.28,0,0,1,8.521,31.8,4.11,4.11,0,1,0,7.119,4.109A31.287,31.287,0,0,0,98.1,19.68m-34.77-.772a1,1,0,0,0,.366,1.363,11.787,11.787,0,0,1,4.313,16.1.985.985,0,0,0-.1.758,1,1,0,0,0,1.828.241,13.781,13.781,0,0,0-5.044-18.826.982.982,0,0,0-.756-.1A.994.994,0,0,0,63.328,18.908Zm-1.19,4.058a8.674,8.674,0,0,1,3.176,11.847,4.11,4.11,0,0,0,7.119,4.109,16.889,16.889,0,0,0-6.184-23.075,4.109,4.109,0,0,0-5.614,1.505,4.113,4.113,0,0,0,1.5,5.614M75.949,61.03a1.555,1.555,0,0,1-1.556,1.556H40.065a1.556,1.556,0,0,1,0-3.111H74.393a1.555,1.555,0,0,1,1.556,1.556m0,17.577a1.556,1.556,0,0,1-1.556,1.556H40.065a1.556,1.556,0,1,1,0-3.111H74.393a1.555,1.555,0,0,1,1.556,1.556m0-8.79a1.555,1.555,0,0,1-1.556,1.556H40.065a1.556,1.556,0,0,1,0-3.111H74.393a1.555,1.555,0,0,1,1.556,1.556M80.205,83.15V56.486a1.7,1.7,0,0,0-1.7-1.7H35.954a1.7,1.7,0,0,0-1.7,1.7V83.148a1.7,1.7,0,0,0,1.7,1.7h24.2a1.559,1.559,0,0,1,.908.292l11.325,8.132V86.4a1.555,1.555,0,0,1,1.556-1.556H78.5A1.7,1.7,0,0,0,80.205,83.15ZM26.589,95.73a14.445,14.445,0,0,0,12.852-7.767H35.954a4.819,4.819,0,0,1-4.813-4.813V56.486a4.819,4.819,0,0,1,4.813-4.813h5.774c4.171-4.828,4.994-7.1,5.136-14.028A16.963,16.963,0,0,0,29.935,20.814a17.262,17.262,0,0,0-12.22,5.107,16.3,16.3,0,0,0-4,6.662A10.6,10.6,0,0,1,29.22,41.921v.039c-.08,3.946-.692,5.593-3.127,8.4-4.974,5.735-3.572,13.5-2.446,19.746a44.331,44.331,0,0,1,.809,5.847,1.556,1.556,0,0,1-1.5,1.612H22.9a1.556,1.556,0,0,1-1.554-1.5,42.328,42.328,0,0,0-.76-5.408c-1.178-6.532-2.792-15.479,3.158-22.338,1.945-2.24,2.3-3.2,2.367-6.4a7.482,7.482,0,0,0-13.1-4.893c0,.158-.008.315-.006.473.1,6.855,1.443,10.33,4.008,16.379a1.556,1.556,0,1,1-2.864,1.215C11.506,48.851,10,44.962,9.9,37.54a19.161,19.161,0,0,1,5.6-13.8A20.393,20.393,0,0,1,29.937,17.7,20.079,20.079,0,0,1,49.976,37.648v.039c-.132,6.61-.984,9.768-4.226,13.986H53.9c1.836-3.623,2.748-8.086,2.859-13.945A26.822,26.822,0,0,0,3.115,37.7C3.609,47.688,5.5,52.109,7.5,56.785c2.281,5.33,4.642,10.841,4.642,24.5A14.458,14.458,0,0,0,26.589,95.73ZM78.5,51.675H57.329a36.58,36.58,0,0,0,2.538-13.9v-.029A29.933,29.933,0,1,0,0,37.742c0,.025,0,.051,0,.076C.521,48.389,2.615,53.281,4.64,58.01,6.9,63.284,9.029,68.264,9.029,81.282a17.578,17.578,0,0,0,33.83,6.678H59.647l13.381,9.608A1.556,1.556,0,0,0,75.492,96.3V87.959H78.5a4.819,4.819,0,0,0,4.813-4.813V56.486A4.813,4.813,0,0,0,78.5,51.675Z" transform="translate(0 0)" fill-rule="evenodd"/>
      </g>
    </g>
  </g>
</svg>
