<svg xmlns="http://www.w3.org/2000/svg" xmlns:xlink="http://www.w3.org/1999/xlink" width="104" height="104" viewBox="0 0 104 104">
  <defs>
    <clipPath id="clip-path">
      <rect id="Rectangle_411434" data-name="Rectangle 411434" width="94.143" height="101.896" fill="none"/>
    </clipPath>
  </defs>
  <g id="Group_1207846" data-name="Group 1207846" transform="translate(1836 -1324)">
    <rect id="Rectangle_411440" data-name="Rectangle 411440" width="104" height="104" transform="translate(-1836 1324)" fill="none"/>
    <g id="Group_1207844" data-name="Group 1207844" transform="translate(-1831.948 1324)">
      <g id="Group_1207843" data-name="Group 1207843" clip-path="url(#clip-path)">
        <path id="Path_1277756" data-name="Path 1277756" d="M75.9,22.16V46.393A29.712,29.712,0,0,1,63.176,71.2L41.7,86.634,20.223,71.2A29.708,29.708,0,0,1,7.5,46.393V22.16A17.772,17.772,0,0,0,22.162,7.5H61.238A17.772,17.772,0,0,0,75.9,22.16Z" transform="translate(-6.005 -6.003)" fill="#58d561" fill-rule="evenodd"/>
        <path id="Path_1277757" data-name="Path 1277757" d="M179.77,22.16V46.393a29.653,29.653,0,0,1-7.133,19.714A51.518,51.518,0,0,1,138.236,7.5h26.877A17.772,17.772,0,0,0,179.77,22.16Z" transform="translate(-109.88 -6.003)" fill="#6ce75a" fill-rule="evenodd"/>
        <path id="Path_1277758" data-name="Path 1277758" d="M101.859,63A26.483,26.483,0,0,1,89.607,50.746H63A26.482,26.482,0,0,1,50.748,63V81a21.08,21.08,0,0,0,9.121,17.79L76.3,110.6,92.737,98.787A21.085,21.085,0,0,0,101.859,81Z" transform="translate(-40.609 -40.607)" fill="#4abe69" fill-rule="evenodd"/>
        <path id="Path_1277759" data-name="Path 1277759" d="M171.13,63a26.483,26.483,0,0,1-12.252-12.252h-21.55c-.007.361-.014.721-.014,1.084A51.457,51.457,0,0,0,164.17,97.042,20.95,20.95,0,0,0,171.129,81V63Z" transform="translate(-109.879 -40.607)" fill="#58d561" fill-rule="evenodd"/>
        <path id="Path_1277760" data-name="Path 1277760" d="M98.2,149.7a4.221,4.221,0,0,1,6.275-5.648l5.5,6.125,12.3-14.355a4.216,4.216,0,1,1,6.407,5.482l-15.3,17.851a4.229,4.229,0,0,1-6.478.243Z" transform="translate(-77.712 -107.508)" fill="#e0dfe1" fill-rule="evenodd"/>
        <path id="Path_1277761" data-name="Path 1277761" d="M177.685,146.4l9.066-10.577a4.216,4.216,0,0,1,6.407,5.482l-10.241,11.947a51.685,51.685,0,0,1-5.233-6.853" transform="translate(-142.184 -107.508)" fill="#f0f0f0" fill-rule="evenodd"/>
        <path id="Path_1277762" data-name="Path 1277762" d="M343.043,390.4l7.937,18.7,4.035-8.422,8.862,2.948-8.091-19.06Z" transform="translate(-274.504 -307.729)" fill="#ffc328" fill-rule="evenodd"/>
        <path id="Path_1277763" data-name="Path 1277763" d="M358.6,400.68l8.847,2.943-8.09-19.06L347.5,389.991a83.611,83.611,0,0,0,11.1,10.689h0Z" transform="translate(-278.074 -307.729)" fill="#ffd54f" fill-rule="evenodd"/>
        <path id="Path_1277764" data-name="Path 1277764" d="M247.532,390.4l-7.937,18.7-4.035-8.422-8.862,2.948,8.091-19.06Z" transform="translate(-181.405 -307.729)" fill="#ffc328" fill-rule="evenodd"/>
        <path id="Path_1277765" data-name="Path 1277765" d="M239.912,200.454l.574.9a5.012,5.012,0,0,0,5.807,2.114l1.021-.323a5.068,5.068,0,0,1,6.553,5.5l-.141,1.062a5.012,5.012,0,0,0,3.09,5.352l.99.408a5.067,5.067,0,0,1,1.485,8.424l-.79.722a5.012,5.012,0,0,0-1.073,6.086l.5.949a5.067,5.067,0,0,1-4.277,7.408l-1.069.045a5.012,5.012,0,0,0-4.734,3.972l-.231,1.046a5.067,5.067,0,0,1-8.038,2.926l-.849-.653a5.013,5.013,0,0,0-6.18,0l-.849.653a5.067,5.067,0,0,1-8.038-2.926l-.231-1.046a5.012,5.012,0,0,0-4.734-3.972l-1.07-.045a5.068,5.068,0,0,1-4.277-7.408l.5-.949a5.012,5.012,0,0,0-1.073-6.086l-.791-.722a5.067,5.067,0,0,1,1.485-8.424l.99-.409a5.012,5.012,0,0,0,3.09-5.352l-.141-1.061a5.067,5.067,0,0,1,6.553-5.5l1.021.323a5.012,5.012,0,0,0,5.807-2.114l.574-.9a5.068,5.068,0,0,1,8.554,0Z" transform="translate(-168.302 -158.524)" fill="#eb4e5c" fill-rule="evenodd"/>
        <path id="Path_1277766" data-name="Path 1277766" d="M276.31,200.451l.574.9a5.012,5.012,0,0,0,5.807,2.114l1.021-.323a5.068,5.068,0,0,1,6.553,5.5l-.141,1.062a5.012,5.012,0,0,0,3.09,5.352l.99.408a5.067,5.067,0,0,1,1.485,8.424l-.79.722a5.013,5.013,0,0,0-1.073,6.086l.5.949a5.067,5.067,0,0,1-4.277,7.408l-1.069.045a5.012,5.012,0,0,0-4.734,3.972l-.231,1.046a4.933,4.933,0,0,1-3.122,3.636A82.994,82.994,0,0,1,255.81,203.9a4.927,4.927,0,0,1,4.544-.757l1.021.323a5.012,5.012,0,0,0,5.807-2.114l.574-.9a5.067,5.067,0,0,1,8.554,0Z" transform="translate(-204.7 -158.521)" fill="#ff6372" fill-rule="evenodd"/>
        <path id="Path_1277767" data-name="Path 1277767" d="M272.8,245.368a15.77,15.77,0,1,1-15.77,15.77,15.77,15.77,0,0,1,15.77-15.77" transform="translate(-205.677 -196.344)" fill="#e0dfe1" fill-rule="evenodd"/>
        <path id="Path_1277768" data-name="Path 1277768" d="M279.364,276.883a92.347,92.347,0,0,1-13.046-23.173,15.771,15.771,0,1,1,13.915,23.2C279.941,276.907,279.652,276.9,279.364,276.883Z" transform="translate(-213.109 -196.344)" fill="#f0f0f0" fill-rule="evenodd"/>
        <path id="Path_1277769" data-name="Path 1277769" d="M318.963,297.717l-5.321-3.157-5.321,3.157,1.358-6.036-4.646-4.085,6.16-.574,2.449-5.681,2.449,5.681,6.16.573-4.646,4.085Z" transform="translate(-244.089 -225.131)" fill="#e0dfe1" fill-rule="evenodd"/>
        <path id="Path_1277770" data-name="Path 1277770" d="M307.847,293.952l-5.321-3.157-5.32,3.157,1.358-6.036-4.646-4.085,6.16-.574,2.449-5.681,2.449,5.682,6.16.573-4.646,4.085Z" transform="translate(-235.193 -222.117)" fill="#ffd54f" fill-rule="evenodd"/>
        <path id="Path_1277771" data-name="Path 1277771" d="M70.871,65.7A1.5,1.5,0,0,0,70.4,67.15l.792,3.509L68.1,68.824a1.494,1.494,0,0,0-1.528,0l-3.094,1.836.79-3.51a1.5,1.5,0,0,0-.474-1.454l-2.7-2.375,3.583-.334a1.5,1.5,0,0,0,1.236-.9l1.424-3.3,1.425,3.3a1.5,1.5,0,0,0,1.237.9l3.58.333Zm.285-5.61-2.45-5.678a1.5,1.5,0,0,0-2.751,0l-2.448,5.678-6.157.573a1.5,1.5,0,0,0-.851,2.618l4.645,4.083-1.359,6.033a1.5,1.5,0,0,0,2.228,1.618l5.319-3.155L72.65,75.01a1.5,1.5,0,0,0,2.226-1.618l-1.357-6.033,4.644-4.083a1.5,1.5,0,0,0-.85-2.617ZM67.331,79.844A14.66,14.66,0,1,0,52.67,65.184,14.676,14.676,0,0,0,67.331,79.844Zm0-32.317A17.657,17.657,0,1,0,84.987,65.184,17.678,17.678,0,0,0,67.331,47.527ZM89.175,64.972c1.678-1.534,2.186-2.323,1.9-3.974s-1.039-2.218-3.141-3.086a6.489,6.489,0,0,1-4-6.931c.3-2.254.182-3.186-1.1-4.263s-2.221-1.031-4.388-.345a6.49,6.49,0,0,1-7.523-2.737c-1.218-1.919-1.908-2.557-3.585-2.557s-2.365.639-3.584,2.557a6.488,6.488,0,0,1-7.521,2.737,8.186,8.186,0,0,0-2.351-.494,2.99,2.99,0,0,0-2.038.839c-1.284,1.077-1.4,2.009-1.1,4.262a6.485,6.485,0,0,1-4,6.932c-2.1.868-2.849,1.435-3.141,3.086s.22,2.44,1.9,3.974a6.487,6.487,0,0,1,1.391,7.883c-1.054,2.015-1.261,2.931-.422,4.382s1.735,1.73,4.006,1.825a6.49,6.49,0,0,1,6.132,5.145c.49,2.22.918,3.056,2.493,3.629s2.44.209,4.242-1.177a6.488,6.488,0,0,1,8,0c1.8,1.386,2.668,1.751,4.244,1.177s2-1.409,2.493-3.629a6.487,6.487,0,0,1,6.13-5.145c2.272-.1,3.169-.373,4.008-1.825s.63-2.367-.423-4.382A6.489,6.489,0,0,1,89.175,64.972ZM81.783,91.68a2.158,2.158,0,0,0-2.623,1.115L76.81,97.7,74,91.085a6.582,6.582,0,0,0,2.6-.433c3.129-1.139,3.863-3.393,4.393-5.8A3.551,3.551,0,0,1,82.4,82.706L86.942,93.4ZM57.853,97.7l-2.347-4.9A2.161,2.161,0,0,0,52.88,91.68L47.721,93.4l4.538-10.69a3.553,3.553,0,0,1,1.408,2.146c.53,2.407,1.265,4.661,4.4,5.8a6.744,6.744,0,0,0,2.317.441c.094,0,.188,0,.28-.008ZM47.765,51.376a3.527,3.527,0,0,1-2.176,3.766c-2.278.941-4.37,2.057-4.949,5.336a6.031,6.031,0,0,0,.435,3.8l-5.382,3.868L20.134,56.963a19.679,19.679,0,0,1-8.5-16.573V23.311A28.083,28.083,0,0,0,23.31,11.637H48.077A28.083,28.083,0,0,0,59.751,23.311V40.389a22.972,22.972,0,0,1-.2,3.04,3.551,3.551,0,0,1-2.417.087c-2.35-.743-4.669-1.234-7.221.906s-2.472,4.511-2.146,6.954M35.694,78.785,43.4,73.244a16.117,16.117,0,0,1,.82-1.777,3.522,3.522,0,0,0-.756-4.284c-.189-.174-.379-.35-.561-.529l-6.336,4.553a1.5,1.5,0,0,1-1.75,0L18.386,59.4A22.568,22.568,0,0,1,8.639,40.389v-18a1.5,1.5,0,0,1,.845-1.348A25.057,25.057,0,0,0,21.043,9.485a1.5,1.5,0,0,1,1.348-.845H49a1.5,1.5,0,0,1,1.348.845A25.046,25.046,0,0,0,61.9,21.042a1.5,1.5,0,0,1,.845,1.348V39.98a5.893,5.893,0,0,1,4.583-1.9,7.8,7.8,0,0,1,1.059.073V17.388A19.2,19.2,0,0,1,54,3H17.389A19.2,19.2,0,0,1,3,17.388v23A28.371,28.371,0,0,0,15.091,63.978Zm55.5-11.6c1.818-1.662,3.4-3.426,2.825-6.706s-2.671-4.395-4.949-5.336A3.525,3.525,0,0,1,86.9,51.376c.324-2.443.4-4.813-2.146-6.954s-4.873-1.649-7.22-.906a3.527,3.527,0,0,1-4.088-1.488,11.051,11.051,0,0,0-2.058-2.549V16.156a1.5,1.5,0,0,0-1.257-1.479A16.215,16.215,0,0,1,56.71,1.258,1.5,1.5,0,0,0,55.231,0H16.156a1.5,1.5,0,0,0-1.478,1.258A16.216,16.216,0,0,1,1.259,14.677,1.5,1.5,0,0,0,0,16.156V40.389A31.3,31.3,0,0,0,13.342,66.411L34.819,81.847a1.5,1.5,0,0,0,1.75,0l6.59-4.737a7.155,7.155,0,0,0,.7,1.625,6.231,6.231,0,0,0,5.445,3.257L44.235,93.94A2.155,2.155,0,0,0,46.9,96.828l6.222-2.069,2.835,5.914A2.128,2.128,0,0,0,57.9,101.9h.054a2.137,2.137,0,0,0,1.936-1.313l4.729-11.141c.182-.133.362-.27.544-.408a3.525,3.525,0,0,1,4.349,0c.18.138.36.275.544.408l4.729,11.141a2.133,2.133,0,0,0,1.934,1.313h.053a2.134,2.134,0,0,0,1.942-1.225l2.833-5.913,6.221,2.069a2.156,2.156,0,0,0,2.666-2.887L85.357,81.99A6.234,6.234,0,0,0,90.8,78.735c1.664-2.884.779-5.084-.362-7.268A3.529,3.529,0,0,1,91.2,67.183ZM49.836,32.825l-15.3,17.851-.048.058a2.728,2.728,0,0,1-2.06,1.054,2.7,2.7,0,0,1-2.117-.9l-8.71-9.7v0a2.722,2.722,0,0,1,2.02-4.544c.048,0,.1,0,.145,0a2.7,2.7,0,0,1,1.881.9l5.5,6.125a1.5,1.5,0,0,0,2.251-.027L45.7,29.291a2.719,2.719,0,0,1,4.132,3.534Zm3.632-2.21a5.679,5.679,0,0,1-1.356,4.159L36.833,52.6a5.715,5.715,0,0,1-4.3,2.182c-.071,0-.142,0-.212,0A5.7,5.7,0,0,1,28.08,52.9L19.37,43.2a5.72,5.72,0,0,1,8.5-7.652L32.235,40.4,43.428,27.343a5.715,5.715,0,0,1,10.04,3.272Z" fill-rule="evenodd"/>
      </g>
    </g>
  </g>
</svg>
