<svg xmlns="http://www.w3.org/2000/svg" xmlns:xlink="http://www.w3.org/1999/xlink" width="104" height="104" viewBox="0 0 104 104">
  <defs>
    <clipPath id="clip-path">
      <rect id="Rectangle_411422" data-name="Rectangle 411422" width="100" height="100" transform="translate(0 -0.191)" fill="none"/>
    </clipPath>
  </defs>
  <g id="Group_1207851" data-name="Group 1207851" transform="translate(2179 -1154)">
    <rect id="Rectangle_411435" data-name="Rectangle 411435" width="104" height="104" transform="translate(-2179 1154)" fill="none"/>
    <g id="Group_1207833" data-name="Group 1207833" transform="translate(-2175.78 1157.412)">
      <g id="Group_1207832" data-name="Group 1207832" transform="translate(0.78 0.779)" clip-path="url(#clip-path)">
        <path id="Path_1277680" data-name="Path 1277680" d="M55,6A49,49,0,1,1,6,55,49,49,0,0,1,55,6" transform="translate(-5.39 -5.389)" fill="#90d1bb"/>
        <path id="Path_1277681" data-name="Path 1277681" d="M78.607,180.573A49.009,49.009,0,0,1,15.024,109.28a100.2,100.2,0,0,0,63.583,71.293" transform="translate(-5.393 -88.016)" fill="#88bfac"/>
        <path id="Path_1277682" data-name="Path 1277682" d="M87,46A41,41,0,1,1,46,87,41,41,0,0,1,87,46" transform="translate(-37.389 -37.389)" fill="#f7f5fb"/>
        <path id="Path_1277683" data-name="Path 1277683" d="M100.553,218.291A41,41,0,0,1,50.1,161.74a100.312,100.312,0,0,0,50.457,56.551" transform="translate(-37.393 -129.984)" fill="#e4e3e8"/>
        <path id="Path_1277684" data-name="Path 1277684" d="M182.72,106.889a5.891,5.891,0,0,0-8.331,0L158.88,122.4a2.632,2.632,0,0,1-3.721,0h0l-5.022-5.022a5.893,5.893,0,0,0-8.334,8.334h0l9.553,9.553a7.991,7.991,0,0,0,11.3,0l20.064-20.042a5.891,5.891,0,0,0,0-8.331Z" transform="translate(-112.654 -84.723)" fill="#90d1bb"/>
        <path id="Path_1277685" data-name="Path 1277685" d="M50.2,100.4A50.237,50.237,0,0,1,2.723,33.848a1.2,1.2,0,0,1,2.269.781A47.847,47.847,0,1,0,9.269,25.5a1.2,1.2,0,1,1-2.054-1.242A50.2,50.2,0,1,1,50.2,100.4Z" transform="translate(-0.593 -0.592)"/>
        <path id="Path_1277686" data-name="Path 1277686" d="M21.9,141.49a1.2,1.2,0,0,1-1.1-1.683c.266-.607.556-1.228.86-1.847a1.2,1.2,0,1,1,2.154,1.059c-.289.588-.564,1.178-.816,1.753A1.2,1.2,0,0,1,21.9,141.49Z" transform="translate(-17.154 -110.423)"/>
        <path id="Path_1277687" data-name="Path 1277687" d="M82.2,124.4a42.2,42.2,0,1,1,42.2-42.2,42.248,42.248,0,0,1-42.2,42.2m0-82A39.8,39.8,0,1,0,122,82.2,39.846,39.846,0,0,0,82.2,42.4" transform="translate(-32.589 -32.589)"/>
        <path id="Path_1277688" data-name="Path 1277688" d="M152.205,133.979a9.163,9.163,0,0,1-6.5-2.687l-9.553-9.553a7.093,7.093,0,0,1,10.031-10.031l5.022,5.022a1.431,1.431,0,0,0,2.024,0h0l15.508-15.508a7.091,7.091,0,0,1,10.038,10.019l-.012.012L158.7,131.3a9.162,9.162,0,0,1-6.5,2.683m-11.036-21.948a4.693,4.693,0,0,0-3.318,8.011l9.553,9.553a6.8,6.8,0,0,0,9.6,0l20.064-20.042a4.691,4.691,0,1,0-6.624-6.645l-.009.009-15.508,15.508a3.831,3.831,0,0,1-5.418,0h0l-5.022-5.022A4.663,4.663,0,0,0,141.169,112.031Z" transform="translate(-107.853 -79.905)"/>
        <path id="Path_1277689" data-name="Path 1277689" d="M235.613,300.973a1.2,1.2,0,1,0,0-2.4h-8.105a1.8,1.8,0,0,0-1.8,1.8v17.249a1.8,1.8,0,0,0,1.8,1.8h8.105a1.2,1.2,0,1,0,0-2.4h-7.506V310.2h7.506a1.2,1.2,0,1,0,0-2.4h-7.506v-6.826Z" transform="translate(-181.158 -239.45)"/>
        <path id="Path_1277690" data-name="Path 1277690" d="M295.634,307.824h-.019q-.15-.018-.3-.028c-.076-.005-.15-.007-.224-.008A3.42,3.42,0,1,1,298,302.038a1.2,1.2,0,0,0,1.757-1.636l-.018-.018a5.821,5.821,0,1,0-4.912,9.79l.043,0h.026c.085.009.171.018.258.024s.15.006.224.008a3.421,3.421,0,1,1-3.432,5.048,1.2,1.2,0,0,0-2.1,1.155l.005.01a5.8,5.8,0,0,0,4.726,2.988q.188.012.375.012a5.821,5.821,0,0,0,.682-11.6Z" transform="translate(-232.35 -239.451)"/>
        <path id="Path_1277691" data-name="Path 1277691" d="M168.432,298.743a1.2,1.2,0,0,0-1.647.411l-3.8,6.326-3.8-6.326a1.2,1.2,0,0,0-2.058,1.236l4.656,7.754v10.079a1.2,1.2,0,0,0,2.4,0V308.144l4.656-7.754A1.2,1.2,0,0,0,168.432,298.743Z" transform="translate(-126.16 -239.449)"/>
      </g>
    </g>
  </g>
</svg>
