<svg xmlns="http://www.w3.org/2000/svg" xmlns:xlink="http://www.w3.org/1999/xlink" width="104" height="104" viewBox="0 0 104 104">
  <defs>
    <clipPath id="clip-path">
      <rect id="Rectangle_411387" data-name="Rectangle 411387" width="100" height="99" fill="none"/>
    </clipPath>
  </defs>
  <g id="Group_1207785" data-name="Group 1207785" transform="translate(6202 -4411)">
    <rect id="Rectangle_411384" data-name="Rectangle 411384" width="104" height="104" transform="translate(-6202 4411)" fill="none"/>
    <g id="Group_1207772" data-name="Group 1207772" transform="translate(-6197.789 4412.523)">
      <g id="Group_1207771" data-name="Group 1207771" transform="translate(-0.211 0.477)" clip-path="url(#clip-path)">
        <path id="Path_1277455" data-name="Path 1277455" d="M160.1,41.29a3.2,3.2,0,1,1-3.2,3.2,3.2,3.2,0,0,1,3.2-3.2" transform="translate(-126.328 -33.721)" fill="#ef7385"/>
        <path id="Path_1277456" data-name="Path 1277456" d="M94.037,41.29a3.2,3.2,0,1,1-3.2,3.2,3.2,3.2,0,0,1,3.2-3.2" transform="translate(-73.058 -33.721)" fill="#ef7385"/>
        <path id="Path_1277457" data-name="Path 1277457" d="M27.972,41.29a3.2,3.2,0,1,1-3.2,3.2,3.2,3.2,0,0,1,3.2-3.2" transform="translate(-19.787 -33.721)" fill="#ef7385"/>
        <path id="Path_1277458" data-name="Path 1277458" d="M311.421,437.677a3.208,3.208,0,0,1,3.2,3.2,3.222,3.222,0,0,1-3.2,3.2H292.23a3.208,3.208,0,0,1-3.2-3.2,3.222,3.222,0,0,1,3.2-3.2Z" transform="translate(-232.869 -353.345)" fill="#ffe177"/>
        <path id="Path_1277459" data-name="Path 1277459" d="M311.421,371.613a3.208,3.208,0,0,1,3.2,3.2,3.222,3.222,0,0,1-3.2,3.2H292.23a3.208,3.208,0,0,1-3.2-3.2,3.222,3.222,0,0,1,3.2-3.2h19.191Z" transform="translate(-232.869 -300.075)" fill="#ffe177"/>
        <path id="Path_1277460" data-name="Path 1277460" d="M311.421,404.645a3.208,3.208,0,0,1,3.2,3.2,3.222,3.222,0,0,1-3.2,3.2H292.23a3.208,3.208,0,0,1-3.2-3.2,3.222,3.222,0,0,1,3.2-3.2Z" transform="translate(-232.869 -326.71)" fill="#ffe177"/>
        <path id="Path_1277461" data-name="Path 1277461" d="M313.806,470.71H329.8l-.048.192a8.256,8.256,0,0,1-2.911,4.478,8.2,8.2,0,0,1-12.986-4.478Z" transform="translate(-252.846 -379.981)" fill="#ffe177"/>
        <path id="Path_1277462" data-name="Path 1277462" d="M383.883,37.044a26.6,26.6,0,0,1-.192,3.2h-9.4v1.6a4.8,4.8,0,0,1-9.6,0v-1.6h-9.6v-9.6h1.6a4.8,4.8,0,0,0,0-9.6h-1.6V8.258a28.775,28.775,0,0,1,28.786,28.786Z" transform="translate(-286.141 -7.086)" fill="#75c5b4"/>
        <path id="Path_1277463" data-name="Path 1277463" d="M347.653,173.419h9.4a25.626,25.626,0,0,1-4.366,11.371l-2.063,2.99a109.824,109.824,0,0,0-12.57,24.021h-9.6V192.61h-1.6a4.8,4.8,0,0,1,0-9.6h1.6v-9.6h9.6v1.6a4.8,4.8,0,0,0,9.6,0Z" transform="translate(-259.505 -140.263)" fill="#75c5b4"/>
        <path id="Path_1277464" data-name="Path 1277464" d="M236.837,21.052a4.8,4.8,0,0,1,0,9.6h-1.6v9.6h-9.6v-1.6a4.8,4.8,0,0,0-9.6,0v1.6h-9.6v-3.2A28.775,28.775,0,0,1,235.238,8.258V21.052Z" transform="translate(-166.282 -7.086)" fill="#75c5b4"/>
        <path id="Path_1277465" data-name="Path 1277465" d="M64.3,165.975A3.276,3.276,0,0,0,61,169.269v.592a3.275,3.275,0,0,0,.192,1.1L61,170.772l-3.2-4.11V146.784h9.6v-1.6a4.8,4.8,0,0,1,9.6,0v1.6h9.6v9.6h-1.6a4.8,4.8,0,1,0,0,9.6h1.6v19.191h-9.8A10.734,10.734,0,0,0,77,183.006a11.272,11.272,0,0,0-2.783-7.42l-7.42-8.492A3.37,3.37,0,0,0,64.3,165.975Z" transform="translate(-46.422 -113.628)" fill="#ffe177"/>
        <path id="Path_1277466" data-name="Path 1277466" d="M58.882,412.9l3.2,17.592H41.29l3.2-17.592Z" transform="translate(-33.104 -333.369)" fill="#fd8087"/>
        <path id="Path_1277467" data-name="Path 1277467" d="M21.245,237.553a3.27,3.27,0,0,1-.192-1.1v-.592a3.276,3.276,0,0,1,3.294-3.294,3.369,3.369,0,0,1,2.495,1.12l7.421,8.492a11.272,11.272,0,0,1,2.783,7.42,10.748,10.748,0,0,1-.208,2.159,11.284,11.284,0,0,1-2.047,4.606l-2.543,3.39H17.854l-3.278-6.557a59.734,59.734,0,0,1-6.317-26.755,3.495,3.495,0,0,1,3.47-3.47,3.466,3.466,0,0,1,3.406,2.895,21.534,21.534,0,0,0,2.719,7.388l3.2,4.11Z" transform="translate(-6.47 -180.216)" fill="#ffd3b6"/>
        <path id="Path_1277468" data-name="Path 1277468" d="M68.767,0A30.419,30.419,0,0,0,38.381,30.385v1.6h-6.4a6.4,6.4,0,0,0-12.794,0H9.6V44.423A5.052,5.052,0,0,0,0,46.643a61.728,61.728,0,0,0,6.488,27.48L9.527,80.2,6.08,99.152H30.7L27.286,80.361l2.122-2.83a12.892,12.892,0,0,0,1.986-3.966H41.58V51.175h-3.2a3.2,3.2,0,0,1,0-6.4h3.2v-9.6h9.6v-3.2a3.2,3.2,0,1,1,6.4,0v3.2h9.6v6.4a6.4,6.4,0,0,0,0,12.794V70.366h-8a4.777,4.777,0,0,0-3.55,8,4.724,4.724,0,0,0,0,6.4,4.777,4.777,0,0,0,3.55,8h.445a9.745,9.745,0,0,0,18.3,0h.443a4.777,4.777,0,0,0,3.55-8,4.724,4.724,0,0,0,0-6.4,4.747,4.747,0,0,0-1.411-7.47A108.624,108.624,0,0,1,92.253,48.847l2.065-2.983a27.082,27.082,0,0,0,4.835-15.479A30.419,30.419,0,0,0,68.767,0M9.912,95.954,12.53,81.561H24.252L26.87,95.954ZM26.851,75.612l-2.063,2.751H12.183L9.347,72.693A58.553,58.553,0,0,1,3.2,46.643a1.864,1.864,0,0,1,3.7-.307,22.666,22.666,0,0,0,6.366,12.373l.039.038a4.588,4.588,0,0,0,.186.432l4.327,7.213,2.743-1.646-4.327-7.211a1.731,1.731,0,0,1-.241-.878v-.584a1.7,1.7,0,0,1,2.979-1.119l7.419,8.478a9.677,9.677,0,0,1,.461,12.18M38.381,41.58a6.4,6.4,0,0,0,0,12.794V70.366H31.938c.01-.187.046-.373.046-.561A12.88,12.88,0,0,0,28.8,61.326L21.38,52.848a4.877,4.877,0,0,0-8.027,1c-.192-.273-.382-.55-.56-.833V35.183h9.6v-3.2a3.2,3.2,0,0,1,6.4,0v3.2h9.6Zm22.389-9.6a6.4,6.4,0,0,0-12.794,0h-6.4v-1.6A27.2,27.2,0,0,1,67.168,3.28V15.992h3.2a3.2,3.2,0,0,1,0,6.4h-3.2v9.6Zm-1.6,41.58H78.362a1.6,1.6,0,0,1,0,3.2H59.171a1.6,1.6,0,0,1,0-3.2m20.79,8a1.6,1.6,0,0,1-1.6,1.6H59.171a1.6,1.6,0,0,1,0-3.2H78.362a1.6,1.6,0,0,1,1.6,1.6M68.767,95.954a6.565,6.565,0,0,1-5.634-3.2H74.4A6.571,6.571,0,0,1,68.767,95.954Zm9.6-6.4H59.171a1.6,1.6,0,0,1,0-3.2H78.362a1.6,1.6,0,0,1,0,3.2M91.687,44.046l-2.065,2.981A111.966,111.966,0,0,0,77.272,70.366H70.366V51.175h-3.2a3.2,3.2,0,1,1,0-6.4h3.2v-9.6h6.4a6.4,6.4,0,1,0,12.794,0h5.916a23.9,23.9,0,0,1-3.785,8.863M86.358,31.985v3.2a3.2,3.2,0,1,1-6.4,0v-3.2h-9.6v-6.4a6.4,6.4,0,1,0,0-12.794V3.28A27.2,27.2,0,0,1,95.954,30.385q0,.8-.053,1.6Z" transform="translate(0.189 -0.428)"/>
        <path id="Path_1277469" data-name="Path 1277469" d="M21.314,42.627a4.8,4.8,0,1,0-4.8-4.8,4.8,4.8,0,0,0,4.8,4.8m0-6.4a1.6,1.6,0,1,1-1.6,1.6,1.6,1.6,0,0,1,1.6-1.6" transform="translate(-13.128 -27.063)"/>
        <path id="Path_1277470" data-name="Path 1277470" d="M87.379,42.627a4.8,4.8,0,1,0-4.8-4.8,4.8,4.8,0,0,0,4.8,4.8m0-6.4a1.6,1.6,0,1,1-1.6,1.6,1.6,1.6,0,0,1,1.6-1.6" transform="translate(-66.399 -27.063)"/>
        <path id="Path_1277471" data-name="Path 1277471" d="M153.443,42.627a4.8,4.8,0,1,0-4.8-4.8,4.8,4.8,0,0,0,4.8,4.8m0-6.4a1.6,1.6,0,1,1-1.6,1.6,1.6,1.6,0,0,1,1.6-1.6" transform="translate(-119.669 -27.063)"/>
      </g>
    </g>
  </g>
</svg>
