<svg xmlns="http://www.w3.org/2000/svg" xmlns:xlink="http://www.w3.org/1999/xlink" width="104" height="104" viewBox="0 0 104 104">
  <defs>
    <clipPath id="clip-path">
      <rect id="Rectangle_411427" data-name="Rectangle 411427" width="94.02" height="101.974" fill="none"/>
    </clipPath>
  </defs>
  <g id="Group_1207849" data-name="Group 1207849" transform="translate(2300 -1309)">
    <rect id="Rectangle_411437" data-name="Rectangle 411437" width="104" height="104" transform="translate(-2300 1309)" fill="none"/>
    <g id="Group_1207838" data-name="Group 1207838" transform="translate(-2295.01 1309)">
      <path id="Path_1277712" data-name="Path 1277712" d="M262.889,158.333l-15.267-8.815L232.356,140.7l15.267-8.809,30.527,17.624Z" transform="translate(-185.346 -105.21)" fill="#d6853a" fill-rule="evenodd"/>
      <path id="Path_1277713" data-name="Path 1277713" d="M21.277,158.333l15.267-8.815L51.8,140.7,36.543,131.9,6.01,149.519Z" transform="translate(-4.794 -105.21)" fill="#d6853a" fill-rule="evenodd"/>
      <path id="Path_1277714" data-name="Path 1277714" d="M112,175.435l15.267,8.815,15.267,8.815V223.07l-15.267,8.815L112,240.7l-15.261-8.815L81.468,223.07V193.065l15.267-8.815Z" transform="translate(-64.985 -139.941)" fill="#c97629" fill-rule="evenodd"/>
      <path id="Path_1277715" data-name="Path 1277715" d="M232.356,175.435l15.267,8.815,15.267,8.815V223.07l-15.267,8.815L232.356,240.7Z" transform="translate(-185.346 -139.941)" fill="#b06328" fill-rule="evenodd"/>
      <path id="Path_1277716" data-name="Path 1277716" d="M112,175.435l15.267,8.815,15.267,8.815-15.267,8.815L112,210.688l-15.261-8.809-15.267-8.815,15.267-8.815Z" transform="translate(-64.985 -139.941)" fill="#b06328" fill-rule="evenodd"/>
      <path id="Path_1277717" data-name="Path 1277717" d="M21.277,262.572l15.267,8.815L51.8,280.2l-15.261,8.815L6.01,271.387Z" transform="translate(-4.794 -209.449)" fill="#d6853a" fill-rule="evenodd"/>
      <path id="Path_1277718" data-name="Path 1277718" d="M262.889,262.572l-15.267,8.815L232.356,280.2l15.267,8.815,30.527-17.624Z" transform="translate(-185.346 -209.449)" fill="#d6853a" fill-rule="evenodd"/>
      <g id="Group_1207837" data-name="Group 1207837">
        <g id="Group_1207836" data-name="Group 1207836" clip-path="url(#clip-path)">
          <path id="Path_1277719" data-name="Path 1277719" d="M191.026,139.426h20.8a2.9,2.9,0,0,0,2.1-4.909,1.324,1.324,0,0,1,0-1.818,2.9,2.9,0,0,0,0-4,1.324,1.324,0,0,1,0-1.818,2.9,2.9,0,0,0,0-4,1.324,1.324,0,0,1,0-1.818,2.9,2.9,0,0,0-2.1-4.909h-5.959a2,2,0,0,1-1.938-2.5l1.485-5.735a3.485,3.485,0,0,0-2.455-4.261l-.356-.092a3.488,3.488,0,0,0-4.25,2.42l-2.088,7.41c-.413,1.462-1.239,2.759-2.759,2.759h-2.483v23.278Z" transform="translate(-152.378 -82.512)" fill="#efc9ae" fill-rule="evenodd"/>
          <path id="Path_1277720" data-name="Path 1277720" d="M283.037,203.082a2.137,2.137,0,0,0-.252-.3,1.324,1.324,0,0,1,0-1.818,3.083,3.083,0,0,0,.252-.3h-4.479a1.213,1.213,0,1,0,0,2.426Zm0-5.821a2.508,2.508,0,0,0-.252-.3,1.324,1.324,0,0,1,0-1.818,2.537,2.537,0,0,0,.252-.3h-4.479a1.213,1.213,0,1,0,0,2.426h4.479Zm0-5.821a3.06,3.06,0,0,0-.252-.3,1.324,1.324,0,0,1,0-1.818,2.149,2.149,0,0,0,.252-.3h-4.479a1.213,1.213,0,1,0,0,2.426Z" transform="translate(-221.23 -150.773)" fill="#e2b698" fill-rule="evenodd"/>
          <rect id="Rectangle_411426" data-name="Rectangle 411426" width="6.98" height="23.278" transform="translate(31.669 33.636)" fill="#3589c9"/>
          <path id="Path_1277721" data-name="Path 1277721" d="M87.079,33.5,89.3,38.648l5.575.522-4.2,3.7L91.9,48.341l-4.823-2.856-4.817,2.856,1.222-5.465-4.2-3.7,5.574-.522Z" transform="translate(-63.244 -26.726)" fill="#ffcb5b" fill-rule="evenodd"/>
          <path id="Path_1277722" data-name="Path 1277722" d="M318.9,32.767l2.225,5.144,5.574.522-4.2,3.7,1.222,5.465L318.9,44.748,314.084,47.6l1.221-5.465-4.2-3.7,5.575-.522Z" transform="translate(-248.16 -26.138)" fill="#ffcb5b" fill-rule="evenodd"/>
          <path id="Path_1277723" data-name="Path 1277723" d="M201.627,6.008l2.225,5.144,5.574.522-4.2,3.7,1.227,5.466-4.823-2.856-4.817,2.856,1.222-5.466-4.2-3.7,5.574-.522Z" transform="translate(-154.617 -4.792)" fill="#ffcb5b" fill-rule="evenodd"/>
          <path id="Path_1277724" data-name="Path 1277724" d="M44.905,7.564a1.218,1.218,0,0,0,1-.728l1.107-2.558,1.107,2.558a1.211,1.211,0,0,0,1,.728l2.776.264L49.8,9.669a1.214,1.214,0,0,0-.384,1.176l.614,2.724-2.4-1.416a1.188,1.188,0,0,0-.619-.172,1.218,1.218,0,0,0-.62.172l-2.4,1.416.608-2.724a1.2,1.2,0,0,0-.384-1.176L42.129,7.828Zm-2.833,3.453-1.061,4.766a1.209,1.209,0,0,0,1.8,1.308l4.2-2.483,4.2,2.483a1.212,1.212,0,0,0,1.807-1.308l-1.061-4.766,3.659-3.223a1.214,1.214,0,0,0-.688-2.122l-4.858-.459L48.128.734a1.215,1.215,0,0,0-2.231,0L43.965,5.213,39.1,5.672a1.218,1.218,0,0,0-.688,2.122l3.665,3.223Zm26.559,1.961a1.218,1.218,0,0,0,1-.728l1.107-2.558,1.107,2.558a1.2,1.2,0,0,0,1,.728l2.781.264-2.093,1.841a1.211,1.211,0,0,0-.379,1.176l.608,2.724-2.4-1.416a1.2,1.2,0,0,0-1.239,0l-2.4,1.416.608-2.724a1.211,1.211,0,0,0-.379-1.176l-2.093-1.841ZM65.8,16.431,64.731,21.2a1.218,1.218,0,0,0,1.807,1.313l4.2-2.489,4.2,2.489a1.269,1.269,0,0,0,.619.166,1.251,1.251,0,0,0,.717-.229,1.218,1.218,0,0,0,.47-1.25l-1.067-4.766,3.665-3.223a1.217,1.217,0,0,0-.694-2.122l-4.858-.459L71.86,6.147a1.2,1.2,0,0,0-1.118-.734,1.208,1.208,0,0,0-1.113.734L67.69,10.626l-4.863.459a1.218,1.218,0,0,0-.688,2.122L65.8,16.431Zm-44.074-3.3a1.219,1.219,0,0,0,1-.728l1.1-2.558L24.947,12.4a1.2,1.2,0,0,0,1,.728l2.776.264-2.093,1.841a1.227,1.227,0,0,0-.384,1.176l.608,2.724-2.4-1.416a1.2,1.2,0,0,0-1.239,0l-2.4,1.416.608-2.724a1.214,1.214,0,0,0-.384-1.176l-2.088-1.841ZM18.9,16.58,17.83,21.345a1.222,1.222,0,0,0,.476,1.25,1.2,1.2,0,0,0,.717.229,1.182,1.182,0,0,0,.614-.172l4.2-2.483,4.2,2.483a1.207,1.207,0,0,0,1.33-.057,1.229,1.229,0,0,0,.47-1.25L28.778,16.58l3.665-3.223a1.217,1.217,0,0,0-.694-2.122l-4.858-.459L24.953,6.3a1.215,1.215,0,0,0-2.231,0l-1.938,4.479-4.863.459a1.218,1.218,0,0,0-.688,2.122L18.9,16.58Zm43.38,61.577-12.835-7.41,28.1-16.224,12.835,7.41Zm14.045,4.273-28.1,16.224v-25.8l13.443,7.765a1.22,1.22,0,0,0,.608.161,1.19,1.19,0,0,0,.608-.161l13.437-7.76v9.572ZM17.7,72.857l13.437,7.76a1.225,1.225,0,0,0,.614.161,1.184,1.184,0,0,0,.6-.161l13.443-7.765v25.8L17.7,82.429V72.858Zm-1.21-18.335,28.09,16.224-12.829,7.41L3.647,61.932ZM31.749,28.084l7.5,4.336H31.669a1.217,1.217,0,0,0-1.216,1.216V43.649L16.488,51.713l-12.841-7.4,28.1-16.224ZM45.054,31.21l2.1-7.41A2.271,2.271,0,0,1,49.9,22.211l.367.1a2.264,2.264,0,0,1,1.594,2.776l-1.485,5.741a3.209,3.209,0,0,0,3.114,4.02h5.953a1.7,1.7,0,0,1,1.233,2.856,2.666,2.666,0,0,0-.39.528H57.328a1.216,1.216,0,1,0,0,2.432h2.959a2.314,2.314,0,0,0,.39.533,1.7,1.7,0,0,1,0,2.328,2.672,2.672,0,0,0-.39.528H57.328a1.216,1.216,0,1,0,0,2.432h2.959a2.447,2.447,0,0,0,.39.533,1.7,1.7,0,0,1,0,2.323,2.5,2.5,0,0,0-.39.533H57.328a1.216,1.216,0,1,0,0,2.432h2.959a2.675,2.675,0,0,0,.39.528A1.7,1.7,0,0,1,59.444,55.7H39.864V34.852h1.267c1.09,0,3.045-.47,3.923-3.642ZM37.433,55.7H32.891V34.851h4.542ZM47.01,69.342l-28.1-16.224,11.539-6.658V56.914a1.217,1.217,0,0,0,1.216,1.216H59.444a4.133,4.133,0,0,0,2.994-6.968.1.1,0,0,1,0-.143,4.117,4.117,0,0,0,.585-4.875l12.084,6.974L47.01,69.342ZM62.277,28.084l28.1,16.224-12.835,7.4L63.4,43.552a4.135,4.135,0,0,0-.958-4.026.1.1,0,0,1,0-.143,4.127,4.127,0,0,0-2.994-6.962H54.77Zm31.135,32.8L79.969,53.118l13.443-7.754a1.214,1.214,0,0,0,.608-1.055,1.2,1.2,0,0,0-.608-1.05L62.885,25.624a1.24,1.24,0,0,0-1.216,0l-8.74,5.053,1.285-4.967A4.7,4.7,0,0,0,50.9,19.969l-.361-.1a4.728,4.728,0,0,0-5.735,3.269L42.715,30.55a4.985,4.985,0,0,1-.321.877l-10.042-5.8a1.24,1.24,0,0,0-1.216,0L.608,43.259A1.21,1.21,0,0,0,0,44.309a1.226,1.226,0,0,0,.608,1.055l13.443,7.754L.608,60.883A1.21,1.21,0,0,0,0,61.932a1.226,1.226,0,0,0,.608,1.055l14.664,8.465V83.129a1.221,1.221,0,0,0,.6,1.055L46.4,101.814a1.22,1.22,0,0,0,.608.161,1.19,1.19,0,0,0,.608-.161L78.146,84.184a1.214,1.214,0,0,0,.608-1.055V71.453l14.659-8.465a1.214,1.214,0,0,0,.608-1.055A1.2,1.2,0,0,0,93.412,60.883Z" fill="#070202"/>
        </g>
      </g>
    </g>
  </g>
</svg>
