<svg xmlns="http://www.w3.org/2000/svg" xmlns:xlink="http://www.w3.org/1999/xlink" width="104" height="104" viewBox="0 0 104 104">
  <defs>
    <clipPath id="clip-path">
      <rect id="Rectangle_411379" data-name="Rectangle 411379" width="100.257" height="90.172" fill="none"/>
    </clipPath>
  </defs>
  <g id="Group_1207782" data-name="Group 1207782" transform="translate(6702 -4411)">
    <rect id="Rectangle_411378" data-name="Rectangle 411378" width="104" height="104" transform="translate(-6702 4411)" fill="none"/>
    <g id="Group_1207770" data-name="Group 1207770" transform="translate(-6698.257 4419.668)">
      <g id="Group_1207769" data-name="Group 1207769" clip-path="url(#clip-path)">
        <path id="Path_1277447" data-name="Path 1277447" d="M103.128,90.355c-3.517,3.692-27.824,3.356-32.735-4.579-1.314-2.123-1.02-3.643-.818-18.392.185-13.478-8.01-14.79-10.62-24.293C45.641-5.4,127.549-7.8,125.864,33.47c-.149,3.647-1.615,7.142-1.78,10.789a9.777,9.777,0,0,0,2.234,6.829,2.587,2.587,0,0,1,.034,3.513,6.528,6.528,0,0,0-1.8,5.8,20.5,20.5,0,0,1,.77,3.016,2.19,2.19,0,0,1-1.512,2.4c-.682.107-1.447-.262-2.038.1-.55.333-.614,1.092-.6,1.735a49.289,49.289,0,0,0,.589,6.812,4.352,4.352,0,0,1-3.122,4.807,23,23,0,0,1-14.227-1.47C104.418,77.92,104.941,88.451,103.128,90.355Z" transform="translate(-44.427 -3.455)" fill="#ffd3b6"/>
        <path id="Path_1277448" data-name="Path 1277448" d="M21.8,120.163A17.473,17.473,0,1,1,4.327,137.636,17.473,17.473,0,0,1,21.8,120.163" transform="translate(-3.344 -92.857)" fill="#fd8087"/>
        <path id="Path_1277449" data-name="Path 1277449" d="M82.419,30.056c.462-11.3-5.136-20.441-15.763-25.725C52.477-2.72,33.238-1,21.9,8.326a26.312,26.312,0,0,0-9.721,19.118A18.441,18.441,0,0,0,24.141,62.329c.344,8.522-1.147,17.057.989,20.51,5.133,8.294,30.157,9.069,34.283,4.74h0c1.711-1.8,1.71-8.651,1.616-11.759,7.155,2.6,18.448,2.522,17.273-4.963a48.383,48.383,0,0,1-.577-6.676c-.013-.75.127-.875.129-.877.163-.1.94.151,1.681.034A3.149,3.149,0,0,0,81.875,59.9c-.131-2.072-2.29-4.886.76-8.073a3.558,3.558,0,0,0-.021-4.858C78.385,42.367,82.182,35.868,82.419,30.056ZM1.966,44.779a16.49,16.49,0,1,1,16.49,16.49,16.509,16.509,0,0,1-16.49-16.49m79.2,3.519a1.61,1.61,0,0,1,.047,2.169c-3.842,4.014-1.4,8.033-1.3,9.556.037.579-.253,1.3-.683,1.371-.486.075-1.473-.333-2.394.226a2.818,2.818,0,0,0-1.077,2.592,50.428,50.428,0,0,0,.6,6.948c.889,5.672-10.07,4.855-15.986,2.283A.986.986,0,0,0,59,74.408c.218,3.63.066,10.682-1.011,11.814C54.871,89.5,31.325,89.113,26.8,81.8c-1.716-2.773-.307-13.706-.741-20.229a18.431,18.431,0,0,0-11.9-34.726,24.273,24.273,0,0,1,9-17.005C33.726,1.142,52.446-.54,65.781,6.091c9.891,4.918,15.1,13.4,14.675,23.884-.225,5.492-4.329,12.841.712,18.323" transform="translate(0 0)"/>
        <path id="Path_1277450" data-name="Path 1277450" d="M267.334,141.5a.983.983,0,0,0,1.384,1.4,4.7,4.7,0,0,1,6.606,0,.983.983,0,1,0,1.387-1.393,6.666,6.666,0,0,0-9.377,0" transform="translate(-206.359 -107.86)"/>
        <path id="Path_1277451" data-name="Path 1277451" d="M63.422,176.421l-6.847,6.847-3.225-3.225a.983.983,0,1,0-1.39,1.39l3.92,3.92a.983.983,0,0,0,1.39,0l7.542-7.542a.983.983,0,1,0-1.39-1.39Z" transform="translate(-39.93 -136.108)"/>
        <path id="Path_1277452" data-name="Path 1277452" d="M410.41,257.5a.982.982,0,0,0,1.39,0,18.425,18.425,0,0,0,0-26.028.983.983,0,1,0-1.39,1.39,16.458,16.458,0,0,1,0,23.248A.983.983,0,0,0,410.41,257.5Z" transform="translate(-316.925 -178.646)"/>
        <path id="Path_1277453" data-name="Path 1277453" d="M389.1,269.12a.982.982,0,0,0,1.39,0,11.561,11.561,0,0,0,0-16.342.983.983,0,0,0-1.39,1.39,9.6,9.6,0,0,1,0,13.563A.983.983,0,0,0,389.1,269.12Z" transform="translate(-300.459 -195.113)"/>
        <path id="Path_1277454" data-name="Path 1277454" d="M367.793,274.088a.982.982,0,0,0,0,1.39,2.746,2.746,0,0,1,0,3.878.983.983,0,0,0,1.39,1.39,4.714,4.714,0,0,0,0-6.658.982.982,0,0,0-1.39,0" transform="translate(-283.992 -211.581)"/>
      </g>
    </g>
  </g>
</svg>
